<svg width="320" height="321" viewBox="0 0 320 321" fill="none" xmlns="http://www.w3.org/2000/svg">
<g clip-path="url(#clip0_8_3167)">
<path fill-rule="evenodd" clip-rule="evenodd" d="M0 163.009V321.006L160.25 320.753L320.5 320.5L320.753 162.5L321.006 4.5L160.503 4.756L0 5.012V163.009ZM0.488 163C0.488 250.175 0.606 285.837 0.75 242.25C0.894 198.662 0.894 127.337 0.75 83.75C0.606 40.162 0.488 75.825 0.488 163ZM20 20V25H15H10V30V35H15H20V40V45H15H10V50V55H15H20V60V65H15H10V70V75H15H20V80V85H15H10V90V95H15H20V100V105H15H10V110V115H15H20V120V125H15H10V130V135H15H20V140V145H15H10V150V155H15H20V150V145H25H30V140V135H35H40V130V125H45H50V120V115H55H60V120V125H65H70V120V115H75H80V120V125H85H90V130V135H95H100V140V145H95H90V150V155H95H100V160V165H105H110V170V175H105H100V180V185H105H110V190V195H115H120V190V185H125H130V190V195H135H140V190V185H145H150V190V195H155H160V200V205H155H150V215V225H145H140V220V215H135H130V220V225H105H80V220V215H75H70V210V205H65H60V200V195H65H70V190V185H65H60V175V165H55H50V160V155H45H40V160V165H30H20V170V175H15H10V245V315H45H80V305V295H85H90V290V285H95H100V280V275H105H110V270V265H115H120V260V255H125H130V250V245H135H140V240V235H145H150V230V225H155H160V220V215H170H180V220V225H175H170V230V235H165H160V240V245H155H150V250V255H145H140V260V265H135H130V270V275H125H120V280V285H115H110V290V295H115H120V300V305H125H130V310V315H135H140V310V305H145H150V310V315H155H160V310V305H165H170V310V315H175H180V310V305H185H190V310V315H195H200V310V305H205H210V310V315H215H220V310V305H225H230V310V315H235H240V310V305H245H250V310V315H255H260V310V305H265H270V310V315H275H280V310V305H285H290V310V315H295H300V310V305H305H310V300V295H305H300V290V285H305H310V280V275H305H300V270V265H305H310V260V255H305H300V260V265H295H290V270V275H285H280V280V285H275H270V290V295H265H260V300V305H255H250V300V295H245H240V300V305H235H230V300V295H225H220V300V305H215H210V300V295H205H200V290V285H195H190V280V275H185H180V270V265H185H190V260V255H185H180V250V245H175H170V240V235H175H180V230V225H190H200V230V235H195H190V240V245H195H200V260V275H205H210V280V285H235H260V280V275H265H270V260V245H265H260V240V235H255H250V230V225H245H240V230V235H235H230V230V225H225H220V230V235H215H210V230V225H205H200V220V215H195H190V200V185H195H200V180V175H195H190V170V165H200H210V155V145H215H220V140V135H215H210V130V125H220H230V130V135H235H240V140V145H235H230V150V155H225H220V160V165H225H230V170V175H235H240V180V185H245H250V180V175H255H260V180V185H265H270V190V195H275H280V190V185H285H290V190V195H295H300V200V205H295H290V210V215H295H300V220V225H305H310V220V215H305H300V210V205H305H310V200V195H305H300V190V185H305H310V180V175H305H300V170V165H305H310V160V155H305H300V150V145H305H310V140V135H305H300V130V125H305H310V120V115H305H300V110V105H295H290V100V95H285H280V90V85H290H300V90V95H305H310V55V15H225H140V25V35H135H130V40V45H125H120V60V75H115H110V80V85H115H120V90V95H115H110V100V105H115H120V110V115H125H130V110V105H135H140V110V115H145H150V110V105H155H160V115V125H155H150V130V135H145H140V130V125H135H130V130V135H125H120V130V125H115H110V120V115H105H100V110V105H95H90V100V95H95H100V90V85H95H90V80V75H95H100V70V65H105H110V60V55H105H100V50V45H105H110V40V35H115H120V30V25H125H130V20V15H125H120V20V25H115H110V20V15H105H100V20V25H95H90V20V15H85H80V20V25H75H70V20V15H65H60V20V25H55H50V20V15H45H40V20V25H35H30V20V15H25H20V20ZM20 30V35H25H30V40V45H25H20V50V55H25H30V60V65H25H20V70V75H25H30V80V85H25H20V90V95H25H30V100V105H25H20V110V115H25H30V120V125H25H20V130V135H25H30V130V125H35H40V120V115H45H50V110V105H55H60V110V115H65H70V110V105H75H80V110V115H85H90V120V125H95H100V130V135H105H110V140V145H105H100V150V155H105H110V160V165H115H120V170V175H115H110V180V185H115H120V180V175H125H130V180V185H135H140V180V175H145H150V180V185H155H160V190V195H165H170V200V205H175H180V200V195H175H170V190V185H175H180V165V145H175H170V140V135H175H180V130V125H170H160V130V135H155H150V140V145H145H140V140V135H135H130V140V145H125H120V140V135H115H110V130V125H105H100V120V115H95H90V110V105H85H80V100V95H85H90V90V85H85H80V80V75H85H90V70V65H95H100V60V55H95H90V50V45H95H100V40V35H105H110V30V25H105H100V30V35H95H90V30V25H85H80V30V35H75H70V30V25H65H60V30V35H55H50V30V25H45H40V30V35H35H30V30V25H25H20V30ZM150 30V35H155H160V30V25H155H150V30ZM170 30V35H175H180V30V25H175H170V30ZM190 30V35H195H200V30V25H195H190V30ZM210 30V35H215H220V30V25H215H210V30ZM230 30V35H235H240V30V25H235H230V30ZM250 30V35H255H260V30V25H255H250V30ZM270 30V35H275H280V30V25H275H270V30ZM290 30V35H295H300V30V25H295H290V30ZM40 40V45H35H30V50V55H35H40V60V65H35H30V70V75H35H40V80V85H35H30V90V95H35H40V100V105H35H30V110V115H35H40V110V105H45H50V100V95H55H60V100V105H65H70V100V95H75H80V90V85H75H70V80V75H75H80V70V65H85H90V60V55H85H80V50V45H85H90V40V35H85H80V40V45H75H70V40V35H65H60V40V45H55H50V40V35H45H40V40ZM40 50V55H45H50V60V65H45H40V70V75H45H50V80V85H45H40V90V95H45H50V90V85H55H60V90V95H65H70V90V85H65H60V80V75H65H70V70V65H75H80V60V55H75H70V50V45H65H60V50V55H55H50V50V45H45H40V50ZM130 50V55H135H140V50V45H135H130V50ZM150 50V55H155H160V50V45H155H150V50ZM170 50V55H175H180V50V45H175H170V50ZM190 50V55H195H200V50V45H195H190V50ZM210 50V55H215H220V50V45H215H210V50ZM230 50V55H235H240V50V45H235H230V50ZM250 50V55H255H260V50V45H255H250V50ZM270 50V55H275H280V50V45H275H270V50ZM290 50V55H295H300V50V45H295H290V50ZM60 60V65H55H50V70V75H55H60V70V65H65H70V60V55H65H60V60ZM130 70V75H135H140V70V65H135H130V70ZM150 70V75H155H160V70V65H155H150V70ZM170 70V75H175H180V70V65H175H170V70ZM190 70V75H195H200V70V65H195H190V70ZM210 70V75H215H220V70V65H215H210V70ZM230 70V75H235H240V70V65H235H230V70ZM250 70V75H255H260V80V85H255H250V90V95H245H240V90V85H235H230V90V95H235H240V100V105H235H230V115V125H235H240V130V135H245H250V140V145H245H240V150V155H235H230V160V165H235H240V170V175H245H250V170V165H255H260V170V175H265H270V180V185H275H280V180V175H285H290V180V185H295H300V180V175H295H290V170V165H295H300V160V155H295H290V150V145H295H300V140V135H295H290V130V125H295H300V120V115H295H290V110V105H285H280V100V95H275H270V90V85H275H280V75V65H275H270V70V75H265H260V70V65H255H250V70ZM290 70V75H295H300V70V65H295H290V70ZM130 90V95H135H140V90V85H135H130V90ZM150 90V95H155H160V90V85H155H150V90ZM170 90V95H175H180V90V85H175H170V90ZM190 90V95H195H200V90V85H195H190V90ZM210 90V95H215H220V90V85H215H210V90ZM260 100V105H255H250V110V115H245H240V120V125H245H250V130V135H255H260V140V145H255H250V150V155H245H240V160V165H245H250V160V155H255H260V160V165H265H270V170V175H275H280V170V165H285H290V160V155H285H280V150V145H285H290V140V135H285H280V130V125H285H290V120V115H285H280V110V105H275H270V100V95H265H260V100ZM170 110V115H175H180V110V105H175H170V110ZM190 110V115H195H200V110V105H195H190V110ZM210 110V115H215H220V110V105H215H210V110ZM260 110V115H255H250V120V125H255H260V130V135H265H270V140V145H265H260V150V155H265H270V160V165H275H280V160V155H275H270V150V145H275H280V140V135H275H270V130V125H275H280V120V115H275H270V110V105H265H260V110ZM260 120V125H265H270V120V115H265H260V120ZM190 130V135H195H200V130V125H195H190V130ZM110 150V155H115H120V160V165H125H130V170V175H135H140V170V165H145H150V170V175H155H160V180V185H165H170V180V175H165H160V170V165H165H170V160V155H165H160V150V145H155H150V150V155H145H140V150V145H135H130V150V155H125H120V150V145H115H110V150ZM190 150V155H195H200V150V145H195H190V150ZM130 160V165H135H140V160V155H135H130V160ZM150 160V165H155H160V160V155H155H150V160ZM20 180V185H25H30V180V175H25H20V180ZM40 180V185H45H50V180V175H45H40V180ZM20 200V205H25H30V200V195H25H20V200ZM40 200V205H45H50V200V195H45H40V200ZM20 220V225H25H30V220V215H25H20V220ZM40 220V225H45H50V220V215H45H40V220ZM60 220V225H65H70V220V215H65H60V220ZM20 240V245H25H30V240V235H25H20V240ZM40 240V245H45H50V240V235H45H40V240ZM60 240V245H65H70V240V235H65H60V240ZM80 240V245H85H90V240V235H85H80V240ZM100 240V245H105H110V240V235H105H100V240ZM120 240V245H125H130V240V235H125H120V240ZM300 240V245H305H310V240V235H305H300V240ZM160 250V255H155H150V260V265H145H140V270V275H135H130V280V285H125H120V290V295H125H130V300V305H135H140V300V295H145H150V300V305H155H160V300V295H165H170V300V305H175H180V300V295H185H190V300V305H195H200V300V295H195H190V290V285H185H180V280V275H175H170V270V265H175H180V260V255H175H170V250V245H165H160V250ZM210 250V255H215H220V250V245H215H210V250ZM230 250V255H235H240V250V245H235H230V250ZM250 250V255H255H260V250V245H255H250V250ZM20 260V265H25H30V260V255H25H20V260ZM40 260V265H45H50V260V255H45H40V260ZM60 260V265H65H70V260V255H65H60V260ZM80 260V265H85H90V260V255H85H80V260ZM100 260V265H105H110V260V255H105H100V260ZM160 260V265H155H150V270V275H145H140V280V285H135H130V290V295H135H140V290V285H145H150V290V295H155H160V290V285H165H170V290V295H175H180V290V285H175H170V280V275H165H160V270V265H165H170V260V255H165H160V260ZM210 270V275H215H220V270V265H215H210V270ZM230 270V275H235H240V270V265H235H230V270ZM250 270V275H255H260V270V265H255H250V270ZM20 280V285H25H30V280V275H25H20V280ZM40 280V285H45H50V280V275H45H40V280ZM60 280V285H65H70V280V275H65H60V280ZM80 280V285H85H90V280V275H85H80V280ZM150 280V285H155H160V280V275H155H150V280ZM290 280V285H285H280V290V295H275H270V300V305H275H280V300V295H285H290V300V305H295H300V300V295H295H290V290V285H295H300V280V275H295H290V280ZM20 300V305H25H30V300V295H25H20V300ZM40 300V305H45H50V300V295H45H40V300ZM60 300V305H65H70V300V295H65H60V300Z" fill="#040404"/>
<path fill-rule="evenodd" clip-rule="evenodd" d="M20 20V25H15H10V30V35H15H20V40V45H15H10V50V55H15H20V60V65H15H10V70V75H15H20V80V85H15H10V90V95H15H20V100V105H15H10V110V115H15H20V120V125H15H10V130V135H15H20V140V145H15H10V150V155H15H20V150V145H25H30V140V135H35H40V130V125H45H50V120V115H55H60V120V125H65H70V120V115H75H80V120V125H85H90V130V135H95H100V140V145H95H90V150V155H95H100V160V165H105H110V170V175H105H100V180V185H105H110V190V195H115H120V190V185H125H130V190V195H135H140V190V185H145H150V190V195H155H160V200V205H155H150V215V225H145H140V220V215H135H130V220V225H105H80V220V215H75H70V210V205H65H60V200V195H65H70V190V185H65H60V175V165H55H50V160V155H45H40V160V165H30H20V170V175H15H10V245V315H45H80V305V295H85H90V290V285H95H100V280V275H105H110V270V265H115H120V260V255H125H130V250V245H135H140V240V235H145H150V230V225H155H160V220V215H170H180V220V225H175H170V230V235H165H160V240V245H155H150V250V255H145H140V260V265H135H130V270V275H125H120V280V285H115H110V290V295H115H120V300V305H125H130V310V315H135H140V310V305H145H150V310V315H155H160V310V305H165H170V310V315H175H180V310V305H185H190V310V315H195H200V310V305H205H210V310V315H215H220V310V305H225H230V310V315H235H240V310V305H245H250V310V315H255H260V310V305H265H270V310V315H275H280V310V305H285H290V310V315H295H300V310V305H305H310V300V295H305H300V290V285H305H310V280V275H305H300V270V265H305H310V260V255H305H300V260V265H295H290V270V275H285H280V280V285H275H270V290V295H265H260V300V305H255H250V300V295H245H240V300V305H235H230V300V295H225H220V300V305H215H210V300V295H205H200V290V285H195H190V280V275H185H180V270V265H185H190V260V255H185H180V250V245H175H170V240V235H175H180V230V225H190H200V230V235H195H190V240V245H195H200V260V275H205H210V280V285H235H260V280V275H265H270V260V245H265H260V240V235H255H250V230V225H245H240V230V235H235H230V230V225H225H220V230V235H215H210V230V225H205H200V220V215H195H190V200V185H195H200V180V175H195H190V170V165H200H210V155V145H215H220V140V135H215H210V130V125H220H230V130V135H235H240V140V145H235H230V150V155H225H220V160V165H225H230V170V175H235H240V180V185H245H250V180V175H255H260V180V185H265H270V190V195H275H280V190V185H285H290V190V195H295H300V200V205H295H290V210V215H295H300V220V225H305H310V220V215H305H300V210V205H305H310V200V195H305H300V190V185H305H310V180V175H305H300V170V165H305H310V160V155H305H300V150V145H305H310V140V135H305H300V130V125H305H310V120V115H305H300V110V105H295H290V100V95H285H280V90V85H290H300V90V95H305H310V55V15H225H140V25V35H135H130V40V45H125H120V60V75H115H110V80V85H115H120V90V95H115H110V100V105H115H120V110V115H125H130V110V105H135H140V110V115H145H150V110V105H155H160V115V125H155H150V130V135H145H140V130V125H135H130V130V135H125H120V130V125H115H110V120V115H105H100V110V105H95H90V100V95H95H100V90V85H95H90V80V75H95H100V70V65H105H110V60V55H105H100V50V45H105H110V40V35H115H120V30V25H125H130V20V15H125H120V20V25H115H110V20V15H105H100V20V25H95H90V20V15H85H80V20V25H75H70V20V15H65H60V20V25H55H50V20V15H45H40V20V25H35H30V20V15H25H20V20ZM20 30V35H25H30V40V45H25H20V50V55H25H30V60V65H25H20V70V75H25H30V80V85H25H20V90V95H25H30V100V105H25H20V110V115H25H30V120V125H25H20V130V135H25H30V130V125H35H40V120V115H45H50V110V105H55H60V110V115H65H70V110V105H75H80V110V115H85H90V120V125H95H100V130V135H105H110V140V145H105H100V150V155H105H110V160V165H115H120V170V175H115H110V180V185H115H120V180V175H125H130V180V185H135H140V180V175H145H150V180V185H155H160V190V195H165H170V200V205H175H180V200V195H175H170V190V185H175H180V165V145H175H170V140V135H175H180V130V125H170H160V130V135H155H150V140V145H145H140V140V135H135H130V140V145H125H120V140V135H115H110V130V125H105H100V120V115H95H90V110V105H85H80V100V95H85H90V90V85H85H80V80V75H85H90V70V65H95H100V60V55H95H90V50V45H95H100V40V35H105H110V30V25H105H100V30V35H95H90V30V25H85H80V30V35H75H70V30V25H65H60V30V35H55H50V30V25H45H40V30V35H35H30V30V25H25H20V30ZM150 30V35H155H160V30V25H155H150V30ZM170 30V35H175H180V30V25H175H170V30ZM190 30V35H195H200V30V25H195H190V30ZM210 30V35H215H220V30V25H215H210V30ZM230 30V35H235H240V30V25H235H230V30ZM250 30V35H255H260V30V25H255H250V30ZM270 30V35H275H280V30V25H275H270V30ZM290 30V35H295H300V30V25H295H290V30ZM40 40V45H35H30V50V55H35H40V60V65H35H30V70V75H35H40V80V85H35H30V90V95H35H40V100V105H35H30V110V115H35H40V110V105H45H50V100V95H55H60V100V105H65H70V100V95H75H80V90V85H75H70V80V75H75H80V70V65H85H90V60V55H85H80V50V45H85H90V40V35H85H80V40V45H75H70V40V35H65H60V40V45H55H50V40V35H45H40V40ZM40 50V55H45H50V60V65H45H40V70V75H45H50V80V85H45H40V90V95H45H50V90V85H55H60V90V95H65H70V90V85H65H60V80V75H65H70V70V65H75H80V60V55H75H70V50V45H65H60V50V55H55H50V50V45H45H40V50ZM130 50V55H135H140V50V45H135H130V50ZM150 50V55H155H160V50V45H155H150V50ZM170 50V55H175H180V50V45H175H170V50ZM190 50V55H195H200V50V45H195H190V50ZM210 50V55H215H220V50V45H215H210V50ZM230 50V55H235H240V50V45H235H230V50ZM250 50V55H255H260V50V45H255H250V50ZM270 50V55H275H280V50V45H275H270V50ZM290 50V55H295H300V50V45H295H290V50ZM60 60V65H55H50V70V75H55H60V70V65H65H70V60V55H65H60V60ZM130 70V75H135H140V70V65H135H130V70ZM150 70V75H155H160V70V65H155H150V70ZM170 70V75H175H180V70V65H175H170V70ZM190 70V75H195H200V70V65H195H190V70ZM210 70V75H215H220V70V65H215H210V70ZM230 70V75H235H240V70V65H235H230V70ZM250 70V75H255H260V80V85H255H250V90V95H245H240V90V85H235H230V90V95H235H240V100V105H235H230V115V125H235H240V130V135H245H250V140V145H245H240V150V155H235H230V160V165H235H240V170V175H245H250V170V165H255H260V170V175H265H270V180V185H275H280V180V175H285H290V180V185H295H300V180V175H295H290V170V165H295H300V160V155H295H290V150V145H295H300V140V135H295H290V130V125H295H300V120V115H295H290V110V105H285H280V100V95H275H270V90V85H275H280V75V65H275H270V70V75H265H260V70V65H255H250V70ZM290 70V75H295H300V70V65H295H290V70ZM130 90V95H135H140V90V85H135H130V90ZM150 90V95H155H160V90V85H155H150V90ZM170 90V95H175H180V90V85H175H170V90ZM190 90V95H195H200V90V85H195H190V90ZM210 90V95H215H220V90V85H215H210V90ZM260 100V105H255H250V110V115H245H240V120V125H245H250V130V135H255H260V140V145H255H250V150V155H245H240V160V165H245H250V160V155H255H260V160V165H265H270V170V175H275H280V170V165H285H290V160V155H285H280V150V145H285H290V140V135H285H280V130V125H285H290V120V115H285H280V110V105H275H270V100V95H265H260V100ZM170 110V115H175H180V110V105H175H170V110ZM190 110V115H195H200V110V105H195H190V110ZM210 110V115H215H220V110V105H215H210V110ZM260 110V115H255H250V120V125H255H260V130V135H265H270V140V145H265H260V150V155H265H270V160V165H275H280V160V155H275H270V150V145H275H280V140V135H275H270V130V125H275H280V120V115H275H270V110V105H265H260V110ZM260 120V125H265H270V120V115H265H260V120ZM190 130V135H195H200V130V125H195H190V130ZM110 150V155H115H120V160V165H125H130V170V175H135H140V170V165H145H150V170V175H155H160V180V185H165H170V180V175H165H160V170V165H165H170V160V155H165H160V150V145H155H150V150V155H145H140V150V145H135H130V150V155H125H120V150V145H115H110V150ZM190 150V155H195H200V150V145H195H190V150ZM130 160V165H135H140V160V155H135H130V160ZM150 160V165H155H160V160V155H155H150V160ZM20 180V185H25H30V180V175H25H20V180ZM40 180V185H45H50V180V175H45H40V180ZM20 200V205H25H30V200V195H25H20V200ZM40 200V205H45H50V200V195H45H40V200ZM20 220V225H25H30V220V215H25H20V220ZM40 220V225H45H50V220V215H45H40V220ZM60 220V225H65H70V220V215H65H60V220ZM20 240V245H25H30V240V235H25H20V240ZM40 240V245H45H50V240V235H45H40V240ZM60 240V245H65H70V240V235H65H60V240ZM80 240V245H85H90V240V235H85H80V240ZM100 240V245H105H110V240V235H105H100V240ZM120 240V245H125H130V240V235H125H120V240ZM300 240V245H305H310V240V235H305H300V240ZM160 250V255H155H150V260V265H145H140V270V275H135H130V280V285H125H120V290V295H125H130V300V305H135H140V300V295H145H150V300V305H155H160V300V295H165H170V300V305H175H180V300V295H185H190V300V305H195H200V300V295H195H190V290V285H185H180V280V275H175H170V270V265H175H180V260V255H175H170V250V245H165H160V250ZM210 250V255H215H220V250V245H215H210V250ZM230 250V255H235H240V250V245H235H230V250ZM250 250V255H255H260V250V245H255H250V250ZM20 260V265H25H30V260V255H25H20V260ZM40 260V265H45H50V260V255H45H40V260ZM60 260V265H65H70V260V255H65H60V260ZM80 260V265H85H90V260V255H85H80V260ZM100 260V265H105H110V260V255H105H100V260ZM160 260V265H155H150V270V275H145H140V280V285H135H130V290V295H135H140V290V285H145H150V290V295H155H160V290V285H165H170V290V295H175H180V290V285H175H170V280V275H165H160V270V265H165H170V260V255H165H160V260ZM210 270V275H215H220V270V265H215H210V270ZM230 270V275H235H240V270V265H235H230V270ZM250 270V275H255H260V270V265H255H250V270ZM20 280V285H25H30V280V275H25H20V280ZM40 280V285H45H50V280V275H45H40V280ZM60 280V285H65H70V280V275H65H60V280ZM80 280V285H85H90V280V275H85H80V280ZM150 280V285H155H160V280V275H155H150V280ZM290 280V285H285H280V290V295H275H270V300V305H275H280V300V295H285H290V300V305H295H300V300V295H295H290V290V285H295H300V280V275H295H290V280ZM20 300V305H25H30V300V295H25H20V300ZM40 300V305H45H50V300V295H45H40V300ZM60 300V305H65H70V300V295H65H60V300Z" fill="#FCFCFC"/>
</g>
<defs>
<clipPath id="clip0_8_3167">
<rect width="320" height="321" fill="white"/>
</clipPath>
</defs>
</svg>
