<svg width="301" height="310" viewBox="0 0 301 310" fill="none" xmlns="http://www.w3.org/2000/svg">
<g clip-path="url(#clip0_8_2790)">
<path fill-rule="evenodd" clip-rule="evenodd" d="M165 25V50H170H175V25V0H170H165V25ZM105 15V20H110H115V25V30H120H125V35V40H130H135V45V50H140H145V55V60H150H155V55V50H150H145V45V40H140H135V35V30H130H125V25V20H120H115V15V10H110H105V15ZM225 15V20H220H215V25V30H210H205V35V40H200H195V45V50H190H185V55V60H190H195V55V50H200H205V45V40H210H215V35V30H220H225V25V20H230H235V15V10H230H225V15ZM85 65V70H95H105V75V80H115H125V75V70H115H105V65V60H95H85V65ZM235 65V70H225H215V75V80H225H235V75V70H245H255V65V60H245H235V65ZM135 95V120H125H115V130V140H110H105V135V130H95H85V135V140H80H75V130V120H65H55V115V110H45H35V115V120H30H25V130V140H15H5V225V310H153H301V225V140H298H295V130V120H270H245V130V140H240H235V130V120H220H205V95V70H170H135V95ZM145 100V120H155H165V115V110H160H155V100V90H160H165V85V80H155H145V100ZM175 85V90H180H185V100V110H180H175V115V120H185H195V100V80H185H175V85ZM85 105V110H105H125V105V100H105H85V105ZM215 105V110H235H255V105V100H235H215V105ZM35 135V140H50H65V135V130H50H35V135ZM125 135V140H175H225V135V130H175H125V135ZM255 135V140H270H285V135V130H270H255V135ZM15 225V300H35H55V295V290H50H45V235V180H50H55V170V160H165H275V170V180H280H285V235V290H280H275V295V300H285H295V225V150H155H15V225ZM65 230V290H110H155V285V280H175H195V285V290H230H265V230V170H230H195V175V180H175H155V175V170H110H65V230ZM135 185V190H130H125V200V210H120H115V230V250H120H125V260V270H130H135V275V280H145H155V275V270H175H195V275V280H205H215V275V270H220H225V260V250H230H235V230V210H230H225V200V190H220H215V185V180H205H195V185V190H175H155V185V180H145H135V185ZM135 200V210H130H125V230V250H130H135V260V270H145H155V265V260H175H195V265V270H205H215V260V250H220H225V230V210H220H215V200V190H205H195V195V200H175H155V195V190H145H135V200ZM145 205V210H140H135V230V250H140H145V255V260H150H155V255V250H150H145V230V210H150H155V205V200H150H145V205ZM195 205V210H200H205V230V250H200H195V255V260H200H205V255V250H210H215V230V210H210H205V205V200H200H195V205ZM85 230V240H80H75V245V250H85H95V245V240H100H105V230V220H95H85V230Z" fill="#040404"/>
<path fill-rule="evenodd" clip-rule="evenodd" d="M145 100V120H155H165V115V110H160H155V100V90H160H165V85V80H155H145V100ZM175 85V90H180H185V100V110H180H175V115V120H185H195V100V80H185H175V85ZM35 135V140H50H65V135V130H50H35V135ZM125 135V140H175H225V135V130H175H125V135ZM255 135V140H270H285V135V130H270H255V135ZM15 225V300H35H55V295V290H50H45V235V180H50H55V170V160H165H275V170V180H280H285V235V290H280H275V295V300H285H295V225V150H155H15V225ZM65 230V290H110H155V285V280H175H195V285V290H230H265V230V170H230H195V175V180H175H155V175V170H110H65V230ZM135 185V190H130H125V200V210H120H115V230V250H120H125V260V270H130H135V275V280H145H155V275V270H175H195V275V280H205H215V275V270H220H225V260V250H230H235V230V210H230H225V200V190H220H215V185V180H205H195V185V190H175H155V185V180H145H135V185ZM135 200V210H130H125V230V250H130H135V260V270H145H155V265V260H175H195V265V270H205H215V260V250H220H225V230V210H220H215V200V190H205H195V195V200H175H155V195V190H145H135V200ZM145 205V210H140H135V230V250H140H145V255V260H150H155V255V250H150H145V230V210H150H155V205V200H150H145V205ZM195 205V210H200H205V230V250H200H195V255V260H200H205V255V250H210H215V230V210H210H205V205V200H200H195V205ZM85 230V240H80H75V245V250H85H95V245V240H100H105V230V220H95H85V230Z" fill="#FCFCFC"/>
</g>
<defs>
<clipPath id="clip0_8_2790">
<rect width="301" height="310" fill="white"/>
</clipPath>
</defs>
</svg>
