<svg width="14" height="12" viewBox="0 0 14 12" fill="none" xmlns="http://www.w3.org/2000/svg">
<g clip-path="url(#clip0_8_3224)">
<path fill-rule="evenodd" clip-rule="evenodd" d="M4.11765 2.78144V5.16555H2.05882H0V5.5629V5.96025H0.411765H0.823529V6.3576V6.75495H1.23529H1.64706V7.15231V7.54966H2.05882H2.47059V7.94701V8.34436H2.88235H3.29412V8.74171V9.13906H3.70588H4.11765V9.53641V9.93376H4.52941H4.94118V10.3311V10.7285H5.35294H5.76471V11.1258V11.5232H6.17647C6.57909 11.5232 6.58824 11.5285 6.58824 11.7616C6.58824 11.9947 6.59738 12 7 12C7.40262 12 7.41176 11.9947 7.41176 11.7616C7.41176 11.5285 7.42091 11.5232 7.82353 11.5232H8.23529V11.1258V10.7285H8.64706H9.05882V10.3311V9.93376H9.47059H9.88235V9.53641V9.13906H10.2941H10.7059V8.74171V8.34436H11.1176H11.5294V7.94701V7.54966H11.9412H12.3529V7.15231V6.75495H12.7647H13.1765V6.36174V5.9686L13.6088 5.94452L14.0412 5.92052L14.0654 5.52317L14.0897 5.12582L11.986 5.14831L9.88235 5.1708V2.78407V0.397339H7H4.11765V2.78144ZM0.0247059 5.5629C0.0247059 5.8033 0.0401059 5.90168 0.0589647 5.78144C0.0778235 5.66121 0.0778235 5.4646 0.0589647 5.34436C0.0401059 5.22412 0.0247059 5.3225 0.0247059 5.5629Z" fill="#040404"/>
</g>
<defs>
<clipPath id="clip0_8_3224">
<rect width="14" height="12" fill="white"/>
</clipPath>
</defs>
</svg>
