<svg width="11" height="12" viewBox="0 0 11 12" fill="none" xmlns="http://www.w3.org/2000/svg">
<g clip-path="url(#clip0_8_3208)">
<path fill-rule="evenodd" clip-rule="evenodd" d="M5.86667 0.701768V1.05265H5.5H5.13333V1.40352V1.7544H4.76667H4.4V2.10528V2.45615H4.03333H3.66667V2.80703V3.15791H3.3H2.93333V3.50879V3.85966H2.56667H2.2V4.21054V4.56142H1.83333H1.46667V4.91229V5.26317H1.1H0.733333V5.61405V5.96493H0.366667H0V6.3158V6.66668H0.366667H0.733333V7.01756V7.36844H1.1H1.46667V7.71931V8.07019H1.83333H2.2V8.42107V8.77194H2.56667H2.93333V9.12282V9.4737H3.3H3.66667V9.82458V10.1755H4.03333H4.4V10.5263V10.8772H4.76667H5.13333V11.2281V11.579H5.5C5.85853 11.579 5.86667 11.5837 5.86667 11.7895C5.86667 11.9953 5.87481 12 6.23333 12H6.6V10.386V8.77194H8.79179H10.9836L11.0115 7.49124C11.0268 6.78689 11.0267 5.68163 11.0112 5.0351L10.9831 3.85966H8.79157H6.6V2.10528V0.350891H6.23333H5.86667V0.701768ZM0.022 6.3158C0.022 6.52808 0.0357133 6.61496 0.0525067 6.50879C0.0693 6.40261 0.0693 6.229 0.0525067 6.12282C0.0357133 6.01665 0.022 6.10352 0.022 6.3158Z" fill="#040404"/>
</g>
<defs>
<clipPath id="clip0_8_3208">
<rect width="11" height="12" fill="white"/>
</clipPath>
</defs>
</svg>
