<svg width="11" height="12" viewBox="0 0 11 12" fill="none" xmlns="http://www.w3.org/2000/svg">
<g clip-path="url(#clip0_8_3214)">
<path fill-rule="evenodd" clip-rule="evenodd" d="M4.4 2.10528V3.85966H2.2H0V6.3158V8.77194H2.2H4.4V10.386V12H4.76667C5.12519 12 5.13333 11.9953 5.13333 11.7895C5.13333 11.5837 5.14147 11.579 5.5 11.579H5.86667V11.2281V10.8772H6.23333H6.6V10.5263V10.1755H6.96667H7.33333V9.82458V9.4737H7.7H8.06667V9.12282V8.77194H8.43333H8.8V8.42107V8.07019H9.16667H9.53333V7.71931V7.36844H9.9H10.2667V7.01756V6.66668H10.6314H10.9961L11.0185 7.70177C11.0308 8.27103 11.0408 7.6158 11.0408 6.24563C11.0407 4.87545 11.0307 4.25173 11.0185 4.85966L10.9963 5.96493H10.6315H10.2667V5.61405V5.26317H9.9H9.53333V4.91229V4.56142H9.16667H8.8V4.21054V3.85966H8.43333H8.06667V3.50879V3.15791H7.7H7.33333V2.80703V2.45615H6.96667H6.6V2.10528V1.7544H6.23333H5.86667V1.40352V1.05265H5.5H5.13333V0.701768V0.350891H4.76667H4.4V2.10528ZM0.0330733 6.3158C0.0330733 7.68598 0.0429 8.24654 0.0548533 7.56142C0.06688 6.87636 0.06688 5.75531 0.0548533 5.07019C0.0429 4.38514 0.0330733 4.94563 0.0330733 6.3158Z" fill="#040404"/>
</g>
<defs>
<clipPath id="clip0_8_3214">
<rect width="11" height="12" fill="white"/>
</clipPath>
</defs>
</svg>
