<svg width="561" height="440" viewBox="0 0 561 440" fill="none" xmlns="http://www.w3.org/2000/svg">
<path fill-rule="evenodd" clip-rule="evenodd" d="M395 5V10H390H385V25V40H390H395V25V10H420H445V15V20H455H465V25V30H470H475V25V20H470H465V15V10H455H445V5V0H420H395V5ZM345 15V20H350H355V15V10H350H345V15ZM335 35V40H340H345V35V30H340H335V35ZM355 50V60H350H345V55V50H340H335V55V60H340H345V65V70H340H335V80V90H340H345V85V80H365H385V75V70H380H375V65V60H380H385V55V50H375H365V45V40H360H355V50ZM495 75V80H500H505V85V90H510H515V85V80H510H505V75V70H500H495V75ZM395 90V100H400H405V110V120H410H415V125V130H420H425V135V140H430H435V145V150H440H445V145V140H440H435V135V130H430H425V125V120H420H415V110V100H410H405V90V80H400H395V90ZM525 95V110H520H515V115V120H525H535V130V140H540H545V130V120H553H561V115C561 110.111 560.933 110 558 110C555.067 110 555 109.889 555 105C555 100.111 555.067 100 558 100C560.933 100 561 99.889 561 95V90H548H535V85V80H530H525V95ZM365 135V140H370H375V145V150H380H385V155V160H390H395V155V150H390H385V145V140H380H375V135V130H370H365V135ZM455 145V150H460H465V145V140H460H455V145ZM275 155V160H260H245V165V170H230H215V175V180H200H185V190V200H215H245V205V210H230H215V215V220H205H195V225V230H240H285V240V250H270H255V255V260H245H235V265V270H200H165V265V260H155H145V255V250H140H135V245V240H130H125V235V230H120H115V225V220H110H105V215V210H100H95V225V240H100H105V250V260H110H115V265V270H105H95V265V260H90H85V265V270H90H95V280V290H100H105V295V300H110H115V305V310H120H125V315V320H135H145V325V330H165H185V335V340H180H175V360V380H160H145V385V390H140H135V395V400H115H95V370V340H90H85V365V390H80H75V385V380H70H65V365V350H60H55V345V340H50H45V345V350H50H55V365V380H50H45V375V370H40H35V365V360H30H25V355V350H15H5V355V360H10H15V365V370H20H25V375V380H30H35V385V390H40H45V395V400H55H65V405V410H75H85V415V420H100H115V415V410H135H155V405V400H180H205V405V410H225H245V415V420H240H235V430V440H240H245V435V430H250H255V425V420H260H265V415V410H285H305V405V400H315H325V395V390H330H335V380V370H340H345V345V320H355H365V350V380H370H375V385V390H380H385V395V400H400H415V405V410H440H465V405V400H460H455V395V390H450H445V385V380H440H435V375V370H430H425V365V360H420H415V350V340H410H405V330V320H400H395V305V290H390H385V270V250H380H375V240V230H370H365V205V180H360H355V170V160H345H335V155V150H305H275V155ZM415 170V190H405H395V195V200H410H425V210V220H430H435V210V200H450H465V195V190H455H445V180V170H450H455V165V160H445H435V165V170H430H425V160V150H420H415V170ZM315 165V170H320H325V165V160H320H315V165ZM485 165V170H490H495V165V160H490H485V165ZM535 165V170H540H545V165V160H540H535V165ZM245 175V180H230H215V185V190H260H305V195V200H310H315V205V210H280H245V215V220H280H315V215V210H325H335V205V200H340H345V195V190H340H335V195V200H325H315V195V190H310H305V185V180H300H295V175V170H270H245V175ZM515 175V180H520H525V175V170H520H515V175ZM305 250V260H295H285V265V270H270H255V275V280H250H245V285V290H235H225V295V300H220H215V305V310H210H205V320V330H200H195V350V370H200H205V375V380H210H215V385V390H220H225V395V400H235H245V390V380H240H235V370V360H230H225V350V340H230H235V345V350H240H245V360V370H255H265V375V380H275H285V385V390H280H275V395V400H280H285V395V390H290H295V385V380H290H285V370V360H290H295V365V370H300H305V365V360H310H315V355V350H310H305V345V340H295H285V345V350H280H275V340V330H280H285V325V320H290H295V310V300H300H305V295V290H310H315V280V270H320H325V255V240H315H305V250ZM265 360V370H270H275V360V350H270H265V360ZM295 355V360H300H305V355V350H300H295V355ZM55 385V390H60H65V385V380H60H55V385Z" fill="#040404"/>
<path fill-rule="evenodd" clip-rule="evenodd" d="M315 165V170H320H325V165V160H320H315V165ZM245 175V180H230H215V185V190H260H305V195V200H310H315V205V210H280H245V215V220H280H315V215V210H325H335V205V200H340H345V195V190H340H335V195V200H325H315V195V190H310H305V185V180H300H295V175V170H270H245V175ZM305 250V260H295H285V265V270H270H255V275V280H250H245V285V290H235H225V295V300H220H215V305V310H210H205V320V330H200H195V350V370H200H205V375V380H210H215V385V390H220H225V395V400H235H245V390V380H240H235V370V360H230H225V350V340H230H235V345V350H240H245V360V370H255H265V375V380H275H285V385V390H280H275V395V400H280H285V395V390H290H295V385V380H290H285V370V360H290H295V365V370H300H305V365V360H310H315V355V350H310H305V345V340H295H285V345V350H280H275V340V330H280H285V325V320H290H295V310V300H300H305V295V290H310H315V280V270H320H325V255V240H315H305V250ZM265 360V370H270H275V360V350H270H265V360ZM295 355V360H300H305V355V350H300H295V355ZM55 385V390H60H65V385V380H60H55V385Z" fill="#FCFCFC"/>
</svg>
