<svg width="236" height="200" viewBox="0 0 236 200" fill="none" xmlns="http://www.w3.org/2000/svg">
<g clip-path="url(#clip0_95_527)">
<path fill-rule="evenodd" clip-rule="evenodd" d="M74.1935 4.83871V9.67742H72.5806H70.9677V12.9032V16.129H69.3548H67.7419V19.3548V22.5806H66.129H64.5161V25.8064V29.0323H62.9032H61.2903V33.871V38.7097H59.6774H58.0645V41.9355V45.1613H56.4516H54.8387V48.3871V51.6129H53.2258H51.6129V53.2258V54.8387H50H48.3871V58.0645V61.2903H46.7742H45.1613V64.5161V67.7419H43.5484H41.9355V70.9677V74.1935H40.3226H38.7097V77.4193V80.6452H37.0968H35.4839V82.2581V83.871H33.871H32.2581V87.0968V90.3226H30.6452H29.0323V91.9355V93.5484H27.4194H25.8064V95.1613V96.7742H24.1935H22.5806V98.3871V100H20.9677H19.3548V101.613V103.226H17.7419H16.129V104.839V106.452H14.5161H12.9032V108.065V109.677H11.2903H9.67742V111.29V112.903H8.06452H6.45161V116.129V119.355H4.83871H3.22581V125.806V132.258H9.67742H16.129V133.871V135.484H12.9032H9.67742V137.097V138.71H8.06452H6.45161V140.323V141.935H4.83871H3.22581V143.548V145.161H1.6129H0V150V154.839H4.83871H9.67742V156.452V158.065H16.129H22.5806V159.677V161.29H25.8064H29.0323V162.903V164.516H33.871H38.7097V166.129V167.742H41.9355H45.1613V169.355V170.968H48.3871H51.6129V172.581V174.194H54.8387H58.0645V175.806V177.419H61.2903H64.5161V179.032V180.645H67.7419H70.9677V182.258V183.871H74.1935H77.4193V185.484V187.097H80.6452H83.871V188.71V190.323H88.7097H93.5484V191.935V193.548H96.7742H100V195.161V196.774H104.839H109.677V198.387V200H114.516H119.355V198.387V196.774H120.968H122.581V191.935V187.097H124.194H125.806V182.258V177.419H127.419H129.032V174.194V170.968H130.645H132.258V167.742V164.516H133.871H135.484V161.29V158.065H137.097H138.71V156.452V154.839H140.323H141.935V153.226V151.613H143.548H145.161V150V148.387H146.774H148.387V146.774V145.161H150H151.613V143.548V141.935H154.839H158.065V140.323V138.71H159.677H161.29V137.097V135.484H164.516H167.742V133.871V132.258H172.581H177.419V130.645V129.032H183.871H190.323V127.419V125.806H196.774H203.226V124.194V122.581H216.129H229.032V120.968V119.355H227.419H225.806V117.742V116.129H224.194H222.581V114.516V112.903H220.968H219.355V111.29V109.677H217.742H216.129V108.065V106.452H212.903H209.677V104.839V103.226H208.065H206.452V101.613V100H209.677H212.903V98.3871V96.7742H216.129H219.355V95.1613V93.5484H222.581H225.806V91.9355V90.3226H229.032H232.258V88.7097V87.0968H233.871H235.484V83.871V80.6452H232.258H229.032V79.0323V77.4193H227.419H225.806V75.8064V74.1935H222.581H219.355V72.5806V70.9677H217.742H216.129V69.3548V67.7419H217.742H219.355V66.129V64.5161H220.968H222.581V62.9032V61.2903H220.968H219.355V59.6774V58.0645H216.129H212.903V56.4516V54.8387H208.065H203.226V53.2258V51.6129H201.613H200V50V48.3871H196.774H193.548V45.1613V41.9355H195.161H196.774V40.3226V38.7097H193.548H190.323V37.0968V35.4839H185.484H180.645V33.871V32.2581H177.419H174.194V30.6452V29.0323H167.742H161.29V27.4194V25.8064H156.452H151.613V24.1935V22.5806H146.774H141.935V20.9677V19.3548H137.097H132.258V17.7419V16.129H127.419H122.581V14.5161V12.9032H116.129H109.677V11.2903V9.67742H104.839H100V8.06452V6.45161H95.1613H90.3226V4.83871V3.22581H87.0968H83.871V1.6129V0H79.0323H74.1935V4.83871ZM77.4193 6.45161V9.67742H75.8064H74.1935V12.9032V16.129H72.5806H70.9677V19.3548V22.5806H69.3548H67.7419V25.8064V29.0323H66.129H64.5161V33.871V38.7097H62.9032H61.2903V41.9355V45.1613H59.6774H58.0645V48.3871V51.6129H56.4516H54.8387V53.2258V54.8387H53.2258H51.6129V58.0645V61.2903H50H48.3871V64.5161V67.7419H46.7742H45.1613V70.9677V74.1935H43.5484H41.9355V77.4193V80.6452H40.3226H38.7097V82.2581V83.871H37.0968H35.4839V87.0968V90.3226H33.871H32.2581V91.9355V93.5484H30.6452H29.0323V95.1613V96.7742H27.4194H25.8064V98.3871V100H24.1935H22.5806V101.613V103.226H20.9677H19.3548V104.839V106.452H17.7419H16.129V108.065V109.677H14.5161H12.9032V111.29V112.903H11.2903H9.67742V116.129V119.355H8.06452H6.45161V124.194V129.032H11.2903H16.129V130.645V132.258H19.3548H22.5806V133.871V135.484H19.3548H16.129V137.097V138.71H12.9032H9.67742V140.323V141.935H8.06452H6.45161V143.548V145.161H4.83871H3.22581V148.387V151.613H6.45161H9.67742V153.226V154.839H16.129H22.5806V156.452V158.065H25.8064H29.0323V159.677V161.29H33.871H38.7097V162.903V164.516H41.9355H45.1613V166.129V167.742H48.3871H51.6129V169.355V170.968H54.8387H58.0645V172.581V174.194H61.2903H64.5161V175.806V177.419H67.7419H70.9677V179.032V180.645H74.1935H77.4193V182.258V183.871H80.6452H83.871V185.484V187.097H88.7097H93.5484V188.71V190.323H96.7742H100V191.935V193.548H106.452H112.903V190.323V187.097H114.516H116.129V191.935V196.774H117.742H119.355V191.935V187.097H120.968H122.581V182.258V177.419H124.194H125.806V174.194V170.968H127.419H129.032V167.742V164.516H130.645H132.258V161.29V158.065H133.871H135.484V156.452V154.839H137.097H138.71V153.226V151.613H140.323H141.935V150V148.387H143.548H145.161V146.774V145.161H146.774H148.387V143.548V141.935H150H151.613V140.323V138.71H154.839H158.065V137.097V135.484H159.677H161.29V133.871V132.258H164.516H167.742V130.645V129.032H172.581H177.419V127.419V125.806H183.871H190.323V124.194V122.581H196.774H203.226V120.968V119.355H212.903H222.581V117.742V116.129H220.968H219.355V114.516V112.903H217.742H216.129V111.29V109.677H212.903H209.677V108.065V106.452H208.065H206.452V104.839V103.226H203.226H200V101.613V100H203.226H206.452V98.3871V96.7742H209.677H212.903V95.1613V93.5484H216.129H219.355V91.9355V90.3226H222.581H225.806V88.7097V87.0968H229.032H232.258V85.4839V83.871H230.645H229.032V82.2581V80.6452H227.419H225.806V79.0323V77.4193H222.581H219.355V75.8064V74.1935H216.129H212.903V72.5806V70.9677H211.29H209.677V69.3548V67.7419H212.903H216.129V66.129V64.5161H217.742H219.355V62.9032V61.2903H216.129H212.903V59.6774V58.0645H208.065H203.226V56.4516V54.8387H201.613H200V53.2258V51.6129H196.774H193.548V50V48.3871H191.935H190.323V43.5484V38.7097H185.484H180.645V37.0968V35.4839H177.419H174.194V33.871V32.2581H167.742H161.29V30.6452V29.0323H156.452H151.613V27.4194V25.8064H146.774H141.935V24.1935V22.5806H137.097H132.258V20.9677V19.3548H127.419H122.581V17.7419V16.129H116.129H109.677V14.5161V12.9032H104.839H100V11.2903V9.67742H95.1613H90.3226V8.06452V6.45161H87.0968H83.871V4.83871V3.22581H80.6452H77.4193V6.45161ZM77.4193 33.871V35.4839H80.6452H83.871V33.871V32.2581H80.6452H77.4193V33.871ZM87.0968 37.0968V38.7097H88.7097H90.3226V37.0968V35.4839H88.7097H87.0968V37.0968ZM93.5484 40.3226V41.9355H96.7742H100V40.3226V38.7097H96.7742H93.5484V40.3226ZM70.9677 43.5484V45.1613H74.1935H77.4193V43.5484V41.9355H74.1935H70.9677V43.5484ZM106.452 43.5484V45.1613H109.677H112.903V43.5484V41.9355H109.677H106.452V43.5484ZM119.355 46.7742V48.3871H124.194H129.032V46.7742V45.1613H124.194H119.355V46.7742ZM80.6452 50V51.6129H85.4839H90.3226V53.2258V54.8387H91.9355H93.5484V53.2258V51.6129H91.9355H90.3226V50V48.3871H85.4839H80.6452V50ZM187.097 51.6129V54.8387H185.484H183.871V58.0645V61.2903H182.258H180.645V62.9032V64.5161H179.032H177.419V67.7419V70.9677H175.806H174.194V74.1935V77.4193H172.581H170.968V79.0323V80.6452H169.355H167.742V82.2581V83.871H166.129H164.516V85.4839V87.0968H162.903H161.29V90.3226V93.5484H159.677H158.065V96.7742V100H156.452H154.839V101.613V103.226H153.226H151.613V104.839V106.452H150H148.387V108.065V109.677H146.774H145.161V111.29V112.903H143.548H141.935V114.516V116.129H140.323H138.71V117.742V119.355H137.097H135.484V120.968V122.581H133.871H132.258V125.806V129.032H130.645H129.032V130.645V132.258H127.419H125.806V133.871V135.484H124.194H122.581V138.71V141.935H120.968H119.355V143.548V145.161H117.742H116.129V148.387V151.613H114.516H112.903V153.226V154.839H111.29H109.677V158.065V161.29H108.065H106.452V162.903V164.516H103.226H100V162.903V161.29H96.7742H93.5484V159.677V158.065H88.7097H83.871V156.452V154.839H80.6452H77.4193V153.226V151.613H72.5806H67.7419V150V148.387H62.9032H58.0645V146.774V145.161H54.8387H51.6129V143.548V141.935H46.7742H41.9355V140.323V138.71H37.0968H32.2581V137.097V135.484H27.4194H22.5806V137.097V138.71H27.4194H32.2581V140.323V141.935H37.0968H41.9355V143.548V145.161H46.7742H51.6129V146.774V148.387H54.8387H58.0645V150V151.613H62.9032H67.7419V153.226V154.839H72.5806H77.4193V156.452V158.065H80.6452H83.871V159.677V161.29H88.7097H93.5484V162.903V164.516H96.7742H100V166.129V167.742H103.226H106.452V169.355V170.968H108.065H109.677V169.355V167.742H111.29H112.903V164.516V161.29H114.516H116.129V158.065V154.839H117.742H119.355V153.226V151.613H120.968H122.581V150V148.387H124.194H125.806V146.774V145.161H127.419H129.032V143.548V141.935H130.645H132.258V140.323V138.71H133.871H135.484V137.097V135.484H137.097H138.71V133.871V132.258H140.323H141.935V130.645V129.032H143.548H145.161V127.419V125.806H146.774H148.387V124.194V122.581H150H151.613V120.968V119.355H153.226H154.839V117.742V116.129H156.452H158.065V114.516V112.903H159.677H161.29V111.29V109.677H162.903H164.516V108.065V106.452H166.129H167.742V104.839V103.226H169.355H170.968V101.613V100H172.581H174.194V98.3871V96.7742H175.806H177.419V95.1613V93.5484H180.645H183.871V91.9355V90.3226H185.484H187.097V88.7097V87.0968H188.71H190.323V85.4839V83.871H193.548H196.774V82.2581V80.6452H200H203.226V79.0323V77.4193H204.839H206.452V75.8064V74.1935H208.065H209.677V72.5806V70.9677H208.065H206.452V72.5806V74.1935H204.839H203.226V75.8064V77.4193H200H196.774V79.0323V80.6452H193.548H190.323V82.2581V83.871H188.71H187.097V85.4839V87.0968H185.484H183.871V88.7097V90.3226H180.645H177.419V91.9355V93.5484H175.806H174.194V95.1613V96.7742H172.581H170.968V98.3871V100H169.355H167.742V101.613V103.226H166.129H164.516V104.839V106.452H162.903H161.29V108.065V109.677H159.677H158.065V111.29V112.903H156.452H154.839V114.516V116.129H153.226H151.613V117.742V119.355H150H148.387V120.968V122.581H146.774H145.161V124.194V125.806H143.548H141.935V127.419V129.032H140.323H138.71V130.645V132.258H137.097H135.484V133.871V135.484H133.871H132.258V137.097V138.71H130.645H129.032V140.323V141.935H127.419H125.806V138.71V135.484H127.419H129.032V133.871V132.258H130.645H132.258V130.645V129.032H133.871H135.484V125.806V122.581H137.097H138.71V120.968V119.355H140.323H141.935V117.742V116.129H143.548H145.161V114.516V112.903H146.774H148.387V111.29V109.677H150H151.613V108.065V106.452H153.226H154.839V104.839V103.226H156.452H158.065V101.613V100H159.677H161.29V96.7742V93.5484H162.903H164.516V90.3226V87.0968H166.129H167.742V85.4839V83.871H169.355H170.968V82.2581V80.6452H172.581H174.194V79.0323V77.4193H175.806H177.419V74.1935V70.9677H179.032H180.645V67.7419V64.5161H182.258H183.871V62.9032V61.2903H185.484H187.097V58.0645V54.8387H188.71H190.323V51.6129V48.3871H188.71H187.097V51.6129ZM132.258 53.2258V54.8387H137.097H141.935V53.2258V51.6129H137.097H132.258V53.2258ZM96.7742 56.4516V58.0645H101.613H106.452V56.4516V54.8387H101.613H96.7742V56.4516ZM145.161 56.4516V58.0645H150H154.839V56.4516V54.8387H150H145.161V56.4516ZM109.677 59.6774V61.2903H114.516H119.355V59.6774V58.0645H114.516H109.677V59.6774ZM158.065 59.6774V61.2903H162.903H167.742V59.6774V58.0645H162.903H158.065V59.6774ZM122.581 66.129V67.7419H127.419H132.258V66.129V64.5161H127.419H122.581V66.129ZM135.484 69.3548V70.9677H140.323H145.161V69.3548V67.7419H140.323H135.484V69.3548ZM151.613 72.5806V74.1935H154.839H158.065V72.5806V70.9677H154.839H151.613V72.5806ZM193.548 104.839V106.452H190.323H187.097V108.065V109.677H183.871H180.645V111.29V112.903H177.419H174.194V114.516V116.129H170.968H167.742V117.742V119.355H166.129H164.516V120.968V122.581H162.903H161.29V124.194V125.806H158.065H154.839V127.419V129.032H153.226H151.613V130.645V132.258H150H148.387V133.871V135.484H146.774H145.161V137.097V138.71H143.548H141.935V140.323V141.935H140.323H138.71V143.548V145.161H137.097H135.484V146.774V148.387H133.871H132.258V151.613V154.839H130.645H129.032V156.452V158.065H127.419H125.806V159.677V161.29H124.194H122.581V164.516V167.742H120.968H119.355V170.968V174.194H117.742H116.129V180.645V187.097H117.742H119.355V180.645V174.194H120.968H122.581V170.968V167.742H124.194H125.806V164.516V161.29H127.419H129.032V159.677V158.065H130.645H132.258V156.452V154.839H133.871H135.484V151.613V148.387H137.097H138.71V146.774V145.161H140.323H141.935V143.548V141.935H143.548H145.161V140.323V138.71H146.774H148.387V137.097V135.484H150H151.613V133.871V132.258H153.226H154.839V130.645V129.032H158.065H161.29V127.419V125.806H162.903H164.516V124.194V122.581H166.129H167.742V120.968V119.355H170.968H174.194V117.742V116.129H177.419H180.645V114.516V112.903H183.871H187.097V111.29V109.677H190.323H193.548V108.065V106.452H196.774H200V104.839V103.226H196.774H193.548V104.839ZM32.2581 111.29V112.903H30.6452H29.0323V114.516V116.129H30.6452H32.2581V114.516V112.903H33.871H35.4839V114.516V116.129H37.0968H38.7097V114.516V112.903H37.0968H35.4839V111.29V109.677H33.871H32.2581V111.29ZM41.9355 117.742V119.355H46.7742H51.6129V117.742V116.129H46.7742H41.9355V117.742ZM58.0645 120.968V122.581H56.4516H54.8387V124.194V125.806H56.4516H58.0645V124.194V122.581H59.6774H61.2903V124.194V125.806H62.9032H64.5161V124.194V122.581H62.9032H61.2903V120.968V119.355H59.6774H58.0645V120.968ZM122.581 143.548V145.161H120.968H119.355V146.774V148.387H120.968H122.581V146.774V145.161H124.194H125.806V143.548V141.935H124.194H122.581V143.548Z" fill="#040404"/>
<path fill-rule="evenodd" clip-rule="evenodd" d="M77.4194 6.45164V9.67744H75.8065H74.1936V12.9032V16.1291H72.5807H70.9678V19.3549V22.5807H69.3549H67.742V25.8065V29.0323H66.1291H64.5162V33.871V38.7097H62.9033H61.2903V41.9355V45.1613H59.6774H58.0645V48.3871V51.6129H56.4516H54.8387V53.2258V54.8387H53.2258H51.6129V58.0645V61.2903H50H48.3871V64.5162V67.742H46.7742H45.1613V70.9678V74.1936H43.5484H41.9355V77.4194V80.6452H40.3226H38.7097V82.2581V83.871H37.0968H35.4839V87.0968V90.3226H33.871H32.2581V91.9355V93.5484H30.6452H29.0323V95.1613V96.7742H27.4194H25.8065V98.3871V100H24.1936H22.5807V101.613V103.226H20.9678H19.3549V104.839V106.452H17.742H16.1291V108.065V109.677H14.5162H12.9032V111.29V112.903H11.2903H9.67744V116.129V119.355H8.06454H6.45164V124.194V129.032H11.2903H16.1291V130.645V132.258H19.3549H22.5807V133.871V135.484H19.3549H16.1291V137.097V138.71H12.9032H9.67744V140.323V141.936H8.06454H6.45164V143.548V145.161H4.83873H3.22583V148.387V151.613H6.45164H9.67744V153.226V154.839H16.1291H22.5807V156.452V158.065H25.8065H29.0323V159.677V161.29H33.871H38.7097V162.903V164.516H41.9355H45.1613V166.129V167.742H48.3871H51.6129V169.355V170.968H54.8387H58.0645V172.581V174.194H61.2903H64.5162V175.806V177.419H67.742H70.9678V179.032V180.645H74.1936H77.4194V182.258V183.871H80.6452H83.871V185.484V187.097H88.7097H93.5484V188.71V190.323H96.7742H100V191.936V193.548H106.452H112.903V190.323V187.097H114.516H116.129V191.936V196.774H117.742H119.355V191.936V187.097H120.968H122.581V182.258V177.419H124.194H125.806V174.194V170.968H127.419H129.032V167.742V164.516H130.645H132.258V161.29V158.065H133.871H135.484V156.452V154.839H137.097H138.71V153.226V151.613H140.323H141.936V150V148.387H143.548H145.161V146.774V145.161H146.774H148.387V143.548V141.936H150H151.613V140.323V138.71H154.839H158.065V137.097V135.484H159.677H161.29V133.871V132.258H164.516H167.742V130.645V129.032H172.581H177.419V127.419V125.806H183.871H190.323V124.194V122.581H196.774H203.226V120.968V119.355H212.903H222.581V117.742V116.129H220.968H219.355V114.516V112.903H217.742H216.129V111.29V109.677H212.903H209.677V108.065V106.452H208.065H206.452V104.839V103.226H203.226H200V101.613V100H203.226H206.452V98.3871V96.7742H209.677H212.903V95.1613V93.5484H216.129H219.355V91.9355V90.3226H222.581H225.806V88.7097V87.0968H229.032H232.258V85.4839V83.871H230.645H229.032V82.2581V80.6452H227.419H225.806V79.0323V77.4194H222.581H219.355V75.8065V74.1936H216.129H212.903V72.5807V70.9678H211.29H209.677V69.3549V67.742H212.903H216.129V66.1291V64.5162H217.742H219.355V62.9033V61.2903H216.129H212.903V59.6774V58.0645H208.065H203.226V56.4516V54.8387H201.613H200V53.2258V51.6129H196.774H193.548V50V48.3871H191.936H190.323V43.5484V38.7097H185.484H180.645V37.0968V35.4839H177.419H174.194V33.871V32.2581H167.742H161.29V30.6452V29.0323H156.452H151.613V27.4194V25.8065H146.774H141.936V24.1936V22.5807H137.097H132.258V20.9678V19.3549H127.419H122.581V17.742V16.1291H116.129H109.677V14.5162V12.9032H104.839H100V11.2903V9.67744H95.1613H90.3226V8.06454V6.45164H87.0968H83.871V4.83873V3.22583H80.6452H77.4194V6.45164ZM77.4194 33.871V35.4839H80.6452H83.871V33.871V32.2581H80.6452H77.4194V33.871ZM87.0968 37.0968V38.7097H88.7097H90.3226V37.0968V35.4839H88.7097H87.0968V37.0968ZM93.5484 40.3226V41.9355H96.7742H100V40.3226V38.7097H96.7742H93.5484V40.3226ZM70.9678 43.5484V45.1613H74.1936H77.4194V43.5484V41.9355H74.1936H70.9678V43.5484ZM106.452 43.5484V45.1613H109.677H112.903V43.5484V41.9355H109.677H106.452V43.5484ZM119.355 46.7742V48.3871H124.194H129.032V46.7742V45.1613H124.194H119.355V46.7742ZM80.6452 50V51.6129H85.4839H90.3226V53.2258V54.8387H91.9355H93.5484V53.2258V51.6129H91.9355H90.3226V50V48.3871H85.4839H80.6452V50ZM187.097 51.6129V54.8387H185.484H183.871V58.0645V61.2903H182.258H180.645V62.9033V64.5162H179.032H177.419V67.742V70.9678H175.806H174.194V74.1936V77.4194H172.581H170.968V79.0323V80.6452H169.355H167.742V82.2581V83.871H166.129H164.516V85.4839V87.0968H162.903H161.29V90.3226V93.5484H159.677H158.065V96.7742V100H156.452H154.839V101.613V103.226H153.226H151.613V104.839V106.452H150H148.387V108.065V109.677H146.774H145.161V111.29V112.903H143.548H141.936V114.516V116.129H140.323H138.71V117.742V119.355H137.097H135.484V120.968V122.581H133.871H132.258V125.806V129.032H130.645H129.032V130.645V132.258H127.419H125.806V133.871V135.484H124.194H122.581V138.71V141.936H120.968H119.355V143.548V145.161H117.742H116.129V148.387V151.613H114.516H112.903V153.226V154.839H111.29H109.677V158.065V161.29H108.065H106.452V162.903V164.516H103.226H100V162.903V161.29H96.7742H93.5484V159.677V158.065H88.7097H83.871V156.452V154.839H80.6452H77.4194V153.226V151.613H72.5807H67.742V150V148.387H62.9033H58.0645V146.774V145.161H54.8387H51.6129V143.548V141.936H46.7742H41.9355V140.323V138.71H37.0968H32.2581V137.097V135.484H27.4194H22.5807V137.097V138.71H27.4194H32.2581V140.323V141.936H37.0968H41.9355V143.548V145.161H46.7742H51.6129V146.774V148.387H54.8387H58.0645V150V151.613H62.9033H67.742V153.226V154.839H72.5807H77.4194V156.452V158.065H80.6452H83.871V159.677V161.29H88.7097H93.5484V162.903V164.516H96.7742H100V166.129V167.742H103.226H106.452V169.355V170.968H108.065H109.677V169.355V167.742H111.29H112.903V164.516V161.29H114.516H116.129V158.065V154.839H117.742H119.355V153.226V151.613H120.968H122.581V150V148.387H124.194H125.806V146.774V145.161H127.419H129.032V143.548V141.936H130.645H132.258V140.323V138.71H133.871H135.484V137.097V135.484H137.097H138.71V133.871V132.258H140.323H141.936V130.645V129.032H143.548H145.161V127.419V125.806H146.774H148.387V124.194V122.581H150H151.613V120.968V119.355H153.226H154.839V117.742V116.129H156.452H158.065V114.516V112.903H159.677H161.29V111.29V109.677H162.903H164.516V108.065V106.452H166.129H167.742V104.839V103.226H169.355H170.968V101.613V100H172.581H174.194V98.3871V96.7742H175.806H177.419V95.1613V93.5484H180.645H183.871V91.9355V90.3226H185.484H187.097V88.7097V87.0968H188.71H190.323V85.4839V83.871H193.548H196.774V82.2581V80.6452H200H203.226V79.0323V77.4194H204.839H206.452V75.8065V74.1936H208.065H209.677V72.5807V70.9678H208.065H206.452V72.5807V74.1936H204.839H203.226V75.8065V77.4194H200H196.774V79.0323V80.6452H193.548H190.323V82.2581V83.871H188.71H187.097V85.4839V87.0968H185.484H183.871V88.7097V90.3226H180.645H177.419V91.9355V93.5484H175.806H174.194V95.1613V96.7742H172.581H170.968V98.3871V100H169.355H167.742V101.613V103.226H166.129H164.516V104.839V106.452H162.903H161.29V108.065V109.677H159.677H158.065V111.29V112.903H156.452H154.839V114.516V116.129H153.226H151.613V117.742V119.355H150H148.387V120.968V122.581H146.774H145.161V124.194V125.806H143.548H141.936V127.419V129.032H140.323H138.71V130.645V132.258H137.097H135.484V133.871V135.484H133.871H132.258V137.097V138.71H130.645H129.032V140.323V141.936H127.419H125.806V138.71V135.484H127.419H129.032V133.871V132.258H130.645H132.258V130.645V129.032H133.871H135.484V125.806V122.581H137.097H138.71V120.968V119.355H140.323H141.936V117.742V116.129H143.548H145.161V114.516V112.903H146.774H148.387V111.29V109.677H150H151.613V108.065V106.452H153.226H154.839V104.839V103.226H156.452H158.065V101.613V100H159.677H161.29V96.7742V93.5484H162.903H164.516V90.3226V87.0968H166.129H167.742V85.4839V83.871H169.355H170.968V82.2581V80.6452H172.581H174.194V79.0323V77.4194H175.806H177.419V74.1936V70.9678H179.032H180.645V67.742V64.5162H182.258H183.871V62.9033V61.2903H185.484H187.097V58.0645V54.8387H188.71H190.323V51.6129V48.3871H188.71H187.097V51.6129ZM132.258 53.2258V54.8387H137.097H141.936V53.2258V51.6129H137.097H132.258V53.2258ZM96.7742 56.4516V58.0645H101.613H106.452V56.4516V54.8387H101.613H96.7742V56.4516ZM145.161 56.4516V58.0645H150H154.839V56.4516V54.8387H150H145.161V56.4516ZM109.677 59.6774V61.2903H114.516H119.355V59.6774V58.0645H114.516H109.677V59.6774ZM158.065 59.6774V61.2903H162.903H167.742V59.6774V58.0645H162.903H158.065V59.6774ZM122.581 66.1291V67.742H127.419H132.258V66.1291V64.5162H127.419H122.581V66.1291ZM135.484 69.3549V70.9678H140.323H145.161V69.3549V67.742H140.323H135.484V69.3549ZM151.613 72.5807V74.1936H154.839H158.065V72.5807V70.9678H154.839H151.613V72.5807ZM193.548 104.839V106.452H190.323H187.097V108.065V109.677H183.871H180.645V111.29V112.903H177.419H174.194V114.516V116.129H170.968H167.742V117.742V119.355H166.129H164.516V120.968V122.581H162.903H161.29V124.194V125.806H158.065H154.839V127.419V129.032H153.226H151.613V130.645V132.258H150H148.387V133.871V135.484H146.774H145.161V137.097V138.71H143.548H141.936V140.323V141.936H140.323H138.71V143.548V145.161H137.097H135.484V146.774V148.387H133.871H132.258V151.613V154.839H130.645H129.032V156.452V158.065H127.419H125.806V159.677V161.29H124.194H122.581V164.516V167.742H120.968H119.355V170.968V174.194H117.742H116.129V180.645V187.097H117.742H119.355V180.645V174.194H120.968H122.581V170.968V167.742H124.194H125.806V164.516V161.29H127.419H129.032V159.677V158.065H130.645H132.258V156.452V154.839H133.871H135.484V151.613V148.387H137.097H138.71V146.774V145.161H140.323H141.936V143.548V141.936H143.548H145.161V140.323V138.71H146.774H148.387V137.097V135.484H150H151.613V133.871V132.258H153.226H154.839V130.645V129.032H158.065H161.29V127.419V125.806H162.903H164.516V124.194V122.581H166.129H167.742V120.968V119.355H170.968H174.194V117.742V116.129H177.419H180.645V114.516V112.903H183.871H187.097V111.29V109.677H190.323H193.548V108.065V106.452H196.774H200V104.839V103.226H196.774H193.548V104.839ZM32.2581 111.29V112.903H30.6452H29.0323V114.516V116.129H30.6452H32.2581V114.516V112.903H33.871H35.4839V114.516V116.129H37.0968H38.7097V114.516V112.903H37.0968H35.4839V111.29V109.677H33.871H32.2581V111.29ZM41.9355 117.742V119.355H46.7742H51.6129V117.742V116.129H46.7742H41.9355V117.742ZM58.0645 120.968V122.581H56.4516H54.8387V124.194V125.806H56.4516H58.0645V124.194V122.581H59.6774H61.2903V124.194V125.806H62.9033H64.5162V124.194V122.581H62.9033H61.2903V120.968V119.355H59.6774H58.0645V120.968ZM122.581 143.548V145.161H120.968H119.355V146.774V148.387H120.968H122.581V146.774V145.161H124.194H125.806V143.548V141.936H124.194H122.581V143.548Z" fill="#FCFCFC"/>
</g>
<defs>
<clipPath id="clip0_95_527">
<rect width="235.484" height="200" fill="white"/>
</clipPath>
</defs>
</svg>
