<svg width="213" height="200" viewBox="0 0 213 200" fill="none" xmlns="http://www.w3.org/2000/svg">
<g clip-path="url(#clip0_101_472)">
<path fill-rule="evenodd" clip-rule="evenodd" d="M185.542 1.20482V2.40964H175.904H166.265V3.61446V4.81928H156.626H146.988V6.0241V7.22892H139.759H132.53V8.43373V9.63855H122.892H113.253V10.8434V12.0482H103.614H93.9759V13.253V14.4578H87.9518H81.9277V19.2771V24.0964H83.1325H84.3373V31.3253V38.5542H83.1325H81.9277V39.759V40.9639H79.5181H77.1084V42.1687V43.3735H74.6988H72.2892V44.5783V45.7831H69.8795H67.4699V46.988V48.1928H65.0602H62.6506V49.3976V50.6024H60.241H57.8313V51.8072V53.0121H55.4217H53.012V54.2169V55.4217H50.6024H48.1928V56.6265V57.8313H45.7831H43.3735V59.0361V60.241H40.9639H38.5542V61.4458V62.6506H36.1446H33.7349V63.8554V65.0602H31.3253H28.9157V66.2651V67.4699H26.506H24.0964V68.6747V69.8795H21.6867H19.2771V71.0843V72.2892H16.8675H14.4578V73.494V74.6988H12.0482H9.63855V75.9036V77.1084H7.22892H4.81928V78.3133V79.5181H2.40964H0V81.9277V84.3373H1.20482H2.40964V86.747V89.1566H3.61446H4.81928V91.5663V93.9759H6.0241H7.22892V96.3855V98.7952H8.43373H9.63855V101.205V103.614H10.8434H12.0482V106.024V108.434H13.253H14.4578V110.843V113.253H15.6627H16.8675V115.663V118.072H18.0723H19.2771V120.482V122.892H20.4819H21.6867V125.301V127.711H22.8916H24.0964V130.12V132.53H25.3012H26.506V134.94V137.349H27.7108H28.9157V139.759V142.169H30.1205H31.3253V144.578V146.988H32.5301H33.7349V149.398V151.807H34.9398H36.1446V154.217V156.627H37.3494H38.5542V159.036V161.446H39.759H40.9639V163.855V166.265H42.1687H43.3735V168.675V171.084H44.5783H45.7831V173.494V175.904H46.9879H48.1928V178.313V180.723H49.3976H50.6024V183.133V185.542H51.8072H53.012V187.952V190.361H54.2169H55.4217V192.771V195.181H56.6265H57.8313V197.59V200H60.241H62.6506V198.795V197.59H65.0602H67.4699V196.386V195.181H69.8795H72.2892V193.976V192.771H74.6988H77.1084V191.566V190.361H79.5181H81.9277V189.157V187.952H84.3373H86.747V186.747V185.542H89.1566H91.5663V184.337V183.133H93.9759H96.3855V181.928V180.723H98.7952H101.205V179.518V178.313H103.614H106.024V177.108V175.904H108.434H110.843V174.699V173.494H113.253H115.663V172.289V171.084H118.072H120.482V169.88V168.675H122.892H125.301V167.47V166.265H127.711H130.12V165.06V163.855H132.53H134.94V162.651V161.446H137.349H139.759V160.241V159.036H142.169H144.578V157.831V156.627H146.988H149.398V155.422V154.217H151.807H154.217V153.012V151.807H155.422H156.626V149.398V146.988H155.422H154.217V145.783V144.578H159.036H163.855V143.374V142.169H173.494H183.133V140.964V139.759H192.771H202.41V138.554V137.349H207.229H212.048V131.325V125.301H210.843H209.639V115.663V106.024H208.434H207.229V96.3855V86.747H206.024H204.819V77.1084V67.4699H203.614H202.41V57.8313V48.1928H201.205H200V38.5542V28.9157H198.795H197.59V19.2771V9.63855H196.386H195.181V4.81928V0H190.361H185.542V1.20482ZM185.542 3.61446V4.81928H175.904H166.265V6.0241V7.22892H156.626H146.988V8.43373V9.63855H139.759H132.53V10.8434V12.0482H122.892H113.253V13.253V14.4578H103.614H93.9759V15.6627V16.8675H89.1566H84.3373V20.4819V24.0964H85.5422H86.747V33.7349V43.3735H85.5422H84.3373V42.1687V40.9639H83.1325H81.9277V42.1687V43.3735H79.5181H77.1084V44.5783V45.7831H74.6988H72.2892V46.988V48.1928H69.8795H67.4699V49.3976V50.6024H65.0602H62.6506V51.8072V53.0121H60.241H57.8313V54.2169V55.4217H55.4217H53.012V56.6265V57.8313H50.6024H48.1928V59.0361V60.241H45.7831H43.3735V61.4458V62.6506H40.9639H38.5542V63.8554V65.0602H36.1446H33.7349V66.2651V67.4699H31.3253H28.9157V68.6747V69.8795H26.506H24.0964V71.0843V72.2892H21.6867H19.2771V73.494V74.6988H16.8675H14.4578V75.9036V77.1084H12.0482H9.63855V78.3133V79.5181H7.22892H4.81928V80.7229V81.9277H3.61446H2.40964V83.1325V84.3373H3.61446H4.81928V86.747V89.1566H6.0241H7.22892V91.5663V93.9759H8.43373H9.63855V96.3855V98.7952H10.8434H12.0482V101.205V103.614H13.253H14.4578V106.024V108.434H15.6627H16.8675V110.843V113.253H18.0723H19.2771V115.663V118.072H20.4819H21.6867V120.482V122.892H22.8916H24.0964V125.301V127.711H25.3012H26.506V130.12V132.53H27.7108H28.9157V134.94V137.349H30.1205H31.3253V139.759V142.169H32.5301H33.7349V144.578V146.988H34.9398H36.1446V149.398V151.807H37.3494H38.5542V154.217V156.627H39.759H40.9639V159.036V161.446H42.1687H43.3735V163.855V166.265H44.5783H45.7831V168.675V171.084H46.9879H48.1928V173.494V175.904H49.3976H50.6024V178.313V180.723H51.8072H53.012V183.133V185.542H54.2169H55.4217V187.952V190.361H56.6265H57.8313V192.771V195.181H59.0361H60.241V191.566V187.952H61.4458H62.6506V191.566V195.181H65.0602H67.4699V193.976V192.771H69.8795H72.2892V191.566V190.361H74.6988H77.1084V189.157V187.952H79.5181H81.9277V186.747V185.542H84.3373H86.747V184.337V183.133H89.1566H91.5663V181.928V180.723H93.9759H96.3855V179.518V178.313H98.7952H101.205V177.108V175.904H103.614H106.024V174.699V173.494H108.434H110.843V172.289V171.084H113.253H115.663V169.88V168.675H118.072H120.482V167.47V166.265H122.892H125.301V165.06V163.855H127.711H130.12V162.651V161.446H132.53H134.94V160.241V159.036H137.349H139.759V157.831V156.627H142.169H144.578V155.422V154.217H146.988H149.398V153.012V151.807H151.807H154.217V149.398V146.988H153.012H151.807V145.783V144.578H150.602H149.398V143.374V142.169H156.626H163.855V140.964V139.759H173.494H183.133V138.554V137.349H192.771H202.41V136.145V134.94H206.024H209.639V130.12V125.301H208.434H207.229V115.663V106.024H206.024H204.819V96.3855V86.747H203.614H202.41V77.1084V67.4699H201.205H200V57.8313V48.1928H198.795H197.59V38.5542V28.9157H196.386H195.181V19.2771V9.63855H193.976H192.771V6.0241V2.40964H189.157H185.542V3.61446ZM142.169 27.7108V28.9157H133.735H125.301V30.1205V31.3253H116.867H108.434V32.5301V33.7349H102.41H96.3855V34.9398V36.1446H102.41H108.434V34.9398V33.7349H116.867H125.301V32.5301V31.3253H133.735H142.169V30.1205V28.9157H145.783H149.398V27.7108V26.506H145.783H142.169V27.7108ZM142.169 34.9398V36.1446H133.735H125.301V37.3494V38.5542H116.867H108.434V39.759V40.9639H102.41H96.3855V42.1687V43.3735H102.41H108.434V42.1687V40.9639H116.867H125.301V39.759V38.5542H133.735H142.169V37.3494V36.1446H145.783H149.398V34.9398V33.7349H145.783H142.169V34.9398ZM86.747 51.8072V60.241H85.5422H84.3373V61.4458V62.6506H81.9277H79.5181V63.8554V65.0602H77.1084H74.6988V66.2651V67.4699H72.2892H69.8795V68.6747V69.8795H67.4699H65.0602V71.0843V72.2892H62.6506H60.241V73.494V74.6988H57.8313H55.4217V75.9036V77.1084H53.012H50.6024V78.3133V79.5181H48.1928H45.7831V80.7229V81.9277H43.3735H40.9639V83.1325V84.3373H38.5542H36.1446V85.5422V86.747H33.7349H31.3253V87.9518V89.1566H28.9157H26.506V90.3615V91.5663H24.0964H21.6867V90.3615V89.1566H19.2771H16.8675V87.9518V86.747H14.4578H12.0482V85.5422V84.3373H9.63855H7.22892V83.1325V81.9277H6.0241H4.81928V83.1325V84.3373H6.0241H7.22892V85.5422V86.747H9.63855H12.0482V87.9518V89.1566H14.4578H16.8675V90.3615V91.5663H19.2771H21.6867V92.7711V93.9759H24.0964H26.506V92.7711V91.5663H28.9157H31.3253V90.3615V89.1566H33.7349H36.1446V87.9518V86.747H38.5542H40.9639V85.5422V84.3373H43.3735H45.7831V83.1325V81.9277H48.1928H50.6024V80.7229V79.5181H53.012H55.4217V78.3133V77.1084H57.8313H60.241V75.9036V74.6988H62.6506H65.0602V73.494V72.2892H67.4699H69.8795V71.0843V69.8795H72.2892H74.6988V68.6747V67.4699H77.1084H79.5181V72.2892V77.1084H80.7229H81.9277V72.2892V67.4699H80.7229H79.5181V66.2651V65.0602H81.9277H84.3373V72.2892V79.5181H83.1325H81.9277V84.3373V89.1566H83.1325H84.3373V84.3373V79.5181H85.5422H86.747V72.2892V65.0602H87.9518H89.1566V73.494V81.9277H87.9518H86.747V90.3615V98.7952H87.9518H89.1566V90.3615V81.9277H90.3614H91.5663V91.5663V101.205H90.3614H89.1566V107.229V113.253H90.3614H91.5663V107.229V101.205H92.7711H93.9759V110.843V120.482H95.1807H96.3855V130.12V139.759H95.1807H93.9759V138.554V137.349H92.7711H91.5663V138.554V139.759H92.7711H93.9759V140.964V142.169H95.1807H96.3855V140.964V139.759H97.5904H98.7952V143.374V146.988H97.5904H96.3855V148.193V149.398H97.5904H98.7952V150.602V151.807H104.819H110.843V150.602V149.398H120.482H130.12V148.193V146.988H134.94H139.759V148.193V149.398H140.964H142.169V148.193V146.988H145.783H149.398V145.783V144.578H139.759H130.12V145.783V146.988H120.482H110.843V148.193V149.398H106.024H101.205V144.578V139.759H100H98.7952V130.12V120.482H97.5904H96.3855V110.843V101.205H95.1807H93.9759V91.5663V81.9277H92.7711H91.5663V72.2892V62.6506H90.3614H89.1566V53.0121V43.3735H87.9518H86.747V51.8072ZM166.265 54.2169V55.4217H159.036H151.807V56.6265V57.8313H144.578H137.349V59.0361V60.241H130.12H122.892V61.4458V62.6506H118.072H113.253V63.8554V65.0602H118.072H122.892V63.8554V62.6506H130.12H137.349V61.4458V60.241H144.578H151.807V59.0361V57.8313H159.036H166.265V56.6265V55.4217H171.084H175.904V54.2169V53.0121H171.084H166.265V54.2169ZM166.265 61.4458V62.6506H159.036H151.807V63.8554V65.0602H144.578H137.349V66.2651V67.4699H130.12H122.892V68.6747V69.8795H118.072H113.253V71.0843V72.2892H118.072H122.892V71.0843V69.8795H130.12H137.349V68.6747V67.4699H144.578H151.807V66.2651V65.0602H159.036H166.265V63.8554V62.6506H171.084H175.904V61.4458V60.241H171.084H166.265V61.4458ZM84.3373 63.8554V65.0602H85.5422H86.747V63.8554V62.6506H85.5422H84.3373V63.8554ZM168.675 68.6747V69.8795H161.446H154.217V71.0843V72.2892H146.988H139.759V73.494V74.6988H132.53H125.301V75.9036V77.1084H120.482H115.663V78.3133V79.5181H120.482H125.301V78.3133V77.1084H132.53H139.759V75.9036V74.6988H146.988H154.217V73.494V72.2892H161.446H168.675V71.0843V69.8795H173.494H178.313V68.6747V67.4699H173.494H168.675V68.6747ZM168.675 75.9036V77.1084H161.446H154.217V78.3133V79.5181H146.988H139.759V80.7229V81.9277H132.53H125.301V83.1325V84.3373H120.482H115.663V85.5422V86.747H120.482H125.301V85.5422V84.3373H132.53H139.759V83.1325V81.9277H146.988H154.217V80.7229V79.5181H161.446H168.675V78.3133V77.1084H173.494H178.313V75.9036V74.6988H173.494H168.675V75.9036ZM62.6506 80.7229V81.9277H63.8554H65.0602V83.1325V84.3373H66.2651H67.4699V83.1325V81.9277H66.2651H65.0602V80.7229V79.5181H63.8554H62.6506V80.7229ZM67.4699 90.3615V91.5663H68.6747H69.8795V92.7711V93.9759H71.0843H72.2892V92.7711V91.5663H71.0843H69.8795V90.3615V89.1566H68.6747H67.4699V90.3615ZM72.2892 100V101.205H73.494H74.6988V102.41V103.614H75.9036H77.1084V102.41V101.205H75.9036H74.6988V100V98.7952H73.494H72.2892V100ZM171.084 100V101.205H161.446H151.807V102.41V103.614H149.398H146.988V104.819V106.024H149.398H151.807V104.819V103.614H161.446H171.084V102.41V101.205H177.108H183.133V100V98.7952H177.108H171.084V100ZM173.494 104.819V106.024H163.855H154.217V107.229V108.434H151.807H149.398V109.639V110.843H151.807H154.217V109.639V108.434H163.855H173.494V107.229V106.024H179.518H185.542V104.819V103.614H179.518H173.494V104.819ZM77.1084 109.639V110.843H78.3132H79.5181V112.048V113.253H80.7229H81.9277V112.048V110.843H80.7229H79.5181V109.639V108.434H78.3132H77.1084V109.639ZM81.9277 119.277V120.482H83.1325H84.3373V121.687V122.892H85.5422H86.747V121.687V120.482H85.5422H84.3373V119.277V118.072H83.1325H81.9277V119.277ZM173.494 119.277V120.482H165.06H156.626V121.687V122.892H149.398H142.169V124.096V125.301H134.94H127.711V126.506V127.711H122.892H118.072V128.916V130.12H122.892H127.711V128.916V127.711H134.94H142.169V126.506V125.301H149.398H156.626V124.096V122.892H165.06H173.494V121.687V120.482H177.108H180.723V119.277V118.072H177.108H173.494V119.277ZM86.747 128.916V130.12H87.9518H89.1566V131.325V132.53H90.3614H91.5663V131.325V130.12H90.3614H89.1566V128.916V127.711H87.9518H86.747V128.916ZM134.94 150.602V151.807H136.145H137.349V150.602V149.398H136.145H134.94V150.602ZM130.12 153.012V154.217H131.325H132.53V153.012V151.807H131.325H130.12V153.012ZM125.301 155.422V156.627H126.506H127.711V155.422V154.217H126.506H125.301V155.422ZM103.614 157.831V159.036H104.819H106.024V160.241V161.446H107.229H108.434V160.241V159.036H107.229H106.024V157.831V156.627H104.819H103.614V157.831ZM120.482 157.831V159.036H121.687H122.892V157.831V156.627H121.687H120.482V157.831ZM115.663 160.241V161.446H116.867H118.072V160.241V159.036H116.867H115.663V160.241ZM110.843 162.651V163.855H112.048H113.253V162.651V161.446H112.048H110.843V162.651ZM106.024 165.06V166.265H107.229H108.434V165.06V163.855H107.229H106.024V165.06ZM101.205 167.47V168.675H102.41H103.614V167.47V166.265H102.41H101.205V167.47ZM96.3855 169.88V171.084H97.5904H98.7952V169.88V168.675H97.5904H96.3855V169.88ZM91.5663 172.289V173.494H92.7711H93.9759V172.289V171.084H92.7711H91.5663V172.289ZM86.747 174.699V175.904H87.9518H89.1566V174.699V173.494H87.9518H86.747V174.699ZM81.9277 177.108V178.313H83.1325H84.3373V177.108V175.904H83.1325H81.9277V177.108ZM77.1084 179.518V180.723H78.3132H79.5181V179.518V178.313H78.3132H77.1084V179.518ZM72.2892 181.928V183.133H73.494H74.6988V181.928V180.723H73.494H72.2892V181.928ZM67.4699 184.337V185.542H68.6747H69.8795V184.337V183.133H68.6747H67.4699V184.337ZM62.6506 186.747V187.952H63.8554H65.0602V186.747V185.542H63.8554H62.6506V186.747Z" fill="#040404"/>
<path fill-rule="evenodd" clip-rule="evenodd" d="M185.542 3.61449V4.81931H175.904H166.265V6.02413V7.22895H156.627H146.988V8.43376V9.63858H139.759H132.53V10.8434V12.0482H122.892H113.253V13.253V14.4579H103.614H93.9759V15.6627V16.8675H89.1567H84.3374V20.482V24.0964H85.5422H86.747V33.735V43.3735H85.5422H84.3374V42.1687V40.9639H83.1326H81.9277V42.1687V43.3735H79.5181H77.1085V44.5783V45.7832H74.6988H72.2892V46.988V48.1928H69.8795H67.4699V49.3976V50.6024H65.0603H62.6506V51.8073V53.0121H60.241H57.8314V54.2169V55.4217H55.4217H53.0121V56.6265V57.8314H50.6024H48.1928V59.0362V60.241H45.7832H43.3735V61.4458V62.6506H40.9639H38.5542V63.8555V65.0603H36.1446H33.735V66.2651V67.4699H31.3253H28.9157V68.6747V69.8795H26.5061H24.0964V71.0844V72.2892H21.6868H19.2771V73.494V74.6988H16.8675H14.4579V75.9036V77.1085H12.0482H9.63858V78.3133V79.5181H7.22894H4.81931V80.7229V81.9277H3.61449H2.40967V83.1326V84.3374H3.61449H4.81931V86.747V89.1567H6.02413H7.22894V91.5663V93.9759H8.43376H9.63858V96.3856V98.7952H10.8434H12.0482V101.205V103.614H13.253H14.4579V106.024V108.434H15.6627H16.8675V110.843V113.253H18.0723H19.2771V115.663V118.072H20.482H21.6868V120.482V122.892H22.8916H24.0964V125.301V127.711H25.3012H26.5061V130.121V132.53H27.7109H28.9157V134.94V137.349H30.1205H31.3253V139.759V142.169H32.5301H33.735V144.578V146.988H34.9398H36.1446V149.398V151.807H37.3494H38.5542V154.217V156.627H39.7591H40.9639V159.036V161.446H42.1687H43.3735V163.855V166.265H44.5783H45.7832V168.675V171.084H46.988H48.1928V173.494V175.904H49.3976H50.6024V178.313V180.723H51.8073H53.0121V183.133V185.542H54.2169H55.4217V187.952V190.361H56.6265H57.8314V192.771V195.181H59.0362H60.241V191.566V187.952H61.4458H62.6506V191.566V195.181H65.0603H67.4699V193.976V192.771H69.8795H72.2892V191.566V190.361H74.6988H77.1085V189.157V187.952H79.5181H81.9277V186.747V185.542H84.3374H86.747V184.337V183.133H89.1567H91.5663V181.928V180.723H93.9759H96.3856V179.518V178.313H98.7952H101.205V177.108V175.904H103.614H106.024V174.699V173.494H108.434H110.843V172.289V171.084H113.253H115.663V169.88V168.675H118.072H120.482V167.47V166.265H122.892H125.301V165.06V163.855H127.711H130.121V162.651V161.446H132.53H134.94V160.241V159.036H137.349H139.759V157.831V156.627H142.169H144.578V155.422V154.217H146.988H149.398V153.012V151.807H151.807H154.217V149.398V146.988H153.012H151.807V145.783V144.578H150.602H149.398V143.374V142.169H156.627H163.855V140.964V139.759H173.494H183.133V138.554V137.349H192.771H202.41V136.145V134.94H206.024H209.639V130.121V125.301H208.434H207.229V115.663V106.024H206.024H204.819V96.3856V86.747H203.614H202.41V77.1085V67.4699H201.205H200V57.8314V48.1928H198.795H197.59V38.5542V28.9157H196.386H195.181V19.2771V9.63858H193.976H192.771V6.02413V2.40967H189.157H185.542V3.61449ZM142.169 27.7109V28.9157H133.735H125.301V30.1205V31.3253H116.867H108.434V32.5302V33.735H102.41H96.3856V34.9398V36.1446H102.41H108.434V34.9398V33.735H116.867H125.301V32.5302V31.3253H133.735H142.169V30.1205V28.9157H145.783H149.398V27.7109V26.5061H145.783H142.169V27.7109ZM142.169 34.9398V36.1446H133.735H125.301V37.3494V38.5542H116.867H108.434V39.7591V40.9639H102.41H96.3856V42.1687V43.3735H102.41H108.434V42.1687V40.9639H116.867H125.301V39.7591V38.5542H133.735H142.169V37.3494V36.1446H145.783H149.398V34.9398V33.735H145.783H142.169V34.9398ZM86.747 51.8073V60.241H85.5422H84.3374V61.4458V62.6506H81.9277H79.5181V63.8555V65.0603H77.1085H74.6988V66.2651V67.4699H72.2892H69.8795V68.6747V69.8795H67.4699H65.0603V71.0844V72.2892H62.6506H60.241V73.494V74.6988H57.8314H55.4217V75.9036V77.1085H53.0121H50.6024V78.3133V79.5181H48.1928H45.7832V80.7229V81.9277H43.3735H40.9639V83.1326V84.3374H38.5542H36.1446V85.5422V86.747H33.735H31.3253V87.9518V89.1567H28.9157H26.5061V90.3615V91.5663H24.0964H21.6868V90.3615V89.1567H19.2771H16.8675V87.9518V86.747H14.4579H12.0482V85.5422V84.3374H9.63858H7.22894V83.1326V81.9277H6.02413H4.81931V83.1326V84.3374H6.02413H7.22894V85.5422V86.747H9.63858H12.0482V87.9518V89.1567H14.4579H16.8675V90.3615V91.5663H19.2771H21.6868V92.7711V93.9759H24.0964H26.5061V92.7711V91.5663H28.9157H31.3253V90.3615V89.1567H33.735H36.1446V87.9518V86.747H38.5542H40.9639V85.5422V84.3374H43.3735H45.7832V83.1326V81.9277H48.1928H50.6024V80.7229V79.5181H53.0121H55.4217V78.3133V77.1085H57.8314H60.241V75.9036V74.6988H62.6506H65.0603V73.494V72.2892H67.4699H69.8795V71.0844V69.8795H72.2892H74.6988V68.6747V67.4699H77.1085H79.5181V72.2892V77.1085H80.7229H81.9277V72.2892V67.4699H80.7229H79.5181V66.2651V65.0603H81.9277H84.3374V72.2892V79.5181H83.1326H81.9277V84.3374V89.1567H83.1326H84.3374V84.3374V79.5181H85.5422H86.747V72.2892V65.0603H87.9518H89.1567V73.494V81.9277H87.9518H86.747V90.3615V98.7952H87.9518H89.1567V90.3615V81.9277H90.3615H91.5663V91.5663V101.205H90.3615H89.1567V107.229V113.253H90.3615H91.5663V107.229V101.205H92.7711H93.9759V110.843V120.482H95.1807H96.3856V130.121V139.759H95.1807H93.9759V138.554V137.349H92.7711H91.5663V138.554V139.759H92.7711H93.9759V140.964V142.169H95.1807H96.3856V140.964V139.759H97.5904H98.7952V143.374V146.988H97.5904H96.3856V148.193V149.398H97.5904H98.7952V150.602V151.807H104.819H110.843V150.602V149.398H120.482H130.121V148.193V146.988H134.94H139.759V148.193V149.398H140.964H142.169V148.193V146.988H145.783H149.398V145.783V144.578H139.759H130.121V145.783V146.988H120.482H110.843V148.193V149.398H106.024H101.205V144.578V139.759H100H98.7952V130.121V120.482H97.5904H96.3856V110.843V101.205H95.1807H93.9759V91.5663V81.9277H92.7711H91.5663V72.2892V62.6506H90.3615H89.1567V53.0121V43.3735H87.9518H86.747V51.8073ZM166.265 54.2169V55.4217H159.036H151.807V56.6265V57.8314H144.578H137.349V59.0362V60.241H130.121H122.892V61.4458V62.6506H118.072H113.253V63.8555V65.0603H118.072H122.892V63.8555V62.6506H130.121H137.349V61.4458V60.241H144.578H151.807V59.0362V57.8314H159.036H166.265V56.6265V55.4217H171.084H175.904V54.2169V53.0121H171.084H166.265V54.2169ZM166.265 61.4458V62.6506H159.036H151.807V63.8555V65.0603H144.578H137.349V66.2651V67.4699H130.121H122.892V68.6747V69.8795H118.072H113.253V71.0844V72.2892H118.072H122.892V71.0844V69.8795H130.121H137.349V68.6747V67.4699H144.578H151.807V66.2651V65.0603H159.036H166.265V63.8555V62.6506H171.084H175.904V61.4458V60.241H171.084H166.265V61.4458ZM84.3374 63.8555V65.0603H85.5422H86.747V63.8555V62.6506H85.5422H84.3374V63.8555ZM168.675 68.6747V69.8795H161.446H154.217V71.0844V72.2892H146.988H139.759V73.494V74.6988H132.53H125.301V75.9036V77.1085H120.482H115.663V78.3133V79.5181H120.482H125.301V78.3133V77.1085H132.53H139.759V75.9036V74.6988H146.988H154.217V73.494V72.2892H161.446H168.675V71.0844V69.8795H173.494H178.313V68.6747V67.4699H173.494H168.675V68.6747ZM168.675 75.9036V77.1085H161.446H154.217V78.3133V79.5181H146.988H139.759V80.7229V81.9277H132.53H125.301V83.1326V84.3374H120.482H115.663V85.5422V86.747H120.482H125.301V85.5422V84.3374H132.53H139.759V83.1326V81.9277H146.988H154.217V80.7229V79.5181H161.446H168.675V78.3133V77.1085H173.494H178.313V75.9036V74.6988H173.494H168.675V75.9036ZM62.6506 80.7229V81.9277H63.8554H65.0603V83.1326V84.3374H66.2651H67.4699V83.1326V81.9277H66.2651H65.0603V80.7229V79.5181H63.8554H62.6506V80.7229ZM67.4699 90.3615V91.5663H68.6747H69.8795V92.7711V93.9759H71.0844H72.2892V92.7711V91.5663H71.0844H69.8795V90.3615V89.1567H68.6747H67.4699V90.3615ZM72.2892 100V101.205H73.494H74.6988V102.41V103.614H75.9036H77.1085V102.41V101.205H75.9036H74.6988V100V98.7952H73.494H72.2892V100ZM171.084 100V101.205H161.446H151.807V102.41V103.614H149.398H146.988V104.819V106.024H149.398H151.807V104.819V103.614H161.446H171.084V102.41V101.205H177.108H183.133V100V98.7952H177.108H171.084V100ZM173.494 104.819V106.024H163.855H154.217V107.229V108.434H151.807H149.398V109.639V110.843H151.807H154.217V109.639V108.434H163.855H173.494V107.229V106.024H179.518H185.542V104.819V103.614H179.518H173.494V104.819ZM77.1085 109.639V110.843H78.3133H79.5181V112.048V113.253H80.7229H81.9277V112.048V110.843H80.7229H79.5181V109.639V108.434H78.3133H77.1085V109.639ZM81.9277 119.277V120.482H83.1326H84.3374V121.687V122.892H85.5422H86.747V121.687V120.482H85.5422H84.3374V119.277V118.072H83.1326H81.9277V119.277ZM173.494 119.277V120.482H165.06H156.627V121.687V122.892H149.398H142.169V124.096V125.301H134.94H127.711V126.506V127.711H122.892H118.072V128.916V130.121H122.892H127.711V128.916V127.711H134.94H142.169V126.506V125.301H149.398H156.627V124.096V122.892H165.06H173.494V121.687V120.482H177.108H180.723V119.277V118.072H177.108H173.494V119.277ZM86.747 128.916V130.121H87.9518H89.1567V131.325V132.53H90.3615H91.5663V131.325V130.121H90.3615H89.1567V128.916V127.711H87.9518H86.747V128.916ZM134.94 150.602V151.807H136.145H137.349V150.602V149.398H136.145H134.94V150.602ZM130.121 153.012V154.217H131.325H132.53V153.012V151.807H131.325H130.121V153.012ZM125.301 155.422V156.627H126.506H127.711V155.422V154.217H126.506H125.301V155.422ZM103.614 157.831V159.036H104.819H106.024V160.241V161.446H107.229H108.434V160.241V159.036H107.229H106.024V157.831V156.627H104.819H103.614V157.831ZM120.482 157.831V159.036H121.687H122.892V157.831V156.627H121.687H120.482V157.831ZM115.663 160.241V161.446H116.867H118.072V160.241V159.036H116.867H115.663V160.241ZM110.843 162.651V163.855H112.048H113.253V162.651V161.446H112.048H110.843V162.651ZM106.024 165.06V166.265H107.229H108.434V165.06V163.855H107.229H106.024V165.06ZM101.205 167.47V168.675H102.41H103.614V167.47V166.265H102.41H101.205V167.47ZM96.3856 169.88V171.084H97.5904H98.7952V169.88V168.675H97.5904H96.3856V169.88ZM91.5663 172.289V173.494H92.7711H93.9759V172.289V171.084H92.7711H91.5663V172.289ZM86.747 174.699V175.904H87.9518H89.1567V174.699V173.494H87.9518H86.747V174.699ZM81.9277 177.108V178.313H83.1326H84.3374V177.108V175.904H83.1326H81.9277V177.108ZM77.1085 179.518V180.723H78.3133H79.5181V179.518V178.313H78.3133H77.1085V179.518ZM72.2892 181.928V183.133H73.494H74.6988V181.928V180.723H73.494H72.2892V181.928ZM67.4699 184.337V185.542H68.6747H69.8795V184.337V183.133H68.6747H67.4699V184.337ZM62.6506 186.747V187.952H63.8554H65.0603V186.747V185.542H63.8554H62.6506V186.747Z" fill="#FCFCFC"/>
</g>
<defs>
<clipPath id="clip0_101_472">
<rect width="212.048" height="200" fill="white"/>
</clipPath>
</defs>
</svg>
