<svg width="310" height="310" viewBox="0 0 310 310" fill="none" xmlns="http://www.w3.org/2000/svg">
<g clip-path="url(#clip0_8_2927)">
<path fill-rule="evenodd" clip-rule="evenodd" d="M0 155.003V310.006L155.25 309.753L310.5 309.5L310.753 154.75L311.006 0H155.503H0V155.003ZM0.488 155.5C0.487 240.75 0.606 275.773 0.75 233.329C0.894 190.884 0.894 121.134 0.75 78.329C0.606 35.523 0.488 70.25 0.488 155.5ZM90 30V50H95H100V35V20H200H300V15V10H195H90V30ZM110 35V40H115H120V60V80H140H160V60V40H140H120V35V30H115H110V35ZM170 35V40H175H180V60V80H200H220V60V40H200H180V35V30H175H170V35ZM230 35V40H235H240V60V80H260H280V60V40H260H240V35V30H235H230V35ZM80 65V70H70H60V75V80H55H50V85V90H45H40V95V100H35H30V110V120H25H20V130V140H15H10V175V210H15H20V220V230H25H30V240V250H35H40V260V270H45H50V275V280H55H60V290V300H100H140V295V290H135H130V285V280H125H120V275V270H115H110V265V260H105H100V255V250H95H90V240V230H85H80V225V220H100H120V210V200H125H130V210V220H135H140V215V210H145H150V205V200H155H160V195V190H155H150V180V170H155H160V165V160H155H150V165V170H145H140V160V150H135H130V140V130H125H120V120V110H115H110V100V90H105H100V80V70H95H90V65V60H85H80V65ZM60 90V100H65H70V110V120H75H80V130V140H85H90V150V160H95H100V170V180H105H110V190V200H115H120V190V180H115H110V170V160H105H100V150V140H95H90V130V120H85H80V110V100H75H70V90V80H65H60V90ZM170 95V100H175H180V120V140H200H220V120V100H200H180V95V90H175H170V95ZM230 95V100H235H240V120V140H260H280V120V100H260H240V95V90H235H230V95ZM130 110V120H135H140V130V140H150H160V120V100H145H130V110ZM170 155V160H175H180V180V200H200H220V180V160H200H180V155V150H175H170V155ZM230 155V160H235H240V180V200H260H280V180V160H260H240V155V150H235H230V155ZM170 215V220H175H180V240V260H200H220V240V220H200H180V215V210H175H170V215ZM230 215V220H235H240V240V260H260H280V240V220H260H240V215V210H235H230V215ZM150 225V230H145H140V235V240H135H130V250V260H145H160V240V220H155H150V225ZM160 285V290H230H300V285V280H230H160V285Z" fill="#040404"/>
<path fill-rule="evenodd" clip-rule="evenodd" d="M90 30V50H95H100V35V20H200H300V15V10H195H90V30ZM110 35V40H115H120V60V80H140H160V60V40H140H120V35V30H115H110V35ZM170 35V40H175H180V60V80H200H220V60V40H200H180V35V30H175H170V35ZM230 35V40H235H240V60V80H260H280V60V40H260H240V35V30H235H230V35ZM80 65V70H70H60V75V80H55H50V85V90H45H40V95V100H35H30V110V120H25H20V130V140H15H10V175V210H15H20V220V230H25H30V240V250H35H40V260V270H45H50V275V280H55H60V290V300H100H140V295V290H135H130V285V280H125H120V275V270H115H110V265V260H105H100V255V250H95H90V240V230H85H80V225V220H100H120V210V200H125H130V210V220H135H140V215V210H145H150V205V200H155H160V195V190H155H150V180V170H155H160V165V160H155H150V165V170H145H140V160V150H135H130V140V130H125H120V120V110H115H110V100V90H105H100V80V70H95H90V65V60H85H80V65ZM60 90V100H65H70V110V120H75H80V130V140H85H90V150V160H95H100V170V180H105H110V190V200H115H120V190V180H115H110V170V160H105H100V150V140H95H90V130V120H85H80V110V100H75H70V90V80H65H60V90ZM170 95V100H175H180V120V140H200H220V120V100H200H180V95V90H175H170V95ZM230 95V100H235H240V120V140H260H280V120V100H260H240V95V90H235H230V95ZM130 110V120H135H140V130V140H150H160V120V100H145H130V110ZM170 155V160H175H180V180V200H200H220V180V160H200H180V155V150H175H170V155ZM230 155V160H235H240V180V200H260H280V180V160H260H240V155V150H235H230V155ZM170 215V220H175H180V240V260H200H220V240V220H200H180V215V210H175H170V215ZM230 215V220H235H240V240V260H260H280V240V220H260H240V215V210H235H230V215ZM150 225V230H145H140V235V240H135H130V250V260H145H160V240V220H155H150V225ZM160 285V290H230H300V285V280H230H160V285Z" fill="#FCFCFC"/>
</g>
<defs>
<clipPath id="clip0_8_2927">
<rect width="310" height="310" fill="white"/>
</clipPath>
</defs>
</svg>
