<svg width="241" height="310" viewBox="0 0 241 310" fill="none" xmlns="http://www.w3.org/2000/svg">
<g clip-path="url(#clip0_8_2695)">
<path fill-rule="evenodd" clip-rule="evenodd" d="M15 5V10H10H5V135V260H10H15V285V310H125H235V285V260H238H241V135V10H238C235.067 10 235 9.889 235 5V0H125H15V5ZM15 135V260H125H235V135V10H125H15V135ZM45 35V40H40H35V100V160H40H45V165V170H125H205V165V160H210H215V100V40H210H205V35V30H125H45V35ZM45 100V160H125H205V100V40H125H45V100ZM55 55V60H60H65V55V50H60H55V55ZM75 55V60H80H85V55V50H80H75V55ZM95 55V60H100H105V55V50H100H95V55ZM115 55V60H120H125V55V50H120H115V55ZM135 55V60H140H145V55V50H140H135V55ZM155 55V60H160H165V55V50H160H155V55ZM55 75V80H60H65V75V70H60H55V75ZM75 75V80H80H85V75V70H80H75V75ZM95 75V80H100H105V75V70H100H95V75ZM115 75V80H120H125V75V70H120H115V75ZM55 95V100H60H65V95V90H60H55V95ZM75 95V100H80H85V95V90H80H75V95ZM55 115V120H60H65V115V110H60H55V115ZM75 115V120H80H85V115V110H80H75V115ZM55 135V140H60H65V135V130H60H55V135ZM75 135V140H80H85V135V130H80H75V135ZM95 135V140H100H105V135V130H100H95V135ZM125 215V220H165H205V215V210H165H125V215ZM25 285V300H125H225V285V270H125H25V285Z" fill="#040404"/>
<path fill-rule="evenodd" clip-rule="evenodd" d="M15 135V260H125H235V135V10H125H15V135ZM45 35V40H40H35V100V160H40H45V165V170H125H205V165V160H210H215V100V40H210H205V35V30H125H45V35ZM45 100V160H125H205V100V40H125H45V100ZM55 55V60H60H65V55V50H60H55V55ZM75 55V60H80H85V55V50H80H75V55ZM95 55V60H100H105V55V50H100H95V55ZM115 55V60H120H125V55V50H120H115V55ZM135 55V60H140H145V55V50H140H135V55ZM155 55V60H160H165V55V50H160H155V55ZM55 75V80H60H65V75V70H60H55V75ZM75 75V80H80H85V75V70H80H75V75ZM95 75V80H100H105V75V70H100H95V75ZM115 75V80H120H125V75V70H120H115V75ZM55 95V100H60H65V95V90H60H55V95ZM75 95V100H80H85V95V90H80H75V95ZM55 115V120H60H65V115V110H60H55V115ZM75 115V120H80H85V115V110H80H75V115ZM55 135V140H60H65V135V130H60H55V135ZM75 135V140H80H85V135V130H80H75V135ZM95 135V140H100H105V135V130H100H95V135ZM125 215V220H165H205V215V210H165H125V215ZM25 285V300H125H225V285V270H125H25V285Z" fill="#FCFCFC"/>
</g>
<defs>
<clipPath id="clip0_8_2695">
<rect width="241" height="310" fill="white"/>
</clipPath>
</defs>
</svg>
