<svg width="290" height="200" viewBox="0 0 290 200" fill="none" xmlns="http://www.w3.org/2000/svg">
<g clip-path="url(#clip0_95_500)">
<path fill-rule="evenodd" clip-rule="evenodd" d="M121.762 0.518135V1.03627H115.026H108.29V1.5544V2.07254H101.036H93.7824V2.59067V3.10881H90.1555H86.5286V4.14508V5.18135H86.0104H85.4923V53.3679V101.554H86.0104H86.5286V103.627V105.699H86.0104H85.4923V107.772V109.845H78.2384H70.9845V110.363V110.881H70.4664H69.9482V111.917V112.953H68.912H67.8757V113.472V113.99H68.912H69.9482V115.544V117.098H77.2021H84.456V116.58V116.062H84.9742H85.4923V118.653V121.244H86.0104H86.5286V122.28V123.316H87.0467H87.5648V123.834V124.352H88.083H88.6011V124.87V125.389H90.6736H92.7462V125.907V126.425H93.7824H94.8187V128.497V130.57H92.7462H90.6736V130.052V129.534H87.5648H84.456V129.016V128.497H80.8291H77.2021V127.979V127.461H74.6115H72.0208V127.979V128.497H67.3576H62.6944V129.016V129.534H59.5856H56.4767V129.016V128.497H55.9586H55.4405V129.016V129.534H53.3679H51.2954V130.052V130.57H50.7773H50.2591V131.088V131.606H37.8239H25.3887V132.124V132.642H36.7876H48.1866V133.161V133.679H47.6685H47.1503V134.197V134.715H46.6322H46.114V135.233V135.751H45.5959H45.0778V136.269V136.788H44.5596H44.0415V137.306V137.824H43.5234H43.0052V138.342V138.86H42.4871H41.969V139.378V139.896H40.9327H39.8964V140.415V140.933H39.3783H38.8602V141.451V141.969H38.342H37.8239V142.487V143.005H36.7876H35.7514V143.523V144.041H35.2332H34.7151V144.56V145.078H34.1969H33.6788V145.596V146.114H32.6425H31.6063V146.632V147.15H30.57H29.5337V147.668V148.187H29.0156H28.4975V148.705V149.223H27.4612H26.4249V149.741V150.259H25.3887H24.3524V150.777V151.295H23.8343H23.3161V151.813V152.332H22.2798H21.2436V155.959V159.585H22.798H24.3524V160.104V160.622H26.9431H29.5337V161.14V161.658H32.1244H34.7151V162.176V162.694H37.3058H39.8964V163.212V163.731H42.4871H45.0778V164.249V164.767H47.6685H50.2591V165.285V165.803H52.8498H55.4405V166.321V166.839H58.5493H61.6581V167.358V167.876H64.2488H66.8394V168.394V168.912H69.4301H72.0208V169.43V169.948H74.6115H77.2021V170.466V170.984H79.7928H82.3835V171.503V172.021H84.9742H87.5648V172.539V173.057H90.1555H92.7462V173.575V174.093H95.3368H97.9275V174.611V175.13H101.036H104.145V175.648V176.166H106.736H109.326V176.684V177.202H111.917H114.508V177.72V178.238H117.099H119.689V178.756V179.275H122.28H124.871V179.793V180.311H127.461H130.052V180.829V181.347H132.643H135.233V181.865V182.383H137.824H140.415V182.902V183.42H143.523H146.632V183.938V184.456H149.223H151.814V184.974V185.492H154.404H156.995V186.01V186.529H159.586H162.176V187.047V187.565H164.767H167.358V188.083V188.601H169.948H172.539V189.119V189.637H175.13H177.72V190.155V190.674H181.347H184.974V190.155V189.637H186.01H187.047V189.119V188.601H187.565H188.083V188.083V187.565H188.601H189.119V187.047V186.529H189.637H190.156V186.01V185.492H190.674H191.192V184.974V184.456H191.71H192.228V183.938V183.42H192.746H193.264V182.902V182.383H193.782H194.301V181.865V181.347H195.337H196.373V180.829V180.311H196.891H197.409V179.275V178.238H197.928H198.446V177.72V177.202H198.964H199.482V176.684V176.166H200H200.518V175.13V174.093H201.036H201.554V173.575V173.057H202.073H202.591V172.539V172.021H203.109H203.627V170.984V169.948H204.145H204.663V168.912V167.876H205.181H205.7V166.839V165.803H206.218H206.736V164.767V163.731H207.254H207.772V162.176V160.622H208.29H208.808V159.067V157.513H209.845H210.881V156.995V156.477H209.326H207.772V154.922V153.368H206.736H205.7V152.85V152.332H203.627H201.554V151.813V151.295H201.036H200.518V151.813V152.332H198.964H197.409V151.813V151.295H197.928H198.446V150.777V150.259H197.928H197.409V149.741V149.223H195.855H194.301V148.705V148.187H193.782H193.264V147.668V147.15H193.782H194.301V146.632V146.114H195.337H196.373V145.596V145.078H196.891H197.409V144.56V144.041H198.446H199.482V143.523V143.005H200H200.518V142.487V141.969H201.036H201.554V141.451V140.933H202.591H203.627V140.415V139.896H204.145H204.663V139.378V138.86H205.181H205.7V138.342V137.824H206.736H207.772V137.306V136.788H208.29H208.808V136.269V135.751H209.845H210.881V135.233V134.715H211.399H211.917V134.197V133.679H212.435H212.953V133.161V132.642H213.99H215.026V132.124V131.606H215.544H216.062V131.088V130.57H217.099H218.135V130.052V129.534H218.653H219.171V129.016V128.497H219.689H220.207V127.979V127.461H220.725H221.244V126.943V126.425H221.762H222.28V69.9482V13.4715H221.762H221.244V11.9171V10.3627H220.725H220.207V9.32642V8.29016H219.689H219.171V7.25389V6.21762H218.653H218.135V5.18135V4.14508H217.617H217.099V3.62694V3.10881H216.58H216.062V2.59067V2.07254H215.544H215.026V1.5544V1.03627H206.736H198.446V0.518135V0H192.746H187.047V0.518135V1.03627H182.383H177.72V1.5544V2.07254H168.394H159.067V1.5544V1.03627H157.513H155.959V0.518135V0H138.86H121.762V0.518135ZM121.762 1.5544V2.07254H115.026H108.29V2.59067V3.10881H107.772H107.254V3.62694V4.14508H105.181H103.109V4.66321V5.18135H105.181H107.254V4.66321V4.14508H116.062H124.871V3.62694V3.10881H130.052H135.233V3.62694V4.14508H130.57H125.907V4.66321V5.18135H122.28H118.653V5.69948V6.21762H122.28H125.907V5.69948V5.18135H137.306H148.705V4.66321V4.14508H153.368H158.031V3.62694V3.10881H146.632H135.233V2.59067V2.07254H145.596H155.959V1.5544V1.03627H138.86H121.762V1.5544ZM187.047 1.5544V2.07254H182.383H177.72V2.59067V3.10881H173.057H168.394V3.62694V4.14508H163.731H159.067V4.66321V5.18135H173.057H187.047V5.69948V6.21762H172.021H156.995V6.73575V7.25389H170.466H183.938V7.77202V8.29016H169.948H155.959V7.77202V7.25389H136.788H117.617V6.73575V6.21762H109.845H102.073V5.69948V5.18135H96.8913H91.7099V4.66321V4.14508H89.6374H87.5648V5.18135V6.21762H87.0467H86.5286V53.886V101.554H87.0467H87.5648V102.073V102.591H89.6374H91.7099V103.109V103.627H90.1555H88.6011V104.145V104.663H90.1555H91.7099V105.181V105.699H89.1192H86.5286V113.472V121.244H87.0467H87.5648V122.28V123.316H88.083H88.6011V123.834V124.352H90.6736H92.7462V124.87V125.389H95.3368H97.9275V125.907V126.425H96.8913H95.855V128.497V130.57H96.8913H97.9275V131.088V131.606H101.554H105.181V132.124V132.642H108.29H111.399V133.161V133.679H115.026H118.653V134.197V134.715H121.762H124.871V135.233V135.751H128.497H132.124V136.269V136.788H135.233H138.342V137.306V137.824H141.969H145.596V138.342V138.86H149.223H152.85V139.378V139.896H155.959H159.067V140.415V140.933H162.694H166.321V141.451V141.969H169.43H172.539V142.487V143.005H176.166H179.793V143.523V144.041H183.42H187.047V144.56V145.078H187.565H188.083V140.933V136.788H187.565H187.047V137.306V137.824H186.01H184.974V138.342V138.86H183.938H182.902V139.378V139.896H180.829H178.757V139.378V138.86H180.311H181.865V138.342V137.824H182.383H182.902V137.306V136.788H183.42H183.938V136.269V135.751H184.456H184.974V127.461V119.171H182.383H179.793V118.653V118.135H182.902H186.01V117.617V117.098H182.902H179.793V116.58V116.062H182.383H184.974V86.5285V56.9948H185.492H186.01V86.5285V116.062H186.529H187.047V117.617V119.171H186.529H186.01V127.461V135.751H186.529H187.047V135.233V134.715H188.083H189.119V140.933V147.15H190.674H192.228V146.632V146.114H192.746H193.264V145.596V145.078H194.301H195.337V144.56V144.041H195.855H196.373V143.523V143.005H197.409H198.446V142.487V141.969H198.964H199.482V141.451V140.933H200H200.518V140.415V139.896H201.554H202.591V139.378V138.86H203.109H203.627V138.342V137.824H204.145H204.663V137.306V136.788H205.7H206.736V136.269V135.751H207.254H207.772V135.233V134.715H208.808H209.845V134.197V133.679H210.363H210.881V133.161V132.642H211.399H211.917V132.124V131.606H212.953H213.99V131.088V130.57H214.508H215.026V130.052V129.534H216.062H217.099V129.016V128.497H217.617H218.135V127.979V127.461H218.653H219.171V126.943V126.425H219.689H220.207V125.907V125.389H220.725H221.244V124.87V124.352H220.725H220.207V124.87V125.389H219.171H218.135V125.907V126.425H217.617H217.099V126.943V127.461H216.062H215.026V127.979V128.497H214.508H213.99V129.016V129.534H212.953H211.917V130.052V130.57H211.399H210.881V131.088V131.606H209.845H208.808V132.124V132.642H208.29H207.772V133.161V133.679H206.736H205.7V134.197V134.715H205.181H204.663V135.233V135.751H203.627H202.591V136.269V136.788H202.073H201.554V137.306V137.824H200.518H199.482V138.342V138.86H198.964H198.446V139.378V139.896H197.409H196.373V140.415V140.933H195.337H194.301V140.415V139.896H194.819H195.337V139.378V138.86H196.373H197.409V138.342V137.824H197.928H198.446V137.306V136.788H199.482H200.518V136.269V135.751H201.036H201.554V135.233V134.715H202.591H203.627V134.197V133.679H204.145H204.663V133.161V132.642H205.7H206.736V132.124V131.606H207.254H207.772V131.088V130.57H208.808H209.845V130.052V129.534H210.363H210.881V129.016V128.497H211.917H212.953V127.979V127.461H213.472H213.99V126.943V126.425H215.026H216.062V125.907V125.389H216.58H217.099V124.87V124.352H218.135H219.171V123.834V123.316H220.207H221.244V122.28V121.244H220.725H220.207V121.762V122.28H219.689H219.171V122.798V123.316H218.135H217.099V123.834V124.352H216.58H216.062V124.87V125.389H215.026H213.99V125.907V126.425H212.953H211.917V126.943V127.461H211.399H210.881V127.979V128.497H209.845H208.808V129.016V129.534H208.29H207.772V130.052V130.57H206.736H205.7V131.088V131.606H204.663H203.627V132.124V132.642H203.109H202.591V133.161V133.679H201.554H200.518V134.197V134.715H200H199.482V135.233V135.751H198.446H197.409V136.269V136.788H196.891H196.373V137.306V137.824H195.337H194.301V137.306V136.788H194.819H195.337V136.269V135.751H195.855H196.373V135.233V134.715H197.409H198.446V134.197V133.679H198.964H199.482V133.161V132.642H200.518H201.554V132.124V131.606H202.073H202.591V131.088V130.57H203.627H204.663V130.052V129.534H205.7H206.736V129.016V128.497H207.254H207.772V127.979V127.461H208.808H209.845V126.943V126.425H210.363H210.881V125.907V125.389H211.917H212.953V124.87V124.352H213.99H215.026V123.834V123.316H215.544H216.062V122.798V122.28H217.099H218.135V121.762V121.244H218.653H219.171V120.725V120.207H220.207H221.244V119.689V119.171H220.207H219.171V119.689V120.207H218.653H218.135V120.725V121.244H217.099H216.062V121.762V122.28H215.026H213.99V122.798V123.316H213.472H212.953V123.834V124.352H211.917H210.881V124.87V125.389H209.845H208.808V125.907V126.425H207.772H206.736V126.943V127.461H206.218H205.7V127.979V128.497H204.663H203.627V129.016V129.534H202.591H201.554V130.052V130.57H201.036H200.518V131.088V131.606H199.482H198.446V132.124V132.642H197.409H196.373V133.161V133.679H195.337H194.301V133.161V132.642H194.819H195.337V132.124V131.606H196.373H197.409V131.088V130.57H198.446H199.482V130.052V129.534H200H200.518V129.016V128.497H201.554H202.591V127.979V127.461H203.627H204.663V126.943V126.425H205.181H205.7V125.907V125.389H206.736H207.772V124.87V124.352H208.808H209.845V123.834V123.316H210.881H211.917V122.798V122.28H212.435H212.953V121.762V121.244H213.99H215.026V120.725V120.207H216.062H217.099V119.689V119.171H217.617H218.135V118.653V118.135H219.689H221.244V117.098V116.062H220.725H220.207V116.58V117.098H219.171H218.135V117.617V118.135H217.099H216.062V118.653V119.171H215.026H213.99V119.689V120.207H213.472H212.953V120.725V121.244H211.917H210.881V121.762V122.28H209.845H208.808V122.798V123.316H207.772H206.736V123.834V124.352H205.7H204.663V124.87V125.389H204.145H203.627V125.907V126.425H202.591H201.554V126.943V127.461H200.518H199.482V127.979V128.497H198.446H197.409V129.016V129.534H196.373H195.337V130.052V130.57H194.819H194.301V129.534V128.497H195.337H196.373V127.979V127.461H197.409H198.446V126.943V126.425H199.482H200.518V125.907V125.389H201.554H202.591V124.87V124.352H203.109H203.627V123.834V123.316H204.663H205.7V122.798V122.28H206.736H207.772V121.762V121.244H208.808H209.845V120.725V120.207H210.881H211.917V119.689V119.171H212.435H212.953V118.653V118.135H213.99H215.026V117.617V117.098H216.062H217.099V116.58V116.062H218.135H219.171V115.544V115.026H220.207H221.244V64.2487V13.4715H220.725H220.207V11.9171V10.3627H219.689H219.171V9.32642V8.29016H218.653H218.135V7.25389V6.21762H217.617H217.099V5.18135V4.14508H216.58H216.062V3.62694V3.10881H215.544H215.026V2.59067V2.07254H206.736H198.446V1.5544V1.03627H192.746H187.047V1.5544ZM93.7824 3.62694V4.14508H94.8187H95.855V3.62694V3.10881H94.8187H93.7824V3.62694ZM187.047 6.73575V7.25389H188.083H189.119V67.3575V127.461H190.156H191.192V126.943V126.425H191.71H192.228V135.751V145.078H192.746H193.264V135.233V125.389H191.71H190.156V66.3212V7.25389H189.637H189.119V6.73575V6.21762H188.083H187.047V6.73575ZM183.938 8.80829V9.32642H184.974H186.01V33.1606V56.9948H186.529H187.047V33.1606V9.32642H186.529H186.01V8.80829V8.29016H184.974H183.938V8.80829ZM94.8187 17.0984V17.6166H94.3006H93.7824V18.1347V18.6528H93.2643H92.7462V50.2591V81.8653H93.2643H93.7824V82.3834V82.9016H94.3006H94.8187V83.4197V83.9378H95.3368H95.855V84.456V84.9741H96.3731H96.8913V85.4922V86.0104H100H103.109V86.5285V87.0466H106.218H109.326V87.5648V88.0829H112.435H115.544V88.601V89.1192H119.171H122.798V89.6373V90.1554H126.943H131.088V90.6736V91.1917H135.751H140.415V91.7098V92.228H145.078H149.741V92.7461V93.2643H154.404H159.067V93.7824V94.3005H163.731H168.394V94.8187V95.3368H170.985H173.575V94.8187V94.3005H174.093H174.611V93.2643V92.228H175.13H175.648V82.3834V72.5389H176.166H176.684V47.6684V22.7979H176.166H175.648V22.2798V21.7617H174.611H173.575V21.2435V20.7254H158.549H143.523V20.2073V19.6891H136.27H129.016V19.171V18.6528H122.28H115.544V18.1347V17.6166H109.326H103.109V17.0984V16.5803H98.9638H94.8187V17.0984ZM94.8187 18.1347V18.6528H94.3006H93.7824V50.2591V81.8653H94.3006H94.8187V82.3834V82.9016H95.3368H95.855V83.4197V83.9378H96.3731H96.8913V84.456V84.9741H100H103.109V85.4922V86.0104H106.218H109.326V86.5285V87.0466H112.435H115.544V87.5648V88.0829H119.171H122.798V88.601V89.1192H126.943H131.088V89.6373V90.1554H135.751H140.415V90.6736V91.1917H145.078H149.741V91.7098V92.228H154.404H159.067V92.7461V93.2643H163.731H168.394V93.7824V94.3005H170.985H173.575V93.2643V92.228H174.093H174.611V82.3834V72.5389H175.13H175.648V47.6684V22.7979H174.611H173.575V22.2798V21.7617H161.14H148.705V22.2798V22.7979H139.378H130.052V22.2798V21.7617H136.788H143.523V21.2435V20.7254H136.788H130.052V21.2435V21.7617H122.28H114.508V21.2435V20.7254H121.762H129.016V20.2073V19.6891H122.28H115.544V19.171V18.6528H109.326H103.109V18.1347V17.6166H98.9638H94.8187V18.1347ZM101.036 20.2073V20.7254H100.518H100V22.7979V24.8705H99.4819H98.9638V30.0518V35.2332H98.4457H97.9275V50.7772V66.3212H98.4457H98.9638V70.9845V75.6477H99.4819H100V76.1658V76.6839H100.518H101.036V77.2021V77.7202H101.554H102.073V78.2383V78.7565H103.109H104.145V79.2746V79.7927H107.254H110.363V80.3109V80.829H113.99H117.617V81.3472V81.8653H121.762H125.907V82.3834V82.9016H130.57H135.233V83.4197V83.9378H140.415H145.596V84.456V84.9741H150.259H154.922V85.4922V86.0104H160.104H165.285V86.5285V87.0466H168.394H171.503V86.5285V86.0104H172.021H172.539V85.4922V84.9741H173.057H173.575V54.9223V24.8705H173.057H172.539V24.3523V23.8342H172.021H171.503V23.3161V22.7979H160.104H148.705V23.3161V23.8342H160.104H171.503V24.3523V24.8705H172.021H172.539V54.9223V84.9741H172.021H171.503V85.4922V86.0104H168.394H165.285V85.4922V84.9741H160.104H154.922V84.456V83.9378H150.259H145.596V83.4197V82.9016H140.415H135.233V82.3834V81.8653H130.57H125.907V81.3472V80.829H121.762H117.617V80.3109V79.7927H113.99H110.363V79.2746V78.7565H107.254H104.145V78.2383V77.7202H103.109H102.073V77.2021V76.6839H101.554H101.036V76.1658V75.6477H100.518H100V70.9845V66.3212H99.4819H98.9638V50.7772V35.2332H99.4819H100V30.0518V24.8705H100.518H101.036V22.7979V20.7254H107.772H114.508V20.2073V19.6891H107.772H101.036V20.2073ZM91.7099 104.145V104.663H93.7824H95.855V105.181V105.699H93.7824H91.7099V106.218V106.736H94.3006H96.8913V107.254V107.772H98.9638H101.036V108.29V108.808H103.109H105.181V109.326V109.845H107.772H110.363V110.363V110.881H113.472H116.58V111.399V111.917H120.207H123.834V112.435V112.953H127.461H131.088V113.472V113.99H134.715H138.342V114.508V115.026H143.005H147.668V115.544V116.062H152.85H158.031V116.58V117.098H163.213H168.394V117.617V118.135H174.093H179.793V117.617V117.098H177.202H174.611V116.58V116.062H177.202H179.793V115.544V115.026H173.575H167.358V114.508V113.99H162.176H156.995V113.472V112.953H151.814H146.632V112.435V111.917H141.969H137.306V111.399V110.881H133.679H130.052V110.363V109.845H126.943H123.834V109.326V108.808H120.207H116.58V108.29V107.772H113.472H110.363V107.254V106.736H107.772H105.181V106.218V105.699H103.109H101.036V105.181V104.663H98.4457H95.855V104.145V103.627H93.7824H91.7099V104.145ZM96.8913 106.218V106.736H98.9638H101.036V107.254V107.772H103.109H105.181V108.29V108.808H107.772H110.363V109.326V109.845H113.472H116.58V110.363V110.881H120.207H123.834V111.399V111.917H126.943H130.052V111.399V110.881H126.943H123.834V110.363V109.845H120.207H116.58V109.326V108.808H113.472H110.363V108.29V107.772H107.772H105.181V107.254V106.736H103.109H101.036V106.218V105.699H98.9638H96.8913V106.218ZM72.0208 111.399V111.917H71.5026H70.9845V113.99V116.062H72.0208H73.0571V113.472V110.881H72.5389H72.0208V111.399ZM74.0933 113.472V116.062H75.1296H76.1659V113.99V111.917H75.6477H75.1296V111.399V110.881H74.6115H74.0933V113.472ZM77.2021 113.472V116.062H77.7203H78.2384V113.472V110.881H77.7203H77.2021V113.472ZM79.2747 112.953V115.026H79.7928H80.3109V115.544V116.062H80.8291H81.3472V113.472V110.881H80.3109H79.2747V112.953ZM82.3835 112.953V115.026H83.4197H84.456V114.508V113.99H83.9379H83.4197V112.435V110.881H82.9016H82.3835V112.953ZM84.456 111.917V112.953H84.9742H85.4923V111.917V110.881H84.9742H84.456V111.917ZM131.088 112.435V112.953H134.197H137.306V112.435V111.917H134.197H131.088V112.435ZM59.5856 114.508V115.026H61.6581H63.7306V114.508V113.99H61.6581H59.5856V114.508ZM50.2591 115.544V116.062H52.8498H55.4405V115.544V115.026H52.8498H50.2591V115.544ZM64.7669 115.544V116.062H66.8394H68.912V115.544V115.026H66.8394H64.7669V115.544ZM41.969 116.58V117.098H44.0415H46.114V116.58V116.062H44.0415H41.969V116.58ZM56.4767 116.58V117.098H58.5493H60.6218V116.58V116.062H58.5493H56.4767V116.58ZM35.7514 117.617V118.135H37.3058H38.8602V117.617V117.098H37.3058H35.7514V117.617ZM47.1503 117.617V118.135H49.2229H51.2954V117.617V117.098H49.2229H47.1503V117.617ZM95.855 117.617V118.135H94.8187H93.7824V120.207V122.28H95.855H97.9275V119.689V117.098H96.8913H95.855V117.617ZM29.5337 118.653V119.171H31.0881H32.6425V118.653V118.135H31.0881H29.5337V118.653ZM39.8964 118.653V119.171H41.4508H43.0052V118.653V118.135H41.4508H39.8964V118.653ZM23.3161 119.689V120.207H24.8705H26.4249V119.689V119.171H24.8705H23.3161V119.689ZM33.6788 119.689V120.207H35.2332H36.7876V119.689V119.171H35.2332H33.6788V119.689ZM18.1348 120.725V121.244H19.171H20.2073V120.725V120.207H19.171H18.1348V120.725ZM27.4612 120.725V121.244H29.0156H30.57V120.725V120.207H29.0156H27.4612V120.725ZM13.9897 121.762V122.28H15.026H16.0622V121.762V121.244H15.026H13.9897V121.762ZM21.2436 121.762V122.28H22.798H24.3524V121.762V121.244H22.798H21.2436V121.762ZM10.8809 122.798V123.316H11.9172H12.9534V122.798V122.28H11.9172H10.8809V122.798ZM17.0985 122.798V123.316H18.1348H19.171V122.798V122.28H18.1348H17.0985V122.798ZM6.73581 123.834V124.352H7.77208H8.80834V123.834V123.316H7.77208H6.73581V123.834ZM13.9897 123.834V124.352H15.026H16.0622V123.834V123.316H15.026H13.9897V123.834ZM3.627 124.87V125.389H4.66327H5.69954V124.87V124.352H4.66327H3.627V124.87ZM9.84461 124.87V125.389H10.8809H11.9172V124.87V124.352H10.8809H9.84461V124.87ZM1.55446 125.907V126.425H1.03632H0.518188V127.979V129.534H1.55446H2.59073V129.016V128.497H2.07259H1.55446V127.461V126.425H2.07259H2.59073V125.907V125.389H2.07259H1.55446V125.907ZM6.73581 125.907V126.425H7.25394H7.77208V125.907V125.389H7.25394H6.73581V125.907ZM3.627 127.461V128.497H4.14513H4.66327V127.461V126.425H4.14513H3.627V127.461ZM97.9275 126.943V127.461H100H102.073V127.979V128.497H104.145H106.218V129.016V129.534H108.808H111.399V130.052V130.57H113.472H115.544V131.088V131.606H117.617H119.689V132.124V132.642H123.316H126.943V133.161V133.679H130.57H134.197V134.197V134.715H137.306H140.415V135.233V135.751H144.042H147.668V136.269V136.788H152.332H156.995V137.306V137.824H162.176H167.358V138.342V138.86H173.057H178.757V138.342V137.824H173.057H167.358V137.306V136.788H162.176H156.995V136.269V135.751H152.332H147.668V135.233V134.715H144.042H140.415V134.197V133.679H137.306H134.197V133.161V132.642H130.57H126.943V132.124V131.606H123.316H119.689V131.088V130.57H117.617H115.544V130.052V129.534H113.472H111.399V129.016V128.497H108.808H106.218V127.979V127.461H104.145H102.073V126.943V126.425H100H97.9275V126.943ZM5.69954 129.016V129.534H8.80834H11.9172V129.016V128.497H8.80834H5.69954V129.016ZM73.0571 129.016V129.534H72.5389H72.0208V130.052V130.57H71.5026H70.9845V131.088V131.606H73.5752H76.1659V132.124V132.642H79.2747H82.3835V133.161V133.679H85.4923H88.6011V134.197V134.715H90.1555H91.7099V134.197V133.679H92.228H92.7462V133.161V132.642H93.2643H93.7824V132.124V131.606H91.7099H89.6374V131.088V130.57H86.5286H83.4197V130.052V129.534H79.7928H76.1659V129.016V128.497H74.6115H73.0571V129.016ZM3.627 130.052V130.57H4.14513H4.66327V130.052V129.534H4.14513H3.627V130.052ZM18.1348 130.052V130.57H22.2798H26.4249V130.052V129.534H22.2798H18.1348V130.052ZM63.7306 130.052V130.57H66.8394H69.9482V130.052V129.534H66.8394H63.7306V130.052ZM10.8809 131.088V131.606H13.9897H17.0985V131.088V130.57H13.9897H10.8809V131.088ZM52.3317 131.088V131.606H51.8135H51.2954V132.124V132.642H50.7773H50.2591V133.161V133.679H49.741H49.2229V134.197V134.715H48.7047H48.1866V135.233V135.751H47.6685H47.1503V136.269V136.788H47.6685H48.1866V136.269V135.751H49.2229H50.2591V135.233V134.715H50.7773H51.2954V134.197V133.679H51.8135H52.3317V132.642V131.606H55.9586H59.5856V132.124V132.642H56.4767H53.3679V133.679V134.715H52.8498H52.3317V135.751V136.788H54.4042H56.4767V137.306V137.824H53.8861H51.2954V137.306V136.788H50.2591H49.2229V137.306V137.824H48.1866H47.1503V138.342V138.86H46.6322H46.114V139.896V140.933H49.2229H52.3317V141.451V141.969H48.7047H45.0778V141.451V140.933H43.5234H41.969V141.451V141.969H41.4508H40.9327V142.487V143.005H40.4146H39.8964V143.523V144.041H39.3783H38.8602V144.56V145.078H41.969H45.0778V145.596V146.114H48.1866H51.2954V146.632V147.15H47.6685H44.0415V146.632V146.114H39.3783H34.7151V146.632V147.15H34.1969H33.6788V147.668V148.187H35.2332H36.7876V148.705V149.223H33.1607H29.5337V149.741V150.259H29.0156H28.4975V150.777V151.295H27.9793H27.4612V151.813V152.332H28.4975H29.5337V152.85V153.368H32.6425H35.7514V152.332V151.295H36.7876H37.8239V150.777V150.259H38.342H38.8602V149.741V149.223H42.4871H46.114V149.741V150.259H43.0052H39.8964V150.777V151.295H39.3783H38.8602V151.813V152.332H37.8239H36.7876V153.368V154.404H38.8602H40.9327V154.922V155.44H42.4871H44.0415V154.404V153.368H44.5596H45.0778V152.85V152.332H45.5959H46.114V151.813V151.295H48.1866H50.2591V150.777V150.259H50.7773H51.2954V149.223V148.187H52.3317H53.3679V146.632V145.078H53.8861H54.4042V144.56V144.041H55.4405H56.4767V143.523V143.005H59.5856H62.6944V142.487V141.969H63.2125H63.7306V141.451V140.933H64.2488H64.7669V140.415V139.896H65.285H65.8032V138.342V136.788H66.3213H66.8394V136.269V135.751H67.3576H67.8757V135.233V134.715H68.3938H68.912V134.197V133.679H72.0208H75.1296V134.197V134.715H75.6477H76.1659V135.233V135.751H75.1296H74.0933V135.233V134.715H72.0208H69.9482V135.233V135.751H69.4301H68.912V136.269V136.788H68.3938H67.8757V137.306V137.824H67.3576H66.8394V138.342V138.86H69.9482H73.0571V139.378V139.896H73.5752H74.0933V138.86V137.824H74.6115H75.1296V137.306V136.788H75.6477H76.1659V136.269V135.751H77.2021H78.2384V135.233V134.715H79.7928H81.3472V135.233V135.751H82.3835H83.4197V136.269V136.788H81.8653H80.3109V136.269V135.751H79.7928H79.2747V136.269V136.788H78.2384H77.2021V137.306V137.824H76.684H76.1659V138.342V138.86H75.6477H75.1296V139.378V139.896H77.2021H79.2747V140.415V140.933H80.3109H81.3472V139.896V138.86H81.8653H82.3835V138.342V137.824H82.9016H83.4197V137.306V136.788H84.456H85.4923V136.269V135.751H86.5286H87.5648V135.233V134.715H84.456H81.3472V134.197V133.679H78.2384H75.1296V133.161V132.642H72.0208H68.912V132.124V131.606H65.285H61.6581V131.088V130.57H56.9949H52.3317V131.088ZM61.6581 133.161V133.679H61.14H60.6218V134.197V134.715H60.1037H59.5856V135.233V135.751H59.0674H58.5493V136.788V137.824H58.0311H57.513V138.342V138.86H56.9949H56.4767V139.378V139.896H55.9586H55.4405V140.415V140.933H54.9223H54.4042V141.969V143.005H54.9223H55.4405V142.487V141.969H55.9586H56.4767V141.451V140.933H56.9949H57.513V140.415V139.896H58.0311H58.5493V139.378V138.86H61.6581H64.7669V138.342V137.824H62.1762H59.5856V137.306V136.788H60.1037H60.6218V136.269V135.751H61.14H61.6581V135.233V134.715H62.1762H62.6944V134.197V133.679H64.7669H66.8394V134.197V134.715H67.3576H67.8757V133.679V132.642H64.7669H61.6581V133.161ZM94.8187 133.161V133.679H94.3006H93.7824V134.197V134.715H94.3006H94.8187V135.233V135.751H98.4457H102.073V136.269V136.788H102.591H103.109V136.269V135.751H103.627H104.145V135.233V134.715H104.663H105.181V134.197V133.679H102.073H98.9638V133.161V132.642H96.8913H94.8187V133.161ZM107.254 134.197V134.715H106.736H106.218V135.233V135.751H105.7H105.181V136.269V136.788H106.736H108.29V137.306V137.824H111.399H114.508V138.342V138.86H117.617H120.725V139.378V139.896H123.834H126.943V140.415V140.933H130.052H133.161V141.451V141.969H136.788H140.415V142.487V143.005H143.523H146.632V143.523V144.041H149.741H152.85V144.56V145.078H155.959H159.067V145.596V146.114H162.176H165.285V146.632V147.15H168.912H172.539V147.668V148.187H175.648H178.757V148.705V149.223H181.865H184.974V148.705V148.187H185.492H186.01V147.668V147.15H187.047H188.083V146.632V146.114H187.047H186.01V145.596V145.078H182.383H178.757V144.56V144.041H175.13H171.503V143.523V143.005H168.394H165.285V142.487V141.969H161.658H158.031V141.451V140.933H154.922H151.814V140.415V139.896H148.187H144.56V139.378V138.86H140.933H137.306V138.342V137.824H134.197H131.088V137.306V136.788H127.461H123.834V136.269V135.751H120.725H117.617V135.233V134.715H113.99H110.363V134.197V133.679H108.808H107.254V134.197ZM88.6011 136.269V136.788H89.6374H90.6736V137.306V137.824H89.1192H87.5648V137.306V136.788H87.0467H86.5286V137.306V137.824H85.4923H84.456V138.342V138.86H83.9379H83.4197V139.378V139.896H82.9016H82.3835V140.933V141.969H82.9016H83.4197V141.451V140.933H84.9742H86.5286V141.451V141.969H87.5648H88.6011V141.451V140.933H89.1192H89.6374V140.415V139.896H90.1555H90.6736V139.378V138.86H91.1918H91.7099V138.342V137.824H95.3368H98.9638V138.342V138.86H95.855H92.7462V139.378V139.896H92.228H91.7099V140.415V140.933H91.1918H90.6736V141.451V141.969H90.1555H89.6374V142.487V143.005H87.5648H85.4923V142.487V141.969H84.9742H84.456V142.487V143.005H83.4197H82.3835V143.523V144.041H81.3472H80.3109V144.56V145.078H79.7928H79.2747V145.596V146.114H80.3109H81.3472V146.632V147.15H79.7928H78.2384V146.632V146.114H77.2021H76.1659V146.632V147.15H75.1296H74.0933V147.668V148.187H73.5752H73.0571V148.705V149.223H72.5389H72.0208V149.741V150.259H75.6477H79.2747V149.741V149.223H79.7928H80.3109V148.705V148.187H81.3472H82.3835V147.668V147.15H84.456H86.5286V146.114V145.078H87.5648H88.6011V144.56V144.041H89.1192H89.6374V143.523V143.005H93.2643H96.8913V142.487V141.969H97.4094H97.9275V141.451V140.933H98.4457H98.9638V140.415V139.896H99.4819H100V139.378V138.86H103.627H107.254V139.378V139.896H104.145H101.036V140.415V140.933H100.518H100V141.451V141.969H99.4819H98.9638V142.487V143.005H98.4457H97.9275V143.523V144.041H101.554H105.181V143.523V143.005H105.7H106.218V142.487V141.969H106.736H107.254V141.451V140.933H107.772H108.29V140.415V139.896H110.881H113.472V139.378V138.86H110.363H107.254V138.342V137.824H104.145H101.036V137.306V136.788H97.4094H93.7824V136.269V135.751H91.1918H88.6011V136.269ZM66.8394 140.415V140.933H66.3213H65.8032V141.451V141.969H65.285H64.7669V143.523V145.078H64.2488H63.7306V144.56V144.041H60.6218H57.513V144.56V145.078H56.4767H55.4405V145.596V146.114H54.9223H54.4042V146.632V147.15H57.513H60.6218V147.668V148.187H57.513H54.4042V148.705V149.223H53.3679H52.3317V150.259V151.295H53.3679H54.4042V151.813V152.332H50.7773H47.1503V152.85V153.368H46.6322H46.114V153.886V154.404H45.5959H45.0778V154.922V155.44H46.114H47.1503V155.959V156.477H49.741H52.3317V156.995V157.513H54.4042H56.4767V156.995V156.477H56.9949H57.513V155.44V154.404H58.5493H59.5856V153.368V152.332H60.1037H60.6218V151.295V150.259H61.14H61.6581V149.223V148.187H62.1762H62.6944V147.15V146.114H63.7306H64.7669V145.596V145.078H65.285H65.8032V144.56V144.041H68.3938H70.9845V143.523V143.005H71.5026H72.0208V142.487V141.969H72.5389H73.0571V141.451V140.933H72.5389H72.0208V140.415V139.896H69.4301H66.8394V140.415ZM115.544 140.415V140.933H112.435H109.326V141.451V141.969H108.808H108.29V142.487V143.005H107.772H107.254V143.523V144.041H106.736H106.218V144.56V145.078H109.845H113.472V144.56V144.041H113.99H114.508V143.523V143.005H115.026H115.544V141.969V140.933H117.617H119.689V140.415V139.896H117.617H115.544V140.415ZM76.1659 141.451V141.969H75.1296H74.0933V142.487V143.005H73.5752H73.0571V143.523V144.041H72.5389H72.0208V144.56V145.078H72.5389H73.0571V145.596V146.114H72.0208H70.9845V145.596V145.078H68.912H66.8394V145.596V146.114H66.3213H65.8032V146.632V147.15H64.7669H63.7306V148.187V149.223H64.7669H65.8032V148.705V148.187H66.3213H66.8394V148.705V149.223H68.3938H69.9482V149.741V150.259H66.3213H62.6944V150.777V151.295H62.1762H61.6581V152.332V153.368H65.285H68.912V152.332V151.295H69.9482H70.9845V149.741V148.187H71.5026H72.0208V147.668V147.15H72.5389H73.0571V146.632V146.114H74.0933H75.1296V145.596V145.078H76.684H78.2384V144.56V144.041H78.7565H79.2747V143.523V143.005H80.3109H81.3472V142.487V141.969H79.7928H78.2384V141.451V140.933H77.2021H76.1659V141.451ZM122.798 141.969V143.005H122.28H121.762V142.487V141.969H119.171H116.58V143.005V144.041H116.062H115.544V144.56V145.078H115.026H114.508V145.596V146.114H116.062H117.617V146.632V147.15H118.653H119.689V147.668V148.187H118.135H116.58V147.668V147.15H115.544H114.508V147.668V148.187H113.99H113.472V148.705V149.223H112.435H111.399V149.741V150.259H110.881H110.363V150.777V151.295H112.435H114.508V151.813V152.332H115.544H116.58V151.813V151.295H117.099H117.617V150.777V150.259H118.135H118.653V149.741V149.223H119.689H120.725V147.15V145.078H121.244H121.762V144.56V144.041H122.28H122.798V143.523V143.005H123.316H123.834V142.487V141.969H124.871H125.907V141.451V140.933H124.352H122.798V141.969ZM129.016 142.487V143.005H130.57H132.124V142.487V141.969H130.57H129.016V142.487ZM124.871 143.523V144.041H124.352H123.834V144.56V145.078H123.316H122.798V145.596V146.114H122.28H121.762V147.15V148.187H124.871H127.979V147.15V146.114H128.497H129.016V145.596V145.078H129.534H130.052V144.56V144.041H129.016H127.979V143.523V143.005H126.425H124.871V143.523ZM135.233 143.523V144.041H136.27H137.306V144.56V145.078H135.751H134.197V144.56V144.041H133.161H132.124V144.56V145.078H131.606H131.088V145.596V146.114H130.57H130.052V146.632V147.15H129.534H129.016V148.187V149.223H125.389H121.762V149.741V150.259H120.725H119.689V150.777V151.295H119.171H118.653V151.813V152.332H119.689H120.725V152.85V153.368H117.617H114.508V153.886V154.404H113.472H112.435V154.922V155.44H111.917H111.399V155.959V156.477H115.026H118.653V155.959V155.44H119.171H119.689V154.922V154.404H120.207H120.725V153.886V153.368H122.798H124.871V152.85V152.332H125.389H125.907V151.813V151.295H126.425H126.943V150.777V150.259H127.979H129.016V149.741V149.223H132.643H136.27V148.187V147.15H136.788H137.306V146.632V146.114H137.824H138.342V145.596V145.078H139.378H140.415V144.56V144.041H139.896H139.378V143.523V143.005H137.306H135.233V143.523ZM36.7876 144.56V145.078H37.3058H37.8239V144.56V144.041H37.3058H36.7876V144.56ZM90.6736 144.56V145.078H90.1555H89.6374V145.596V146.114H88.6011H87.5648V146.632V147.15H89.1192H90.6736V147.668V148.187H87.0467H83.4197V148.705V149.223H82.3835H81.3472V149.741V150.259H80.8291H80.3109V150.777V151.295H83.4197H86.5286V151.813V152.332H87.0467H87.5648V151.295V150.259H88.083H88.6011V149.741V149.223H89.6374H90.6736V148.705V148.187H92.7462H94.8187V147.15V146.114H95.855H96.8913V145.078V144.041H93.7824H90.6736V144.56ZM142.487 144.56V145.078H144.042H145.596V145.596V146.114H142.487H139.378V146.632V147.15H138.86H138.342V147.668V148.187H137.824H137.306V149.223V150.259H133.679H130.052V150.777V151.295H129.016H127.979V151.813V152.332H127.461H126.943V152.85V153.368H127.979H129.016V153.886V154.404H125.389H121.762V154.922V155.44H121.244H120.725V155.959V156.477H120.207H119.689V157.513V158.549H122.798H125.907V157.513V156.477H126.425H126.943V155.959V155.44H127.979H129.016V154.922V154.404H131.088H133.161V153.886V153.368H133.679H134.197V152.85V152.332H134.715H135.233V151.813V151.295H136.27H137.306V150.777V150.259H140.933H144.56V149.223V148.187H145.078H145.596V147.668V147.15H146.114H146.632V146.632V146.114H149.223H151.814V145.596V145.078H148.705H145.596V144.56V144.041H144.042H142.487V144.56ZM98.9638 145.596V146.114H98.4457H97.9275V146.632V147.15H96.8913H95.855V147.668V148.187H96.8913H97.9275V149.223V150.259H97.4094H96.8913V149.741V149.223H94.3006H91.7099V149.741V150.259H90.6736H89.6374V150.777V151.295H89.1192H88.6011V152.332V153.368H92.228H95.855V152.85V152.332H96.3731H96.8913V151.813V151.295H97.4094H97.9275V150.777V150.259H98.4457H98.9638V149.741V149.223H100.518H102.073V148.187V147.15H103.109H104.145V146.632V146.114H104.663H105.181V145.596V145.078H102.073H98.9638V145.596ZM106.218 146.632V147.15H105.7H105.181V147.668V148.187H104.145H103.109V148.705V149.223H104.145H105.181V149.741V150.259H105.7H106.218V150.777V151.295H105.181H104.145V150.777V150.259H102.073H100V150.777V151.295H99.4819H98.9638V151.813V152.332H98.4457H97.9275V152.85V153.368H97.4094H96.8913V153.886V154.404H100.518H104.145V153.368V152.332H105.181H106.218V151.813V151.295H107.772H109.326V150.259V149.223H109.845H110.363V148.705V148.187H111.399H112.435V147.668V147.15H111.917H111.399V146.632V146.114H108.808H106.218V146.632ZM153.886 146.632V147.15H150.777H147.668V147.668V148.187H147.15H146.632V148.705V149.223H146.114H145.596V150.259V151.295H145.078H144.56V151.813V152.332H144.042H143.523V151.813V151.295H140.933H138.342V151.813V152.332H137.306H136.27V152.85V153.368H135.751H135.233V153.886V154.404H136.27H137.306V154.922V155.44H139.896H142.487V154.922V154.404H143.005H143.523V153.886V153.368H144.042H144.56V152.85V152.332H145.078H145.596V151.813V151.295H148.705H151.814V151.813V152.332H152.332H152.85V151.295V150.259H153.368H153.886V149.741V149.223H154.404H154.922V148.705V148.187H155.44H155.959V147.668V147.15H156.995H158.031V146.632V146.114H155.959H153.886V146.632ZM162.176 147.668V148.187H163.213H164.249V147.668V147.15H163.213H162.176V147.668ZM156.995 148.705V149.223H156.477H155.959V149.741V150.259H155.44H154.922V150.777V151.295H154.404H153.886V152.332V153.368H152.332H150.777V152.85V152.332H148.705H146.632V152.85V153.368H146.114H145.596V153.886V154.404H145.078H144.56V155.44V156.477H144.042H143.523V156.995V157.513H143.005H142.487V156.995V156.477H139.896H137.306V156.995V157.513H136.788H136.27V158.031V158.549H135.233H134.197V159.067V159.585H134.715H135.233V160.104V160.622H131.606H127.979V161.14V161.658H126.943H125.907V162.176V162.694H125.389H124.871V163.212V163.731H125.907H126.943V164.249V164.767H129.534H132.124V164.249V163.731H132.643H133.161V163.212V162.694H133.679H134.197V162.176V161.658H135.751H137.306V161.14V160.622H138.342H139.378V161.14V161.658H139.896H140.415V161.14V160.622H140.933H141.451V159.585V158.549H142.487H143.523V158.031V157.513H144.042H144.56V156.995V156.477H146.632H148.705V156.995V157.513H150.777H152.85V156.995V156.477H153.368H153.886V155.959V155.44H154.404H154.922V154.922V154.404H155.44H155.959V153.886V153.368H159.586H163.213V153.886V154.404H164.249H165.285V155.44V156.477H165.803H166.321V155.959V155.44H166.839H167.358V154.404V153.368H167.876H168.394V152.332V151.295H167.358H166.321V152.332V153.368H165.285H164.249V152.85V152.332H164.767H165.285V151.295V150.259H165.803H166.321V149.741V149.223H163.731H161.14V148.705V148.187H159.067H156.995V148.705ZM167.358 148.705V149.223H167.876H168.394V149.741V150.259H168.912H169.43V150.777V151.295H169.948H170.466V151.813V152.332H169.948H169.43V153.368V154.404H168.912H168.394V155.44V156.477H167.876H167.358V156.995V157.513H166.839H166.321V158.031V158.549H166.839H167.358V158.031V157.513H167.876H168.394V156.995V156.477H169.43H170.466V154.922V153.368H170.985H171.503V152.332V151.295H172.021H172.539V150.777V150.259H175.13H177.72V149.741V149.223H174.611H171.503V148.705V148.187H169.43H167.358V148.705ZM187.047 148.705V149.223H186.529H186.01V149.741V150.259H188.601H191.192V150.777V151.295H191.71H192.228V150.777V150.259H192.746H193.264V149.741V149.223H192.746H192.228V148.705V148.187H191.71H191.192V148.705V149.223H189.637H188.083V148.705V148.187H187.565H187.047V148.705ZM239.896 148.705V149.223H240.415H240.933V148.705V148.187H240.415H239.896V148.705ZM261.658 148.705V149.223H263.731H265.803V148.705V148.187H263.731H261.658V148.705ZM236.788 149.741V150.259H236.27H235.751V151.295V152.332H236.27H236.788V151.295V150.259H237.824H238.86V149.741V149.223H237.824H236.788V149.741ZM241.969 149.741V150.259H251.295H260.622V149.741V149.223H251.295H241.969V149.741ZM266.839 149.741V150.259H267.876H268.912V149.741V149.223H267.876H266.839V149.741ZM178.757 150.777V151.295H176.166H173.575V151.813V152.332H173.057H172.539V153.368V154.404H172.021H171.503V155.44V156.477H173.057H174.611V156.995V157.513H172.021H169.43V158.031V158.549H168.912H168.394V159.067V159.585H167.876H167.358V160.104V160.622H167.876H168.394V161.14V161.658H169.948H171.503V162.176V162.694H167.876H164.249V163.212V163.731H163.731H163.213V164.767V165.803H165.285H167.358V166.321V166.839H164.249H161.14V167.358V167.876H160.104H159.067V168.912V169.948H161.658H164.249V170.466V170.984H164.767H165.285V169.948V168.912H165.803H166.321V168.394V167.876H166.839H167.358V167.358V166.839H168.394H169.43V165.803V164.767H169.948H170.466V164.249V163.731H170.985H171.503V163.212V162.694H172.539H173.575V161.14V159.585H174.093H174.611V159.067V158.549H175.13H175.648V158.031V157.513H176.166H176.684V156.995V156.477H177.202H177.72V154.922V153.368H178.238H178.757V152.85V152.332H179.275H179.793V151.813V151.295H181.865H183.938V150.777V150.259H181.347H178.757V150.777ZM194.301 150.777V151.295H194.819H195.337V150.777V150.259H194.819H194.301V150.777ZM239.896 150.777V151.295H240.415H240.933V150.777V150.259H240.415H239.896V150.777ZM264.767 150.777V151.295H265.285H265.803V150.777V150.259H265.285H264.767V150.777ZM270.985 150.777V151.295H272.021H273.057V150.777V150.259H272.021H270.985V150.777ZM25.3887 151.813V152.332H24.8705H24.3524V152.85V153.368H23.3161H22.2798V153.886V154.404H24.3524H26.4249V154.922V155.44H29.5337H32.6425V155.959V156.477H35.2332H37.8239V156.995V157.513H40.4146H43.0052V158.031V158.549H45.5959H48.1866V159.067V159.585H50.7773H53.3679V160.104V160.622H55.9586H58.5493V161.14V161.658H61.6581H64.7669V162.176V162.694H67.3576H69.9482V163.212V163.731H72.5389H75.1296V164.249V164.767H77.7203H80.3109V165.285V165.803H82.9016H85.4923V166.321V166.839H88.6011H91.7099V167.358V167.876H94.3006H96.8913V168.394V168.912H99.4819H102.073V169.43V169.948H104.663H107.254V170.466V170.984H109.845H112.435V171.503V172.021H115.544H118.653V172.539V173.057H121.244H123.834V173.575V174.093H126.425H129.016V174.611V175.13H131.606H134.197V175.648V176.166H136.788H139.378V176.684V177.202H141.969H144.56V177.72V178.238H147.668H150.777V178.756V179.275H153.368H155.959V179.793V180.311H158.549H161.14V180.829V181.347H163.731H166.321V181.865V182.383H168.912H171.503V182.902V183.42H174.611H177.72V183.938V184.456H180.311H182.902V183.938V183.42H183.42H183.938V182.902V182.383H184.456H184.974V181.865V181.347H186.01H187.047V180.829V180.311H187.565H188.083V179.793V179.275H188.601H189.119V178.756V178.238H189.637H190.156V177.72V177.202H190.674H191.192V176.684V176.166H191.71H192.228V175.648V175.13H192.746H193.264V174.611V174.093H193.782H194.301V173.575V173.057H194.819H195.337V172.539V172.021H195.855H196.373V171.503V170.984H196.891H197.409V169.948V168.912H197.928H198.446V168.394V167.876H198.964H199.482V166.839V165.803H200H200.518V164.767V163.731H201.036H201.554V163.212V162.694H202.073H202.591V161.658V160.622H203.109H203.627V159.585V158.549H204.145H204.663V157.513V156.477H205.7H206.736V155.44V154.404H204.663H202.591V153.886V153.368H201.036H199.482V153.886V154.404H200H200.518V154.922V155.44H201.036H201.554V156.995V158.549H201.036H200.518V159.585V160.622H200H199.482V161.658V162.694H198.964H198.446V163.731V164.767H197.928H197.409V165.285V165.803H196.891H196.373V166.321V166.839H195.855H195.337V167.876V168.912H194.819H194.301V169.43V169.948H193.782H193.264V170.466V170.984H192.746H192.228V172.021V173.057H191.71H191.192V173.575V174.093H190.674H190.156V174.611V175.13H189.637H189.119V175.648V176.166H188.601H188.083V176.684V177.202H187.565H187.047V177.72V178.238H186.529H186.01V178.756V179.275H185.492H184.974V179.793V180.311H184.456H183.938V180.829V181.347H179.275H174.611V180.829V180.311H172.021H169.43V179.793V179.275H166.321H163.213V178.756V178.238H160.622H158.031V177.72V177.202H154.922H151.814V176.684V176.166H149.223H146.632V175.648V175.13H144.042H141.451V174.611V174.093H138.342H135.233V173.575V173.057H132.643H130.052V172.539V172.021H126.943H123.834V171.503V170.984H121.244H118.653V170.466V169.948H116.062H113.472V169.43V168.912H110.363H107.254V168.394V167.876H104.663H102.073V167.358V166.839H98.9638H95.855V166.321V165.803H93.2643H90.6736V165.285V164.767H88.083H85.4923V164.249V163.731H82.3835H79.2747V163.212V162.694H76.684H74.0933V162.176V161.658H70.9845H67.8757V161.14V160.622H65.285H62.6944V160.104V159.585H59.5856H56.4767V159.067V158.549H53.8861H51.2954V158.031V157.513H48.7047H46.114V156.995V156.477H43.0052H39.8964V155.959V155.44H37.3058H34.7151V154.922V154.404H31.6063H28.4975V153.886V153.368H27.4612H26.4249V152.332V151.295H25.9068H25.3887V151.813ZM72.0208 151.813V152.332H70.9845H69.9482V153.368V154.404H65.285H60.6218V154.922V155.44H59.5856H58.5493V156.477V157.513H58.0311H57.513V158.031V158.549H60.6218H63.7306V159.067V159.585H64.7669H65.8032V158.549V157.513H66.3213H66.8394V156.995V156.477H67.3576H67.8757V155.959V155.44H68.912H69.9482V154.922V154.404H73.0571H76.1659V154.922V155.44H76.684H77.2021V154.404V153.368H77.7203H78.2384V152.85V152.332H78.7565H79.2747V151.813V151.295H75.6477H72.0208V151.813ZM186.01 151.813V152.332H183.42H180.829V152.85V153.368H180.311H179.793V153.886V154.404H179.275H178.757V155.959V157.513H180.311H181.865V158.031V158.549H179.275H176.684V159.067V159.585H176.166H175.648V160.104V160.622H175.13H174.611V161.658V162.694H176.684H178.757V163.212V163.731H175.648H172.539V164.249V164.767H172.021H171.503V165.285V165.803H170.985H170.466V166.321V166.839H172.539H174.611V167.358V167.876H171.503H168.394V168.394V168.912H167.876H167.358V169.43V169.948H166.839H166.321V170.466V170.984H167.876H169.43V171.503V172.021H166.321H163.213V171.503V170.984H159.586H155.959V171.503V172.021H155.44H154.922V172.539V173.057H154.404H153.886V173.575V174.093H153.368H152.85V173.575V173.057H152.332H151.814V173.575V174.093H151.295H150.777V174.611V175.13H151.814H152.85V175.648V176.166H155.959H159.067V176.684V177.202H161.658H164.249V177.72V178.238H167.358H170.466V178.756V179.275H173.057H175.648V179.793V180.311H179.275H182.902V179.793V179.275H183.42H183.938V178.756V178.238H184.456H184.974V177.72V177.202H185.492H186.01V176.684V176.166H186.529H187.047V175.648V175.13H187.565H188.083V174.611V174.093H188.601H189.119V172.539V170.984H188.601H188.083V171.503V172.021H187.565H187.047V172.539V173.057H186.529H186.01V173.575V174.093H185.492H184.974V175.13V176.166H184.456H183.938V176.684V177.202H183.42H182.902V177.72V178.238H181.865H180.829V177.72V177.202H181.347H181.865V176.684V176.166H182.383H182.902V175.648V175.13H183.42H183.938V174.093V173.057H184.456H184.974V172.539V172.021H185.492H186.01V171.503V170.984H186.529H187.047V170.466V169.948H184.974H182.902V170.466V170.984H182.383H181.865V171.503V172.021H181.347H180.829V172.539V173.057H180.311H179.793V173.575V174.093H179.275H178.757V174.611V175.13H178.238H177.72V175.648V176.166H177.202H176.684V176.684V177.202H176.166H175.648V177.72V178.238H175.13H174.611V177.202V176.166H175.13H175.648V175.648V175.13H176.166H176.684V174.611V174.093H177.202H177.72V173.575V173.057H178.238H178.757V172.539V172.021H179.275H179.793V171.503V170.984H180.311H180.829V170.466V169.948H181.347H181.865V169.43V168.912H182.902H183.938V167.876V166.839H184.456H184.974V166.321V165.803H185.492H186.01V165.285V164.767H187.047H188.083V163.212V161.658H188.601H189.119V161.14V160.622H190.156H191.192V158.549V156.477H191.71H192.228V155.44V154.404H193.264H194.301V153.886V153.368H195.337H196.373V152.85V152.332H194.819H193.264V152.85V153.368H190.674H188.083V153.886V154.404H187.565H187.047V154.922V155.44H186.529H186.01V155.959V156.477H185.492H184.974V157.513V158.549H187.047H189.119V159.067V159.585H186.529H183.938V160.104V160.622H183.42H182.902V161.14V161.658H182.383H181.865V162.694V163.731H183.938H186.01V164.249V164.767H182.902H179.793V165.285V165.803H178.757H177.72V166.839V167.876H179.793H181.865V168.394V168.912H178.757H175.648V169.43V169.948H175.13H174.611V170.466V170.984H174.093H173.575V171.503V172.021H175.13H176.684V172.539V173.057H174.093H171.503V173.575V174.093H170.466H169.43V175.13V176.166H168.912H168.394V174.611V173.057H169.43H170.466V172.539V172.021H171.503H172.539V170.984V169.948H173.057H173.575V169.43V168.912H174.093H174.611V168.394V167.876H175.648H176.684V166.321V164.767H177.72H178.757V164.249V163.731H179.793H180.829V162.176V160.622H181.347H181.865V160.104V159.585H182.383H182.902V159.067V158.549H183.42H183.938V156.995V155.44H184.456H184.974V154.922V154.404H185.492H186.01V153.886V153.368H186.529H187.047V152.85V152.332H188.601H190.156V151.813V151.295H188.083H186.01V151.813ZM267.876 151.813V152.332H268.912H269.948V151.813V151.295H268.912H267.876V151.813ZM274.093 151.813V152.332H274.611H275.13V151.813V151.295H274.611H274.093V151.813ZM81.3472 152.85V153.368H80.3109H79.2747V153.886V154.404H78.7565H78.2384V154.922V155.44H79.7928H81.3472V155.959V156.477H83.4197H85.4923V155.44V154.404H86.5286H87.5648V153.886V153.368H86.5286H85.4923V152.85V152.332H83.4197H81.3472V152.85ZM107.254 152.85V153.368H106.218H105.181V154.404V155.44H107.772H110.363V154.922V154.404H110.881H111.399V153.886V153.368H112.435H113.472V152.85V152.332H110.363H107.254V152.85ZM272.021 152.85V153.368H272.539H273.057V152.85V152.332H272.539H272.021V152.85ZM276.166 152.85V153.368H276.684H277.202V153.886V154.404H277.72H278.238V153.886V153.368H277.72H277.202V152.85V152.332H276.684H276.166V152.85ZM235.751 153.886V154.404H236.27H236.788V154.922V155.44H237.306H237.824V154.922V154.404H237.306H236.788V153.886V153.368H236.27H235.751V153.886ZM274.093 153.886V154.404H274.611H275.13V154.922V155.44H275.648H276.166V154.922V154.404H275.648H275.13V153.886V153.368H274.611H274.093V153.886ZM88.6011 154.922V155.44H87.5648H86.5286V155.959V156.477H87.0467H87.5648V156.995V157.513H90.1555H92.7462V158.031V158.549H93.2643H93.7824V156.995V155.44H94.8187H95.855V154.922V154.404H92.228H88.6011V154.922ZM156.995 154.922V155.44H156.477H155.959V155.959V156.477H155.44H154.922V156.995V157.513H154.404H153.886V158.031V158.549H150.777H147.668V158.031V157.513H146.632H145.596V158.031V158.549H145.078H144.56V159.067V159.585H143.523H142.487V160.622V161.658H144.042H145.596V162.176V162.694H148.705H151.814V163.212V163.731H153.886H155.959V164.249V164.767H156.477H156.995V165.285V165.803H157.513H158.031V165.285V164.767H158.549H159.067V164.249V163.731H159.586H160.104V163.212V162.694H160.622H161.14V162.176V161.658H161.658H162.176V161.14V160.622H162.694H163.213V160.104V159.585H163.731H164.249V159.067V158.549H164.767H165.285V158.031V157.513H164.767H164.249V156.995V156.477H163.731H163.213V156.995V157.513H162.694H162.176V158.031V158.549H161.658H161.14V159.067V159.585H160.622H160.104V160.104V160.622H159.586H159.067V161.14V161.658H158.549H158.031V162.176V162.694H157.513H156.995V163.212V163.731H156.477H155.959V162.694V161.658H156.477H156.995V161.14V160.622H157.513H158.031V160.104V159.585H158.549H159.067V159.067V158.549H159.586H160.104V158.031V157.513H160.622H161.14V156.995V156.477H161.658H162.176V155.44V154.404H159.586H156.995V154.922ZM195.337 154.922V155.44H194.301H193.264V156.477V157.513H192.746H192.228V158.549V159.585H194.301H196.373V160.104V160.622H196.891H197.409V161.14V161.658H197.928H198.446V160.622V159.585H198.964H199.482V158.549V157.513H200H200.518V156.995V156.477H200H199.482V156.995V157.513H198.964H198.446V158.031V158.549H197.928H197.409V159.067V159.585H196.891H196.373V158.549V157.513H196.891H197.409V156.995V156.477H197.928H198.446V155.44V154.404H196.891H195.337V154.922ZM208.808 154.922V155.44H209.845H210.881V154.922V154.404H209.845H208.808V154.922ZM238.86 154.922V155.44H239.378H239.896V155.959V156.477H240.415H240.933V156.995V157.513H241.451H241.969V158.031V158.549H242.487H243.005V159.067V159.585H243.523H244.042V159.067V158.549H243.523H243.005V158.031V157.513H242.487H241.969V156.995V156.477H241.451H240.933V155.959V155.44H240.415H239.896V154.922V154.404H239.378H238.86V154.922ZM22.2798 156.995V158.549H23.8343H25.3887V159.067V159.585H27.9793H30.57V160.104V160.622H33.1607H35.7514V161.14V161.658H38.342H40.9327V162.176V162.694H43.5234H46.114V163.212V163.731H48.7047H51.2954V164.249V164.767H53.8861H56.4767V165.285V165.803H59.5856H62.6944V166.321V166.839H65.285H67.8757V167.358V167.876H70.4664H73.0571V168.394V168.912H75.6477H78.2384V169.43V169.948H80.8291H83.4197V170.466V170.984H86.0104H88.6011V171.503V172.021H91.1918H93.7824V172.539V173.057H96.3731H98.9638V173.575V174.093H102.073H105.181V174.611V175.13H107.772H110.363V175.648V176.166H112.953H115.544V176.684V177.202H118.135H120.725V177.72V178.238H123.316H125.907V178.756V179.275H128.497H131.088V179.793V180.311H133.679H136.27V180.829V181.347H138.86H141.451V181.865V182.383H144.56H147.668V182.902V183.42H150.259H152.85V183.938V184.456H155.44H158.031V184.974V185.492H160.622H163.213V186.01V186.529H165.803H168.394V187.047V187.565H170.985H173.575V188.083V188.601H176.166H178.757V189.119V189.637H181.347H183.938V189.119V188.601H184.974H186.01V188.083V187.565H186.529H187.047V187.047V186.529H187.565H188.083V186.01V185.492H188.601H189.119V184.974V184.456H189.637H190.156V183.938V183.42H190.674H191.192V182.902V182.383H191.71H192.228V181.865V181.347H192.746H193.264V180.829V180.311H194.301H195.337V179.793V179.275H195.855H196.373V178.238V177.202H196.891H197.409V176.684V176.166H197.928H198.446V175.648V175.13H198.964H199.482V174.093V173.057H200H200.518V172.539V172.021H201.036H201.554V171.503V170.984H202.073H202.591V169.948V168.912H203.109H203.627V167.876V166.839H204.145H204.663V165.803V164.767H205.181H205.7V163.731V162.694H206.218H206.736V161.14V159.585H207.254H207.772V158.549V157.513H206.736H205.7V158.549V159.585H205.181H204.663V160.622V161.658H204.145H203.627V162.694V163.731H203.109H202.591V164.249V164.767H202.073H201.554V165.803V166.839H201.036H200.518V167.876V168.912H200H199.482V169.43V169.948H198.964H198.446V170.984V172.021H197.928H197.409V172.539V173.057H196.891H196.373V173.575V174.093H195.855H195.337V174.611V175.13H194.819H194.301V175.648V176.166H193.782H193.264V176.684V177.202H192.746H192.228V177.72V178.238H191.71H191.192V178.756V179.275H190.674H190.156V179.793V180.311H189.637H189.119V180.829V181.347H188.601H188.083V181.865V182.383H187.047H186.01V182.902V183.42H185.492H184.974V183.938V184.456H184.456H183.938V184.974V185.492H180.311H176.684V184.974V184.456H173.575H170.466V183.938V183.42H167.876H165.285V182.902V182.383H162.694H160.104V181.865V181.347H157.513H154.922V180.829V180.311H152.332H149.741V179.793V179.275H146.632H143.523V178.756V178.238H140.933H138.342V177.72V177.202H135.751H133.161V176.684V176.166H130.57H127.979V175.648V175.13H125.389H122.798V174.611V174.093H120.207H117.617V173.575V173.057H114.508H111.399V172.539V172.021H108.808H106.218V171.503V170.984H103.627H101.036V170.466V169.948H98.4457H95.855V169.43V168.912H93.2643H90.6736V168.394V167.876H87.5648H84.456V167.358V166.839H81.8653H79.2747V166.321V165.803H76.684H74.0933V165.285V164.767H71.5026H68.912V164.249V163.731H66.3213H63.7306V163.212V162.694H60.6218H57.513V162.176V161.658H54.9223H52.3317V161.14V160.622H49.741H47.1503V160.104V159.585H44.5596H41.969V159.067V158.549H39.3783H36.7876V158.031V157.513H34.1969H31.6063V156.995V156.477H28.4975H25.3887V155.959V155.44H23.8343H22.2798V156.995ZM70.9845 155.959V156.477H69.9482H68.912V156.995V157.513H68.3938H67.8757V158.031V158.549H67.3576H66.8394V159.067V159.585H67.8757H68.912V160.104V160.622H72.0208H75.1296V161.14V161.658H77.7203H80.3109V162.176V162.694H83.4197H86.5286V163.212V163.731H89.1192H91.7099V164.249V164.767H94.3006H96.8913V165.285V165.803H100H103.109V166.321V166.839H105.7H108.29V167.358V167.876H111.399H114.508V168.394V168.912H117.099H119.689V169.43V169.948H122.28H124.871V170.466V170.984H127.979H131.088V171.503V172.021H133.679H136.27V172.539V173.057H139.378H142.487V173.575V174.093H146.114H149.741V173.575V173.057H150.259H150.777V172.539V172.021H151.295H151.814V171.503V170.984H152.332H152.85V170.466V169.948H153.368H153.886V169.43V168.912H154.404H154.922V168.394V167.876H155.44H155.959V166.839V165.803H154.922H153.886V166.321V166.839H153.368H152.85V167.358V167.876H152.332H151.814V166.839V165.803H152.332H152.85V165.285V164.767H151.814H150.777V164.249V163.731H147.668H144.56V163.212V162.694H139.896H135.233V163.212V163.731H134.715H134.197V164.767V165.803H130.57H126.943V166.321V166.839H126.425H125.907V167.876V168.912H124.871H123.834V168.394V167.876H124.352H124.871V166.839V165.803H125.389H125.907V165.285V164.767H124.871H123.834V164.249V163.731H122.28H120.725V164.249V164.767H120.207H119.689V165.285V165.803H118.653H117.617V166.839V167.876H117.099H116.58V166.321V164.767H117.617H118.653V164.249V163.731H118.135H117.617V163.212V162.694H115.026H112.435V163.212V163.731H111.917H111.399V164.249V164.767H110.881H110.363V165.803V166.839H109.845H109.326V165.285V163.731H109.845H110.363V163.212V162.694H109.845H109.326V162.176V161.658H106.218H103.109V161.14V160.622H100.518H97.9275V160.104V159.585H94.8187H91.7099V159.067V158.549H89.1192H86.5286V158.031V157.513H83.4197H80.3109V156.995V156.477H77.7203H75.1296V155.959V155.44H73.0571H70.9845V155.959ZM96.8913 155.959V156.477H95.855H94.8187V157.513V158.549H96.8913H98.9638V159.067V159.585H100H101.036V158.549V157.513H101.554H102.073V156.995V156.477H103.109H104.145V155.959V155.44H100.518H96.8913V155.959ZM130.052 155.959V156.477H129.016H127.979V156.995V157.513H127.461H126.943V158.549V159.585H123.316H119.689V160.104V160.622H119.171H118.653V161.658V162.694H121.244H123.834V162.176V161.658H124.352H124.871V161.14V160.622H125.907H126.943V160.104V159.585H130.052H133.161V158.549V157.513H134.197H135.233V156.995V156.477H135.751H136.27V155.959V155.44H133.161H130.052V155.959ZM211.917 155.959V156.477H212.435H212.953V155.959V155.44H212.435H211.917V155.959ZM277.202 155.959V156.477H277.72H278.238V156.995V157.513H278.757H279.275V158.031V158.549H279.793H280.311V158.031V157.513H279.793H279.275V156.995V156.477H278.757H278.238V155.959V155.44H277.72H277.202V155.959ZM280.311 155.959V156.477H280.829H281.347V156.995V157.513H281.865H282.383V156.995V156.477H281.865H281.347V155.959V155.44H280.829H280.311V155.959ZM105.181 156.995V157.513H104.145H103.109V158.031V158.549H102.591H102.073V159.067V159.585H103.109H104.145V160.104V160.622H106.736H109.326V159.585V158.549H109.845H110.363V158.031V157.513H109.845H109.326V156.995V156.477H107.254H105.181V156.995ZM213.99 156.995V157.513H214.508H215.026V156.995V156.477H214.508H213.99V156.995ZM113.472 158.031V158.549H112.435H111.399V159.067V159.585H110.881H110.363V160.622V161.658H113.472H116.58V161.14V160.622H117.099H117.617V160.104V159.585H118.135H118.653V159.067V158.549H117.617H116.58V158.031V157.513H115.026H113.472V158.031ZM211.917 158.031V158.549H212.435H212.953V158.031V157.513H212.435H211.917V158.031ZM216.062 158.031V158.549H217.099H218.135V158.031V157.513H217.099H216.062V158.031ZM283.42 158.031V158.549H283.938H284.456V158.031V157.513H283.938H283.42V158.031ZM213.99 159.067V159.585H214.508H215.026V159.067V158.549H214.508H213.99V159.067ZM219.171 159.067V159.585H219.689H220.207V159.067V158.549H219.689H219.171V159.067ZM239.896 159.067V159.585H240.415H240.933V160.104V160.622H241.451H241.969V161.14V161.658H242.487H243.005V162.176V162.694H243.523H244.042V163.731V164.767H244.56H245.078V163.731V162.694H244.56H244.042V162.176V161.658H243.523H243.005V161.14V160.622H242.487H241.969V160.104V159.585H241.451H240.933V159.067V158.549H240.415H239.896V159.067ZM281.347 159.067V159.585H281.865H282.383V160.104V160.622H282.902H283.42V160.104V159.585H282.902H282.383V159.067V158.549H281.865H281.347V159.067ZM165.285 160.104V160.622H164.767H164.249V161.14V161.658H165.285H166.321V160.622V159.585H165.803H165.285V160.104ZM217.099 160.104V160.622H217.617H218.135V160.104V159.585H217.617H217.099V160.104ZM221.244 160.104V160.622H221.762H222.28V160.104V159.585H221.762H221.244V160.104ZM284.456 160.104V160.622H284.974H285.492V160.104V159.585H284.974H284.456V160.104ZM192.228 161.14V161.658H191.192H190.156V162.176V162.694H189.637H189.119V163.731V164.767H191.71H194.301V165.285V165.803H194.819H195.337V165.285V164.767H195.855H196.373V164.249V163.731H196.891H197.409V163.212V162.694H196.891H196.373V163.212V163.731H195.855H195.337V164.249V164.767H194.819H194.301V163.731V162.694H194.819H195.337V161.658V160.622H193.782H192.228V161.14ZM219.171 161.14V161.658H219.689H220.207V161.14V160.622H219.689H219.171V161.14ZM224.352 161.14V161.658H224.871H225.389V161.14V160.622H224.871H224.352V161.14ZM221.244 162.176V162.694H222.28H223.316V162.176V161.658H222.28H221.244V162.176ZM226.425 162.176V162.694H226.943H227.461V162.176V161.658H226.943H226.425V162.176ZM283.42 162.176V162.694H283.938H284.456V162.176V161.658H283.938H283.42V162.176ZM285.492 162.176V162.694H286.01H286.529V162.176V161.658H286.01H285.492V162.176ZM224.352 163.212V163.731H224.871H225.389V163.212V162.694H224.871H224.352V163.212ZM228.497 163.212V163.731H229.534H230.57V163.212V162.694H229.534H228.497V163.212ZM161.14 164.249V164.767H160.622H160.104V165.285V165.803H159.586H159.067V166.321V166.839H159.586H160.104V166.321V165.803H161.14H162.176V164.767V163.731H161.658H161.14V164.249ZM226.425 164.249V164.767H226.943H227.461V164.249V163.731H226.943H226.425V164.249ZM231.606 164.249V164.767H232.124H232.643V164.249V163.731H232.124H231.606V164.249ZM246.114 165.803V167.876H244.042H241.969V168.394V168.912H244.042H246.114V168.394V167.876H246.632H247.15V165.803V163.731H246.632H246.114V165.803ZM284.456 164.249V164.767H284.974H285.492V164.249V163.731H284.974H284.456V164.249ZM286.529 164.249V164.767H287.047H287.565V165.285V165.803H288.083H288.601V165.285V164.767H288.083H287.565V164.249V163.731H287.047H286.529V164.249ZM229.534 165.285V165.803H230.052H230.57V165.285V164.767H230.052H229.534V165.285ZM234.715 165.285V165.803H235.233H235.751V165.285V164.767H235.233H234.715V165.285ZM134.197 166.321V166.839H133.679H133.161V167.358V167.876H132.643H132.124V169.43V170.984H132.643H133.161V169.948V168.912H133.679H134.197V168.394V167.876H134.715H135.233V167.358V166.839H138.86H142.487V166.321V165.803H138.342H134.197V166.321ZM187.047 166.321V166.839H186.529H186.01V167.358V167.876H185.492H184.974V168.394V168.912H187.047H189.119V169.43V169.948H189.637H190.156V170.984V172.021H190.674H191.192V170.984V169.948H191.71H192.228V169.43V168.912H192.746H193.264V167.876V166.839H192.746H192.228V167.358V167.876H191.71H191.192V168.394V168.912H190.674H190.156V167.876V166.839H190.674H191.192V166.321V165.803H189.119H187.047V166.321ZM231.606 166.321V166.839H232.643H233.679V166.321V165.803H232.643H231.606V166.321ZM236.788 166.321V166.839H237.824H238.86V166.321V165.803H237.824H236.788V166.321ZM285.492 166.321V166.839H286.01H286.529V168.912V170.984H287.047H287.565V168.912V166.839H287.047H286.529V166.321V165.803H286.01H285.492V166.321ZM143.523 167.358V167.876H142.487H141.451V168.394V168.912H140.933H140.415V169.948V170.984H139.896H139.378V171.503V172.021H140.415H141.451V170.984V169.948H141.969H142.487V169.43V168.912H143.523H144.56V168.394V167.876H145.078H145.596V168.394V168.912H147.15H148.705V169.43V169.948H148.187H147.668V170.466V170.984H147.15H146.632V171.503V172.021H147.668H148.705V171.503V170.984H149.223H149.741V170.466V169.948H150.259H150.777V168.912V167.876H148.705H146.632V167.358V166.839H145.078H143.523V167.358ZM234.715 167.358V167.876H235.233H235.751V167.358V166.839H235.233H234.715V167.358ZM239.896 167.358V167.876H240.415H240.933V167.358V166.839H240.415H239.896V167.358ZM288.601 167.876V168.912H288.912H289.223V167.876V166.839H288.912H288.601V167.876ZM156.995 168.394V168.912H156.477H155.959V169.43V169.948H156.995H158.031V168.912V167.876H157.513H156.995V168.394ZM237.824 168.394V168.912H238.342H238.86V168.394V167.876H238.342H237.824V168.394ZM285.492 172.539V173.057H284.974H284.456V173.575V174.093H284.974H285.492V173.575V173.057H286.01H286.529V172.539V172.021H286.01H285.492V172.539ZM287.565 172.539V173.057H288.083H288.601V172.539V172.021H288.083H287.565V172.539ZM259.586 174.611V175.13H258.031H256.477V175.648V176.166H254.404H252.332V176.684V177.202H251.295H250.259V177.72V178.238H249.223H248.187V178.756V179.275H247.15H246.114V179.793V180.311H245.596H245.078V180.829V181.347H244.56H244.042V181.865V182.383H243.523H243.005V183.42V184.456H242.487H241.969V184.974V185.492H241.451H240.933V186.01V186.529H240.415H239.896V187.565V188.601H239.378H238.86V191.192V193.782H239.378H239.896V194.819V195.855H241.969H244.042V196.373V196.891H246.114H248.187V197.409V197.927H250.259H252.332V198.446V198.964H253.886H255.44V199.482V200H260.622H265.803V199.482V198.964H266.321H266.839V198.446V197.927H267.358H267.876V197.409V196.891H268.912H269.948V196.373V195.855H270.466H270.985V195.337V194.819H271.503H272.021V194.301V193.782H272.539H273.057V193.264V192.746H273.575H274.093V192.228V191.71H275.13H276.166V191.192V190.674H276.684H277.202V190.155V189.637H277.72H278.238V189.119V188.601H278.757H279.275V188.083V187.565H279.793H280.311V187.047V186.529H281.347H282.383V186.01V185.492H282.902H283.42V184.974V184.456H283.938H284.456V181.347V178.238H283.938H283.42V177.72V177.202H282.383H281.347V176.684V176.166H280.311H279.275V176.684V177.202H278.757H278.238V176.684V176.166H275.648H273.057V175.648V175.13H269.948H266.839V174.611V174.093H263.213H259.586V174.611ZM286.529 174.611V175.13H286.01H285.492V175.648V176.166H284.974H284.456V176.684V177.202H284.974H285.492V176.684V176.166H286.01H286.529V175.648V175.13H287.047H287.565V174.611V174.093H287.047H286.529V174.611ZM260.622 175.648V176.166H262.176H263.731V175.648V175.13H262.176H260.622V175.648ZM282.383 175.648V176.166H282.902H283.42V175.648V175.13H282.902H282.383V175.648ZM257.513 176.684V177.202H255.44H253.368V177.72V178.238H252.332H251.295V178.756V179.275H250.259H249.223V179.793V180.311H248.187H247.15V180.829V181.347H246.632H246.114V181.865V182.383H245.596H245.078V182.902V183.42H244.56H244.042V184.456V185.492H243.523H243.005V186.01V186.529H242.487H241.969V187.047V187.565H241.451H240.933V189.119V190.674H241.969H243.005V191.192V191.71H245.078H247.15V192.228V192.746H249.223H251.295V193.264V193.782H253.368H255.44V194.301V194.819H257.513H259.586V195.337V195.855H260.622H261.658V195.337V194.819H262.694H263.731V194.301V193.782H264.249H264.767V193.264V192.746H265.285H265.803V192.228V191.71H266.321H266.839V191.192V190.674H267.358H267.876V190.155V189.637H268.394H268.912V189.119V188.601H269.43H269.948V188.083V187.565H270.466H270.985V187.047V186.529H271.503H272.021V186.01V185.492H273.057H274.093V184.974V184.456H275.13H276.166V183.938V183.42H277.202H278.238V182.902V182.383H279.275H280.311V181.865V181.347H281.347H282.383V180.829V180.311H282.902H283.42V179.793V179.275H282.902H282.383V178.756V178.238H280.311H278.238V178.756V179.275H277.72H277.202V179.793V180.311H275.648H274.093V180.829V181.347H273.057H272.021V180.829V180.311H268.912H265.803V179.793V179.275H263.213H260.622V178.756V178.238H259.067H257.513V177.72V177.202H258.549H259.586V176.684V176.166H258.549H257.513V176.684ZM270.985 176.684V177.202H271.503H272.021V176.684V176.166H271.503H270.985V176.684ZM261.658 177.72V178.238H264.249H266.839V178.756V179.275H270.985H275.13V178.756V178.238H272.539H269.948V177.72V177.202H265.803H261.658V177.72ZM276.166 177.72V178.238H276.684H277.202V177.72V177.202H276.684H276.166V177.72ZM281.347 182.902V183.42H280.311H279.275V183.938V184.456H278.238H277.202V184.974V185.492H276.166H275.13V186.01V186.529H274.093H273.057V187.047V187.565H272.539H272.021V188.083V188.601H271.503H270.985V189.119V189.637H270.466H269.948V190.155V190.674H269.43H268.912V191.192V191.71H268.394H267.876V192.228V192.746H267.358H266.839V193.264V193.782H266.321H265.803V194.301V194.819H265.285H264.767V195.337V195.855H263.731H262.694V196.373V196.891H260.622H258.549V196.373V195.855H256.477H254.404V195.337V194.819H252.332H250.259V194.301V193.782H248.187H246.114V193.264V192.746H244.042H241.969V192.228V191.71H240.933H239.896V192.228V192.746H240.415H240.933V193.782V194.819H243.005H245.078V195.337V195.855H247.15H249.223V196.373V196.891H251.295H253.368V197.409V197.927H254.922H256.477V198.446V198.964H260.622H264.767V198.446V197.927H265.285H265.803V197.409V196.891H266.321H266.839V196.373V195.855H267.876H268.912V195.337V194.819H269.43H269.948V194.301V193.782H270.466H270.985V193.264V192.746H271.503H272.021V192.228V191.71H272.539H273.057V191.192V190.674H274.093H275.13V190.155V189.637H275.648H276.166V189.119V188.601H276.684H277.202V188.083V187.565H277.72H278.238V187.047V186.529H278.757H279.275V186.01V185.492H280.311H281.347V184.974V184.456H281.865H282.383V183.938V183.42H282.902H283.42V182.902V182.383H282.383H281.347V182.902Z" fill="#040404"/>
</g>
<defs>
<clipPath id="clip0_95_500">
<rect width="289.223" height="200" fill="white"/>
</clipPath>
</defs>
</svg>
