<svg width="270" height="321" viewBox="0 0 270 321" fill="none" xmlns="http://www.w3.org/2000/svg">
<path fill-rule="evenodd" clip-rule="evenodd" d="M40 10V15H35H30V20V25H25H20V35V45H15H10V70V95H5H0V130V165H5H10V170V175H15H20V180V185H25H30V190V195H45H60V200V205H65H70V210V215H75H80V220V225H85H90V230V235H85H80V240V245H60H40V250V255H35H30V260V265H35H40V260V255H50H60V260V265H65H70V260V255H75H80V250V245H95H110V235V225H105H100V220V215H120H140V220V225H150H160V230V235H165H170V240V245H175H180V255V265H185H190V270V275H195H200V285V295H205H210V300V305H215H220V313V321H235H250V318C250 315.067 250.111 315 255 315H260V310V305H265H270V295V285H265H260V275V265H255H250V260V255H245H240V250V245H235H230V240V235H225H220V230V225H215H210V215V205H215H220V195V185H215H210V180V175H205H200V170V165H195H190V160V155H185H180V150V145H170H160V140V135H155H150V130V125H140H130V120V115H125H120V110V105H110H100V100V95H95H90V90V85H85H80V75V65H75H70V60V55H75H80V45V35H90H100V30V25H110H120V20V15H100H80V10V5H60H40V10ZM70 20V25H75H80V20V15H75H70V20Z" fill="#040404"/>
<path fill-rule="evenodd" clip-rule="evenodd" d="M70 20V25H75H80V20V15H75H70V20Z" fill="#FCFCFC"/>
</svg>
