<svg width="496" height="94" viewBox="0 0 496 94" fill="none" xmlns="http://www.w3.org/2000/svg">
<g clip-path="url(#clip0_1512_4309)">
<path d="M0.273926 0.279175H26.6655L36.1406 8.85813H108.247V23.7191H13.9585L0.273926 81.555V0.279175Z" fill="white" stroke="white" stroke-width="3" stroke-miterlimit="10"/>
<path d="M17.5285 28.8751H123L109.184 94H3.32324L17.5285 28.8751Z" fill="white"/>
</g>
<path d="M186.12 63H173L157.08 28.36L155.24 21.48H154.76V63H145.8V7.64H158.92L174.84 42.28L176.6 49.08H177.16V7.64H186.12V63ZM207.146 23.16V63H198.106V23.16H207.146ZM198.106 15.64V7.64H207.146V15.64H198.106ZM226.599 7.64V63H217.559V7.64H226.599ZM263.653 63.4H243.413L236.613 56.6V29.56L243.413 22.76H261.893L268.693 29.56V46.52H245.653V53.32L248.853 56.52H259.093L263.813 52.04L269.653 57.4L263.653 63.4ZM245.653 32.84V39.96H259.653V32.84L256.453 29.64H248.853L245.653 32.84ZM314.087 8.12L302.648 34.68L316.408 63H310.568L298.008 37.24H286.088V63H280.888V8.12H286.088V32.44H298.008L308.408 8.12H314.087ZM328.481 29.4L334.561 23.56H343.041V28.2H335.601L328.481 34.6V63H323.681V23.56H327.361L328.241 29.4H328.481ZM380.004 30.6V55.96L372.964 63H356.884L349.844 55.96V30.6L356.884 23.56H372.964L380.004 30.6ZM354.644 32.84V53.72L359.524 58.6H370.324L375.204 53.72V32.84L370.324 27.96H359.524L354.644 32.84ZM416.591 63V32.84L411.711 27.96H404.591L397.231 34.6V63H392.431V23.56H396.111L396.991 29.4H397.231L403.311 23.56H414.351L421.391 30.6V63H416.591ZM457.668 63H440.868L433.828 55.96V30.6L440.868 23.56H455.988L463.028 30.6V45.8H438.628V53.72L443.508 58.6H455.108L459.908 53.88L463.428 57.24L457.668 63ZM438.628 32.84V41.4H458.228V32.84L453.348 27.96H443.508L438.628 32.84ZM479.809 29.4L485.889 23.56H494.369V28.2H486.929L479.809 34.6V63H475.009V23.56H478.689L479.569 29.4H479.809Z" fill="white"/>
<path d="M146.992 75.2891H144.711V73H146.992V75.2891ZM144.711 78.7188H143.562V75.2891H144.711V78.7188ZM148.141 78.7188H146.992V75.2891H148.141V78.7188ZM143.562 82.1484H142.422V78.7188H143.562V82.1484ZM149.281 82.1484H148.141V78.7188H149.281V82.1484ZM142.422 85.5781H141.281V82.1484H142.422V83.2891H149.281V82.1484H150.422V85.5781H149.281V84.4297H142.422V85.5781ZM141.281 89H140.141V85.5781H141.281V89ZM151.562 89H150.422V85.5781H151.562V89ZM155 89H153.859V77.5781H155V79.8594H156.141V81H155V89ZM159.57 78.7188H157.281V77.5781H159.57V78.7188ZM157.281 79.8594H156.141V78.7188H157.281V79.8594ZM163.578 87.8594H162.438V78.7188H160.727V77.5781H162.438V74.1484H163.578V77.5781H166.438V78.7188H163.578V87.8594ZM166.438 89H163.578V87.8594H166.438V89ZM169.281 75.8594H168.141V73.5781H169.281V75.8594ZM169.281 89H168.141V77.5781H169.281V89ZM173.859 78.7188V77.5781H178.43V78.7188H173.859ZM173.859 79.8594H172.719V78.7188H173.859V79.8594ZM178.43 79.8594V78.7188H179.578V79.8594H178.43ZM172.719 82.1484H171.578V79.8594H172.719V82.1484ZM180.719 79.8594V81H179.578V79.8594H180.719ZM173.859 83.8594V83.2891H172.719V82.1484H173.859V82.7188H178.43V83.2891H179.578V84.4297H178.43V83.8594H173.859ZM180.719 84.4297V86.7188H179.578V84.4297H180.719ZM171.578 86.7188V85.5781H172.719V86.7188H171.578ZM172.719 87.8594V86.7188H173.859V87.8594H172.719ZM179.578 87.8594H178.43V86.7188H179.578V87.8594ZM178.43 89H173.859V87.8594H178.43V89ZM184.734 87.8594H183.594V78.7188H181.883V77.5781H183.594V74.1484H184.734V77.5781H187.594V78.7188H184.734V87.8594ZM187.594 89H184.734V87.8594H187.594V89ZM190.438 89H189.297V86.7188H190.438V89Z" fill="white"/>
<path d="M226.141 89H218.141V73H226.141V74.1484H219.281V87.8594H226.141V89ZM227.281 75.2891H226.141V74.1484H227.281V75.2891ZM228.422 76.4297H227.281V75.2891H228.422V76.4297ZM229.562 85.5781H228.422V76.4297H229.562V85.5781ZM228.422 86.7188H227.281V85.5781H228.422V86.7188ZM227.281 87.8594H226.141V86.7188H227.281V87.8594ZM243.511 78.7188H238.941V77.5781H243.511V78.7188ZM238.941 79.8594H237.8V78.7188H238.941V79.8594ZM244.659 79.8594H243.511V78.7188H244.659V79.8594ZM237.8 86.7188H236.659V79.8594H237.8V82.1484H244.659V79.8594H245.8V83.2891H237.8V86.7188ZM245.8 86.7188H244.659V85H245.8V86.7188ZM238.941 87.8594H237.8V86.7188H238.941V87.8594ZM244.659 87.8594H243.511V86.7188H244.659V87.8594ZM243.511 89H238.941V87.8594H243.511V89ZM254.616 78.7188V77.5781H259.186V78.7188H254.616ZM254.616 79.8594H253.475V78.7188H254.616V79.8594ZM259.186 79.8594V78.7188H260.334V79.8594H259.186ZM253.475 82.1484H252.334V79.8594H253.475V82.1484ZM261.475 79.8594V81H260.334V79.8594H261.475ZM254.616 83.8594V83.2891H253.475V82.1484H254.616V82.7188H259.186V83.2891H260.334V84.4297H259.186V83.8594H254.616ZM261.475 84.4297V86.7188H260.334V84.4297H261.475ZM252.334 86.7188V85.5781H253.475V86.7188H252.334ZM253.475 87.8594V86.7188H254.616V87.8594H253.475ZM260.334 87.8594H259.186V86.7188H260.334V87.8594ZM259.186 89H254.616V87.8594H259.186V89ZM269.713 75.8594H268.572V73.5781H269.713V75.8594ZM269.713 89H268.572V77.5781H269.713V89ZM282.52 78.7188H279.091V77.5781H282.52V78.7188ZM285.95 91.2812H284.809V86.7188H283.661V85.5781H284.809V81H283.661V79.8594H284.809V77.5781H285.95V91.2812ZM279.091 79.8594H277.95V78.7188H279.091V79.8594ZM283.661 79.8594H282.52V78.7188H283.661V79.8594ZM277.95 86.7188H276.809V79.8594H277.95V86.7188ZM279.091 87.8594H277.95V86.7188H279.091V87.8594ZM283.661 87.8594H282.52V86.7188H283.661V87.8594ZM282.52 89H279.091V87.8594H282.52V89ZM277.95 91.2812H276.809V90.1406H277.95V91.2812ZM279.091 92.4219H277.95V91.2812H279.091V92.4219ZM284.809 92.4219H283.661V91.2812H284.809V92.4219ZM283.661 93.5703H279.091V92.4219H283.661V93.5703ZM294.188 89H293.047V77.5781H294.188V79.8594H295.328V81H294.188V89ZM299.898 78.7188H296.469V77.5781H299.898V78.7188ZM296.469 79.8594H295.328V78.7188H296.469V79.8594ZM301.047 79.8594H299.898V78.7188H301.047V79.8594ZM302.188 89H301.047V79.8594H302.188V89ZM316.136 78.7188H311.566V77.5781H316.136V78.7188ZM311.566 79.8594H310.425V78.7188H311.566V79.8594ZM317.284 79.8594H316.136V78.7188H317.284V79.8594ZM310.425 86.7188H309.284V79.8594H310.425V82.1484H317.284V79.8594H318.425V83.2891H310.425V86.7188ZM318.425 86.7188H317.284V85H318.425V86.7188ZM311.566 87.8594H310.425V86.7188H311.566V87.8594ZM317.284 87.8594H316.136V86.7188H317.284V87.8594ZM316.136 89H311.566V87.8594H316.136V89ZM326.662 89H325.522V77.5781H326.662V79.8594H327.803V81H326.662V89ZM331.233 78.7188H328.944V77.5781H331.233V78.7188ZM328.944 79.8594H327.803V78.7188H328.944V79.8594ZM336.619 89H335.478V86.7188H336.619V89Z" fill="white"/>
<path d="M370.281 89H369.141V73H370.281V79.8594H379.422V73H380.562V89H379.422V81H370.281V89ZM396.8 86.7188H395.659V77.5781H396.8V86.7188ZM404.8 89H403.659V86.7188H402.511V85.5781H403.659V77.5781H404.8V89ZM397.941 87.8594H396.8V86.7188H397.941V87.8594ZM402.511 87.8594H401.37V86.7188H402.511V87.8594ZM401.37 89H397.941V87.8594H401.37V89ZM421.037 89H419.897V77.5781H421.037V79.8594H422.178V81H421.037V89ZM425.608 78.7188H423.319V77.5781H425.608V78.7188ZM432.467 78.7188H429.037V77.5781H432.467V78.7188ZM423.319 79.8594H422.178V78.7188H423.319V79.8594ZM426.748 79.8594H425.608V78.7188H426.748V79.8594ZM429.037 79.8594H427.897V78.7188H429.037V79.8594ZM433.608 79.8594H432.467V78.7188H433.608V79.8594ZM427.897 89H426.748V79.8594H427.897V89ZM434.748 89H433.608V79.8594H434.748V89ZM456.673 78.7188H452.103V77.5781H456.673V78.7188ZM452.103 79.8594H450.963V78.7188H452.103V79.8594ZM457.822 79.8594H456.673V78.7188H457.822V79.8594ZM450.963 81H449.822V79.8594H450.963V81ZM458.963 87.8594H457.822V86.7188H456.673V85.5781H457.822V82.1484H456.673V81H457.822V79.8594H458.963V87.8594ZM456.673 83.2891H452.103V82.1484H456.673V83.2891ZM452.103 84.4297H450.963V83.2891H452.103V84.4297ZM450.963 86.7188H449.822V84.4297H450.963V86.7188ZM452.103 87.8594H450.963V86.7188H452.103V87.8594ZM456.673 87.8594H455.533V86.7188H456.673V87.8594ZM455.533 89H452.103V87.8594H455.533V89ZM460.103 89H458.963V87.8594H460.103V89ZM475.762 89H474.622V77.5781H475.762V79.8594H476.903V81H475.762V89ZM481.473 78.7188H478.044V77.5781H481.473V78.7188ZM478.044 79.8594H476.903V78.7188H478.044V79.8594ZM482.622 79.8594H481.473V78.7188H482.622V79.8594ZM483.762 89H482.622V79.8594H483.762V89ZM489.838 89H488.697V86.7188H489.838V89Z" fill="white"/>
<defs>
<clipPath id="clip0_1512_4309">
<rect width="123" height="94" fill="white"/>
</clipPath>
</defs>
</svg>
