<svg width="251" height="320" viewBox="0 0 251 320" fill="none" xmlns="http://www.w3.org/2000/svg">
<g clip-path="url(#clip0_8_2821)">
<path fill-rule="evenodd" clip-rule="evenodd" d="M5 160V320H128H251V190V60H248C245.067 60 245 59.889 245 55V50H240H235V45V40H230H225V35V30H220H215V25V20H210H205V15V10H200H195V5V0H100H5V160ZM15 160V310H130H245V190V70H215H185V40V10H100H15V160ZM195 40V60H215H235V55V50H230H225V45V40H220H215V35V30H210H205V25V20H200H195V40Z" fill="#040404"/>
<path fill-rule="evenodd" clip-rule="evenodd" d="M15 160V310H130H245V190V70H215H185V40V10H100H15V160ZM195 40V60H215H235V55V50H230H225V45V40H220H215V35V30H210H205V25V20H200H195V40Z" fill="#FCFCFC"/>
</g>
<defs>
<clipPath id="clip0_8_2821">
<rect width="251" height="320" fill="white"/>
</clipPath>
</defs>
</svg>
