<svg width="320" height="28" viewBox="0 0 320 28" fill="none" xmlns="http://www.w3.org/2000/svg">
<path d="M319.5 0.5V27.5H0.5V0.5H319.5Z" fill="white"/>
<path d="M319.5 0.5V27.5H0.5V0.5H319.5Z" stroke="black"/>
<rect x="4" y="6" width="312" height="1" fill="black"/>
<rect x="4" y="12" width="312" height="1" fill="black"/>
<rect x="4" y="18" width="312" height="1" fill="black"/>
<rect x="4" y="9" width="312" height="1" fill="black"/>
<rect x="4" y="15" width="312" height="1" fill="black"/>
<rect x="4" y="21" width="312" height="1" fill="black"/>
<rect width="32" height="18" transform="translate(4 5)" fill="white"/>
<path d="M26.0408 9V10.6667H13.9592L12 18.3333V10.6667V8H15.5918L16.5714 9H26.0408Z" fill="black"/>
<path d="M26.2041 20H12.4898L14.449 11.5H28L26.2041 20Z" fill="black"/>
<rect x="1" y="27" width="1" height="1" fill="white"/>
<rect x="318" y="27" width="1" height="1" fill="white"/>
</svg>
