<svg width="390" height="441" viewBox="0 0 390 441" fill="none" xmlns="http://www.w3.org/2000/svg">
<path fill-rule="evenodd" clip-rule="evenodd" d="M230 10V15H220H210V20V25H205H200V30V35H195H190V40V45H185H180V50V55H175H170V65V75H165H160V85V95H155H150V120V145H145H140V140V135H135H130V130V125H125H120V120V115H115H110V110V105H105H100V100V95H95H90V90V85H80H70V80V75H60H50V70V65H25H0V75V85H5H10V95V105H15H20V110V115H25H30V120V125H35H40V130V135H50H60V140V145H75H90V150V155H100H110V160V165H115H120V175V185H115H110V205V225H100H90V230V235H75H60V240V245H55H50V250V255H45H40V270V285H45H50V290V295H55H60V300V305H65H70V310V315H85H100V355V395H95H90V405V415H95H100V420V425H110H120V430V435H130H140V438V441H170H200V438V435H215H230V430V425H240H250V420V415H255H260V405V395H255H250V375V355H245H240V335V315H250H260V310V305H270H280V300V295H285H290V290V285H295H300V265V245H295H290V240V235H280H270V225V215H275H280V210V205H285H290V210V215H295H300V220V225H305H310V220V215H315H320V210V205H325H330V200V195H335H340V190V185H345H350V180V175H355H360V170V165H365H370V160V155H375H380V150V145H385H390V135V125H385H380V120V115H375H370V110V105H365H360V100V95H355H350V90V85H345H340V80V75H330H320V80V85H315H310V90V95H305H300V100V105H295H290V110V115H285H280V120V125H275H270V130V135H265H260V140V145H255H250V150V155H245H240V160V165H245H250V175V185H245H240V195V205H235H230V195V185H225H220V180V175H215H210V170V165H205H200V160V155H195H190V140V125H195H200V120V115H205H210V110V105H215H220V95V85H225H230V80V75H235H240V65V55H245H250V45V35H255H260V25V15H255H250V10V5H240H230V10ZM230 20V25H220H210V30V35H205H200V40V45H195H190V50V55H185H180V65V75H175H170V85V95H165H160V125V155H150H140V160V165H135H130V175V185H125H120V210V235H125H130V240V245H125H120V255V265H115H110V270V275H105H100V280V285H95H90V290V295H105H120V290V285H125H130V280V275H135H140V280V285H145H150V280V275H155H160V280V285H165H170V280V275H175H180V280V285H185H190V280V275H195H200V270V265H205H210V270V275H215H220V270V265H225H230V260V255H225H220V250V245H230H240V240V235H245H250V230V225H255H260V215V205H270H280V200V195H285H290V200V205H295H300V210V215H305H310V210V205H315H320V200V195H325H330V190V185H335H340V180V175H345H350V170V165H355H360V160V155H365H370V150V145H375H380V135V125H375H370V120V115H365H360V110V105H355H350V100V95H345H340V90V85H330H320V90V95H315H310V100V105H305H300V110V115H295H290V120V125H285H280V130V135H275H270V140V145H265H260V150V155H255H250V160V165H255H260V170V175H270H280V185V195H275H270V190V185H260H250V195V205H245H240V210V215H235H230V225V235H225H220V215V195H215H210V185V175H205H200V170V165H195H190V170V175H185H180V165V155H175H170V135V115H175H180V120V125H185H190V120V115H195H200V110V105H205H210V95V85H215H220V75V65H225H230V60V55H235H240V45V35H245H250V25V15H240H230V20ZM220 40V45H215H210V50V55H205H200V65V75H195H190V85V95H185H180V105V115H185H190V105V95H195H200V85V75H205H210V65V55H215H220V50V45H225H230V40V35H225H220V40ZM10 80V85H15H20V90V95H25H30V100V105H35H40V110V115H45H50V120V125H60H70V130V135H80H90V140V145H95H100V140V135H105H110V140V145H115H120V150V155H125H130V145V135H125H120V130V125H115H110V120V115H105H100V110V105H95H90V100V95H80H70V90V85H60H50V80V75H30H10V80ZM40 100V105H50H60V110V115H65H70V120V125H80H90V130V135H95H100V130V125H95H90V120V115H80H70V110V105H65H60V100V95H50H40V100ZM130 190V195H135H140V190V185H135H130V190ZM200 215V225H190H180V220V215H170H160V220V225H165H170V230V235H155H140V230V225H135H130V230V235H135H140V240V245H135H130V250V255H135H140V260V265H150H160V270V275H165H170V270V265H175H180V270V275H185H190V270V265H195H200V260V255H205H210V260V265H215H220V260V255H215H210V250V245H215H220V240V235H215H210V240V245H200H190V250V255H165H140V250V245H160H180V240V235H190H200V230V225H205H210V215V205H205H200V215ZM210 320V325H215H220V320V315H215H210V320ZM110 330V335H115H120V330V325H115H110V330ZM130 360V395H125H120V400V405H115H110V410V415H120H130V420V425H140H150V375V325H140H130V360ZM170 330V335H175H180V330V325H175H170V330Z" fill="#040404"/>
<path fill-rule="evenodd" clip-rule="evenodd" d="M230 20V25H220H210V30V35H205H200V40V45H195H190V50V55H185H180V65V75H175H170V85V95H165H160V125V155H150H140V160V165H135H130V175V185H125H120V210V235H125H130V240V245H125H120V255V265H115H110V270V275H105H100V280V285H95H90V290V295H105H120V290V285H125H130V280V275H135H140V280V285H145H150V280V275H155H160V280V285H165H170V280V275H175H180V280V285H185H190V280V275H195H200V270V265H205H210V270V275H215H220V270V265H225H230V260V255H225H220V250V245H230H240V240V235H245H250V230V225H255H260V215V205H270H280V200V195H285H290V200V205H295H300V210V215H305H310V210V205H315H320V200V195H325H330V190V185H335H340V180V175H345H350V170V165H355H360V160V155H365H370V150V145H375H380V135V125H375H370V120V115H365H360V110V105H355H350V100V95H345H340V90V85H330H320V90V95H315H310V100V105H305H300V110V115H295H290V120V125H285H280V130V135H275H270V140V145H265H260V150V155H255H250V160V165H255H260V170V175H270H280V185V195H275H270V190V185H260H250V195V205H245H240V210V215H235H230V225V235H225H220V215V195H215H210V185V175H205H200V170V165H195H190V170V175H185H180V165V155H175H170V135V115H175H180V120V125H185H190V120V115H195H200V110V105H205H210V95V85H215H220V75V65H225H230V60V55H235H240V45V35H245H250V25V15H240H230V20ZM220 40V45H215H210V50V55H205H200V65V75H195H190V85V95H185H180V105V115H185H190V105V95H195H200V85V75H205H210V65V55H215H220V50V45H225H230V40V35H225H220V40ZM10 80V85H15H20V90V95H25H30V100V105H35H40V110V115H45H50V120V125H60H70V130V135H80H90V140V145H95H100V140V135H105H110V140V145H115H120V150V155H125H130V145V135H125H120V130V125H115H110V120V115H105H100V110V105H95H90V100V95H80H70V90V85H60H50V80V75H30H10V80ZM40 100V105H50H60V110V115H65H70V120V125H80H90V130V135H95H100V130V125H95H90V120V115H80H70V110V105H65H60V100V95H50H40V100ZM130 190V195H135H140V190V185H135H130V190ZM200 215V225H190H180V220V215H170H160V220V225H165H170V230V235H155H140V230V225H135H130V230V235H135H140V240V245H135H130V250V255H135H140V260V265H150H160V270V275H165H170V270V265H175H180V270V275H185H190V270V265H195H200V260V255H205H210V260V265H215H220V260V255H215H210V250V245H215H220V240V235H215H210V240V245H200H190V250V255H165H140V250V245H160H180V240V235H190H200V230V225H205H210V215V205H205H200V215ZM210 320V325H215H220V320V315H215H210V320ZM110 330V335H115H120V330V325H115H110V330ZM130 360V395H125H120V400V405H115H110V410V415H120H130V420V425H140H150V375V325H140H130V360ZM170 330V335H175H180V330V325H175H170V330Z" fill="#FCFCFC"/>
</svg>
